<svg width="52" height="46" viewBox="0 0 52 46" fill="none" xmlns="http://www.w3.org/2000/svg">
<path fill-rule="evenodd" clip-rule="evenodd" d="M6.8738 29.6741C11.8229 33.6259 17.425 35.2551 21.3087 35.2551C21.9432 35.2679 22.5772 35.2098 23.199 35.0818C23.9454 34.9591 24.6547 34.6678 25.2736 34.2296C25.8926 33.7914 26.4053 33.2176 26.7733 32.5513C28.698 29.2235 26.9452 23.2266 23.0959 12.966C21.7909 9.26046 20.7232 5.47426 19.8996 1.63072L19.871 1.64854L19.8995 1.66538C19.3153 5.53447 19.6944 9.48939 21.0028 13.1739C23.2024 19.0668 26.9829 31.338 22.6868 32.0659C18.3907 32.7939 12.3075 30.0554 8.80186 27.2823C7.85672 26.5346 7.03899 25.981 6.34125 25.5086C4.45101 24.2288 3.44149 23.5453 3.16537 21.216C2.78732 18.0269 4.74635 12.9659 4.74635 12.9659C5.49311 10.852 6.53464 8.85606 7.83954 7.03834C8.92114 5.55783 11.4885 2.4036 14.3417 0.915093C14.8236 0.6637 15.3136 0.459785 15.806 0.319512C16.2703 0.106033 16.776 -0.00275813 17.2875 0.00151566H29.6259C30.5839 -0.0187954 31.5352 0.165232 32.4178 0.54158C33.3003 0.917928 34.094 1.47809 34.7469 2.18534C35.2869 2.78194 35.7308 3.50468 36.1774 4.23198C36.9245 5.44853 37.6794 6.67778 38.9055 7.35033C40.0586 7.97439 41.4189 7.97172 42.7226 7.96914C42.9161 7.96876 43.1083 7.96838 43.2985 7.97003C43.3927 7.97088 43.4865 7.97223 43.5797 7.9743C44.7008 8.02043 45.8219 8.09731 46.943 8.1742L46.9478 8.17458C47.5091 8.21309 48.0705 8.25159 48.6319 8.28629C48.8753 8.3157 49.1165 8.36203 49.3536 8.42491C49.1005 8.60437 48.8697 8.81387 48.6662 9.04889L48.6262 9.1006L48.625 9.10204C48.3852 9.41093 48.0533 9.8384 48.1507 10.2968C48.2538 10.8515 48.5975 11.0247 49.113 11.2674C50.0122 11.6523 50.9981 11.784 51.9656 11.6487C51.9656 11.7527 51.9656 11.822 52 11.8636V16.5711C51.9969 17.1185 51.8717 17.6582 51.6337 18.1503C51.3957 18.6423 51.0511 19.074 50.6253 19.4135L45.7792 22.568C45.0638 23.1237 44.171 23.3951 43.2703 23.3306L28.7323 22.568C28.7323 22.568 28.0788 22.5755 27.2599 22.5624C28.2924 23.2205 29.3382 23.9799 30.382 24.8558C28.9729 30.9221 23.8176 45.7931 23.8176 45.7931C23.8176 45.7931 8.93588 48.6702 0 32.9673L4.37862 27.9029L4.47193 27.9663L4.53673 28.0102C5.34348 28.5242 6.12353 29.0795 6.8738 29.6741ZM34.7812 10.0195C33.7271 10.203 32.6431 10.0829 31.6537 9.67286C31.1381 9.43019 30.7945 9.25687 30.6914 8.70225C30.594 8.24385 30.9259 7.81638 31.1657 7.50749L31.2069 7.45434C31.7912 6.76105 32.8222 6.17173 33.8189 6.37975C33.9953 6.39968 34.1658 6.45613 34.3195 6.54563C34.4733 6.63508 34.6071 6.75564 34.7125 6.89972C34.8102 7.24979 34.822 7.61861 34.7469 7.9743C34.7253 8.13129 34.7458 8.29124 34.8062 8.43757C34.8667 8.58385 34.9648 8.71117 35.0906 8.80626C35.189 8.87717 35.3278 8.89588 35.4669 8.91458C35.6675 8.94154 35.8686 8.96862 35.9498 9.1529C36.0529 9.63817 35.0562 9.98481 34.7812 10.0195Z" fill="#00BB6F"/>
</svg>
