<?xml version="1.0" encoding="utf-8"?>
<!-- Generator: Adobe Illustrator 25.1.0, SVG Export Plug-In . SVG Version: 6.00 Build 0)  -->
<svg version="1.1" id="Layer_1" xmlns="http://www.w3.org/2000/svg" xmlns:xlink="http://www.w3.org/1999/xlink" x="0px" y="0px"
	 viewBox="0 0 40.7 40.9" style="enable-background:new 0 0 40.7 40.9;" xml:space="preserve">
<style type="text/css">
	.st0{fill-rule:evenodd;clip-rule:evenodd;fill:#7ACB59;}
	.st1{fill:none;stroke:#7ACB59;}
	.st2{fill-rule:evenodd;clip-rule:evenodd;fill:#FFFFFF;}
</style>
<g id="Layer_2_1_">
	<g id="Layer_1-2">
		<path class="st0" d="M0.7,32.5L22,21.5c0.2-0.1,0.4-0.3,0.5-0.5c0.3-0.6,0.1-1.3-0.5-1.6L0.7,8.5c0,7.5,0,11,0,12
			S0.7,25.5,0.7,32.5z"/>
		<path class="st1" d="M1.2,32.4l20.9-10.7c0.3-0.1,0.5-0.4,0.6-0.6c0.4-0.7,0.1-1.6-0.6-1.9L1.2,8.5c3.9,7,5.8,10.9,5.8,12
			S5.1,25.4,1.2,32.4z"/>
		<path class="st2" d="M0.7,32.9l21.5-11c0.3-0.2,0.6-0.4,0.7-0.7c0.4-0.8,0.1-1.8-0.7-2.2c0,0,0,0,0,0L0.7,8V3.3C0.7,1.5,2.2,0,4,0
			c0,0,0,0,0,0c0.5,0,1,0.1,1.5,0.4L39,17.5c1.6,0.8,2.2,2.8,1.4,4.4c-0.3,0.6-0.8,1.1-1.4,1.4L5.5,40.5c-1.6,0.8-3.6,0.2-4.4-1.4
			c-0.2-0.5-0.4-1-0.4-1.5L0.7,32.9z"/>
	</g>
</g>
</svg>
