<?xml version="1.0" standalone="no"?>
<!DOCTYPE svg PUBLIC "-//W3C//DTD SVG 1.1//EN" "http://www.w3.org/Graphics/SVG/1.1/DTD/svg11.dtd" >
<svg xmlns="http://www.w3.org/2000/svg" xmlns:xlink="http://www.w3.org/1999/xlink" version="1.1">
<metadata>
Created by FontForge 20201107 at Tue Mar 20 15:40:05 2018
 By Jimmy Wärting
Digitized data copyright 2012-2018 for FiraGO, bBox Type GmbH and HERE Europe B.V. All rights reserved, with Reserved Font Name "Fira" / Digitized data copyright 2012-2018 for Fira Sans The Mozilla Foundation, Telefonica S.A., Carrois Corporate GbR and bBox Type GmbH, with Reserved Font Name "Fira"
</metadata>
<defs>
<font id="FiraGO-Bold" horiz-adv-x="0" >
  <font-face 
    font-family="FiraGO"
    font-weight="700"
    font-stretch="normal"
    units-per-em="1000"
    panose-1="2 11 8 3 5 0 0 2 0 4"
    ascent="800"
    descent="-200"
    x-height="531"
    cap-height="693"
    bbox="-784 -660 2583 1348"
    underline-thickness="50"
    underline-position="-100"
    unicode-range="U+000D-FEFF"
  />
<missing-glyph horiz-adv-x="666" 
d="M543 -350h-420v1400h420v-1400zM178 998v-1296h311v1296h-311zM409.5 419q25.5 -32 25.5 -83q0 -53 -22.5 -82t-72.5 -36v-45q0 -11 -7.5 -17.5t-17.5 -6.5t-17.5 6.5t-7.5 17.5v84q53 3 72 19.5t19 57.5q0 33 -13 51t-48 18q-29 0 -52 -11q-8 -3 -13 -3q-11 0 -17.5 6.5
t-6.5 16.5q0 19 29.5 29t63.5 10q60 0 85.5 -32zM340 110q10 -10 10 -25q0 -16 -10 -26.5t-25 -10.5t-25 10.5t-10 26.5q0 15 10 25t25 10t25 -10z" />
    <glyph glyph-name="f_f" unicode="ff" horiz-adv-x="652" 
d="M551 625.5q-15 -16.5 -15 -53.5v-41h126l-18 -110h-108v-421h-158v421h-136v-421h-158v421h-81v110h81v37q0 80 53 129.5t153 49.5q71 0 150 -31q53 43 141 43q80 0 146 -34l-44 -103q-40 20 -83 20q-34 0 -49 -16.5zM378 578q0 23 5 48q-36 10 -76 10q-36 0 -50.5 -14
t-14.5 -49v-42h136v47z" />
    <glyph glyph-name="f_f_i" unicode="ffi" horiz-adv-x="892" 
d="M831 531v-531h-158v421h-137v-421h-158v421h-136v-421h-158v421h-81v110h81v37q0 80 53 129.5t153 49.5q72 0 151 -31q56 43 158 43q94 0 176 -40l-44 -101q-59 24 -114 24q-46 0 -63.5 -16t-17.5 -55v-40h295zM378 577q0 22 5 49q-36 10 -76 10q-36 0 -50.5 -14
t-14.5 -49v-42h136v46z" />
    <glyph glyph-name="f_f_j" unicode="ffj" horiz-adv-x="892" 
d="M831 60q0 -83 -26.5 -137t-72.5 -86.5t-115 -57.5l-52 115q39 18 61 35t34.5 45.5t12.5 75.5v371h-137v-421h-158v421h-136v-421h-158v421h-81v110h81v37q0 80 53 129.5t153 49.5q72 0 151 -31q56 43 158 43q94 0 176 -40l-44 -101q-59 24 -111 24q-48 0 -66 -16t-18 -55
v-40h295v-471zM378 577q0 22 5 49q-36 10 -76 10q-36 0 -50.5 -14t-14.5 -49v-42h136v46z" />
    <glyph glyph-name="f_f_l" unicode="ffl" horiz-adv-x="931" 
d="M927 1q-44 -18 -101 -18q-67 0 -104 38.5t-37 111.5v501q-44 11 -78 11q-40 0 -55.5 -16t-15.5 -55v-43h101l-17 -110h-84v-421h-158v421h-136v-421h-158v421h-81v110h81v37q0 80 53 129.5t153 49.5q71 0 150 -31q54 43 145 43q52 0 115 -18l143 15v-607q0 -41 27 -41
q14 0 27 5zM378 578q0 23 5 48q-36 10 -76 10q-36 0 -50.5 -14t-14.5 -49v-42h136v47z" />
    <glyph glyph-name="f_j" unicode="fj" horiz-adv-x="598" 
d="M537 60q0 -83 -26.5 -137t-72.5 -86.5t-115 -57.5l-53 115q39 18 61.5 35t35 45.5t12.5 75.5v371h-137v-421h-158v421h-81v110h81v46q0 82 54 132t167 50q94 0 176 -40l-44 -101q-59 24 -111 24q-48 0 -66 -16t-18 -55v-40h295v-471z" />
    <glyph glyph-name="fi" unicode="fi" horiz-adv-x="598" 
d="M481 719l-44 -101q-59 24 -114 24q-46 0 -63.5 -16t-17.5 -55v-40h295v-531h-158v421h-137v-421h-158v421h-81v110h81v46q0 82 54 132t167 50q94 0 176 -40z" />
    <glyph glyph-name="fl" unicode="fl" horiz-adv-x="636" 
d="M633 1q-44 -18 -102 -18q-67 0 -103.5 38.5t-36.5 111.5v501q-44 11 -78 11q-40 0 -55.5 -16t-15.5 -55v-43h101l-18 -110h-83v-421h-158v421h-81v110h81v47q0 80 53 130.5t153 50.5q53 0 116 -18l143 15v-607q0 -22 6.5 -31.5t20.5 -9.5t26 5z" />
    <glyph glyph-name="uni0E240E45" unicode="&#xe24;&#xe45;" horiz-adv-x="967" 
d="M840.5 545.5q53.5 -46.5 53.5 -142.5v-603l-158 17v578q0 46 -21 64t-70 18q-42 0 -98 -14q20 -46 20 -106v-567l-158 17v550q0 60 -24 86.5t-84 26.5q-44 0 -76 -12.5t-58 -34.5q62 -12 135 -40v-87q-51 -4 -72.5 -25.5t-21.5 -65.5v-62q0 -23 8 -33t26 -10q14 0 31 5
l25 -102q-18 -8 -42.5 -14t-49.5 -6q-70 0 -106.5 37t-36.5 102v79q0 59 32.5 92.5t88.5 44.5q-68 21 -141 27v86q42 52 106.5 91.5t169.5 39.5q102 0 164 -42q46 26 94.5 39t93.5 13q116 0 169.5 -46.5z" />
    <glyph glyph-name="uni0E260E45" unicode="&#xe26;&#xe45;" horiz-adv-x="969" 
d="M843.5 545.5q53.5 -46.5 53.5 -142.5v-603l-158 17v578q0 46 -21.5 64t-70.5 18q-47 0 -97 -14q20 -46 20 -106v-567l-158 17v550q0 60 -23.5 86.5t-81.5 26.5q-75 0 -130 -47q73 -15 135 -40v-87q-68 -9 -68 -101v-68q0 -63 -34 -99.5t-118 -36.5q-10 0 -46 2l-2 108
q4 -1 11 -1q25 0 31.5 12t6.5 40v66q0 50 28 79t75 40q-68 22 -142 28v86q101 131 272 131q98 0 160 -42q46 26 95 39t93 13q116 0 169.5 -46.5z" />
    <glyph glyph-name="uniFEFB" unicode="&#xfedf;&#xfe8e;" horiz-adv-x="645" arabic-form="isolated" 
d="M569 293q26 -51 26 -98q0 -99 -60.5 -147t-193.5 -48h-259l11 137q114 87 170 135.5t91 96.5l-297 265l161 24l189 -180q19 69 19 170v115l122 17v-142q0 -140 -52 -246q47 -48 73 -99zM423 152.5q36 3.5 52 14.5t16 35q0 20 -14 42t-42 50q-56 -71 -151 -145h31
q72 0 108 3.5z" />
    <glyph glyph-name="uniFEFC" unicode="&#xfee0;&#xfe8e;" horiz-adv-x="673" arabic-form="final" 
d="M693 66l-20 -66q-53 0 -94.5 25.5t-62.5 80.5q-41 -61 -111.5 -83.5t-199.5 -22.5h-126l-17 150h149q89 0 146 11l-282 427l156 22l156 -266q42 -78 62 -139q19 21 25 50.5t6 77.5v430l121 17v-522q0 -42 6 -64.5t24 -33t54 -10.5z" />
    <glyph glyph-name="uniFEF7" unicode="&#xfedf;&#xfe84;" horiz-adv-x="645" arabic-form="isolated" 
d="M569 293q26 -51 26 -98q0 -99 -60.5 -147t-193.5 -48h-259l11 137q114 87 170 135.5t91 96.5l-297 265l161 24l189 -180q19 69 19 170v115l122 17v-142q0 -140 -52 -246q47 -48 73 -99zM423 152.5q36 3.5 52 14.5t16 35q0 20 -14 42t-42 50q-56 -71 -151 -145h31
q72 0 108 3.5zM265 728l-227 -36l-10 70l62 10q-35 31 -35 65q0 38 28 63.5t80 25.5q43 0 88 -27l-43 -66q-23 15 -43 15q-13 0 -20.5 -7.5t-7.5 -17.5q0 -16 23 -39l93 16z" />
    <glyph glyph-name="uniFEF8" unicode="&#xfee0;&#xfe84;" horiz-adv-x="673" arabic-form="final" 
d="M693 66l-20 -66q-53 0 -94.5 25.5t-62.5 80.5q-41 -61 -111.5 -83.5t-199.5 -22.5h-126l-17 150h149q89 0 146 11l-282 427l156 22l156 -266q42 -78 62 -139q19 21 25 50.5t6 77.5v430l121 17v-522q0 -42 6 -64.5t24 -33t54 -10.5zM250 691l-227 -36l-10 70l62 10
q-35 31 -35 65q0 38 28 63.5t80 25.5q43 0 88 -27l-43 -66q-23 15 -43 15q-13 0 -20.5 -7.5t-7.5 -17.5q0 -16 23 -39l93 16z" />
    <glyph glyph-name="uniFEF9" unicode="&#xfedf;&#xfe88;" horiz-adv-x="645" arabic-form="isolated" 
d="M569 293q26 -51 26 -98q0 -99 -60.5 -147t-193.5 -48h-259l11 137q114 87 170 135.5t91 96.5l-297 265l161 24l189 -180q19 69 19 170v115l122 17v-142q0 -140 -52 -246q47 -48 73 -99zM423 152.5q36 3.5 52 14.5t16 35q0 20 -14 42t-42 50q-56 -71 -151 -145h31
q72 0 108 3.5zM306 -233l-227 -36l-10 70l62 10q-35 31 -35 65q0 38 28 63.5t80 25.5q43 0 88 -27l-43 -66q-23 15 -43 15q-13 0 -20.5 -7.5t-7.5 -17.5q0 -16 23 -39l93 16z" />
    <glyph glyph-name="uniFEFA" unicode="&#xfee0;&#xfe88;" horiz-adv-x="673" arabic-form="final" 
d="M693 66l-20 -66q-53 0 -94.5 25.5t-62.5 80.5q-41 -61 -111.5 -83.5t-199.5 -22.5h-126l-17 150h149q89 0 146 11l-282 427l156 22l156 -266q42 -78 62 -139q19 21 25 50.5t6 77.5v430l121 17v-522q0 -42 6 -64.5t24 -33t54 -10.5zM307 -233l-227 -36l-10 70l62 10
q-35 31 -35 65q0 38 28 63.5t80 25.5q43 0 88 -27l-43 -66q-23 15 -43 15q-13 0 -20.5 -7.5t-7.5 -17.5q0 -16 23 -39l93 16z" />
    <glyph glyph-name="uniFEF5" unicode="&#xfedf;&#xfe82;" horiz-adv-x="645" arabic-form="isolated" 
d="M569 293q26 -51 26 -98q0 -99 -60.5 -147t-193.5 -48h-259l11 137q114 87 170 135.5t91 96.5l-297 265l161 24l189 -180q19 69 19 170v115l122 17v-142q0 -140 -52 -246q47 -48 73 -99zM423 152.5q36 3.5 52 14.5t16 35q0 20 -14 42t-42 50q-56 -71 -151 -145h31
q72 0 108 3.5zM17 721q13 46 41 73.5t62 27.5q16 0 26.5 -3.5t23.5 -10.5q22 -12 37 -12q11 0 18 3t22 12l32 -55q-41 -42 -81 -42q-11 0 -21.5 4t-19.5 9q-20 11 -34 11q-26 0 -43 -36z" />
    <glyph glyph-name="uniFEF6" unicode="&#xfee0;&#xfe82;" horiz-adv-x="673" arabic-form="final" 
d="M693 66l-20 -66q-53 0 -94.5 25.5t-62.5 80.5q-41 -61 -111.5 -83.5t-199.5 -22.5h-126l-17 150h149q89 0 146 11l-282 427l156 22l156 -266q42 -78 62 -139q19 21 25 50.5t6 77.5v430l121 17v-522q0 -42 6 -64.5t24 -33t54 -10.5zM2 684q13 46 41 73.5t62 27.5
q16 0 26.5 -3.5t23.5 -10.5q22 -12 37 -12q11 0 18 3t22 12l32 -55q-41 -42 -81 -42q-11 0 -21.5 4t-19.5 9q-20 11 -34 11q-26 0 -43 -36z" />
    <glyph glyph-name="uni06440671" unicode="&#xfedf;&#xfb51;" horiz-adv-x="645" 
d="M569 293q26 -51 26 -98q0 -99 -60.5 -147t-193.5 -48h-259l11 137q114 87 170 135.5t91 96.5l-297 265l161 24l189 -180q19 69 19 170v115l122 17v-142q0 -140 -52 -246q47 -48 73 -99zM423 152.5q36 3.5 52 14.5t16 35q0 20 -14 42t-42 50q-56 -71 -151 -145h31
q72 0 108 3.5zM265 889.5q25 -20.5 25 -58.5q0 -97 -123 -97q-29 0 -67 11l-17 -32l-61 20l31 88l31 -9q23 52 57 75t68 23q31 0 56 -20.5zM223 824q0 19 -22 19q-16 0 -32.5 -12.5t-29.5 -29.5q21 -3 38 -3q46 0 46 26z" />
    <glyph glyph-name="uni06440671.fina" unicode="&#xfee0;&#xfb51;" horiz-adv-x="673" 
d="M693 66l-20 -66q-53 0 -94.5 25.5t-62.5 80.5q-41 -61 -111.5 -83.5t-199.5 -22.5h-126l-17 150h149q89 0 146 11l-282 427l156 22l156 -266q42 -78 62 -139q19 21 25 50.5t6 77.5v430l121 17v-522q0 -42 6 -64.5t24 -33t54 -10.5zM250 852.5q25 -20.5 25 -58.5
q0 -97 -123 -97q-29 0 -67 11l-17 -32l-61 20l31 88l31 -9q23 52 57 75t68 23q31 0 56 -20.5zM208 787q0 19 -22 19q-16 0 -32.5 -12.5t-29.5 -29.5q21 -3 38 -3q46 0 46 26z" />
    <glyph glyph-name="uniFDF2" unicode="&#x627;&#xfedf;&#xfee0;&#xfeea;" horiz-adv-x="1135" arabic-form="isolated" 
d="M609 755h-78v179l78 10v-189zM456.5 638.5q-22.5 20.5 -22.5 58.5q0 33 19 73l58 -14q-6 -22 -6 -40q0 -24 16 -24q19 0 19 28v29h60v-31q0 -23 17 -23t17 28q0 24 -11 52l61 20q9 -21 15.5 -46.5t6.5 -44.5q0 -38 -21 -61t-58 -23q-39 0 -58 29q-20 -31 -62 -31
q-28 0 -50.5 20.5zM1081 780v-780h-128v763zM735 652l122 17v-452q0 -119 -41 -168t-121 -49q-40 0 -72.5 16.5t-52.5 45.5q-18 -28 -49 -45t-70 -17q-53 0 -88.5 23t-54.5 65q-23 -30 -59 -47t-75 -17q-65 0 -109 40.5t-44 107.5q0 85 72.5 142t189.5 76v73l122 16v-254
q0 -46 10.5 -64.5t40.5 -18.5q31 0 41.5 20t10.5 75v312l121 17v-322q0 -56 11.5 -79t44.5 -23q30 0 40 23t10 78v409zM283 278q-69 -6 -109 -30t-40 -57q0 -47 57 -47t92 41v93z" />
    <glyph glyph-name="uni0E1B0E31" unicode="&#xe1b;&#xe31;" horiz-adv-x="639" 
d="M567 639v-415q0 -68 -29.5 -123t-87 -86.5t-138.5 -31.5q-127 0 -189 59.5t-62 181.5v157q0 63 -7 104t-21 71l148 17q14 -23 26 -69.5t12 -90.5v-184q0 -66 22.5 -98t70.5 -32q97 0 97 130v403q-93 2 -139 32.5t-46 93.5q0 31 9 65h107q-4 -24 -4 -36q0 -31 16.5 -43
t56.5 -14v70l158 -16v-48q66 8 102 15l15 -96q-74 -13 -117 -16z" />
    <glyph glyph-name="uni0E1B0E49" unicode="&#xe1b;&#xe49;" horiz-adv-x="639" 
d="M567 784v-560q0 -68 -29.5 -123t-87 -86.5t-138.5 -31.5q-127 0 -189 59.5t-62 181.5v157q0 63 -7 104t-21 71l148 17q14 -23 26 -69.5t12 -90.5v-184q0 -66 22.5 -98t70.5 -32q97 0 97 130v456q-42 -24 -101 -36t-138 -14l-32 39q17 29 17 52q0 46 -50 46q-17 0 -42 -7
l-12 83q38 12 86 12q60 0 94.5 -24t34.5 -70q0 -25 -9 -43q57 7 92.5 25.5t57.5 52.5l5 -1z" />
    <glyph glyph-name="uni0E1B0E4A" unicode="&#xe1b;&#xe4a;" horiz-adv-x="639" 
d="M567 784v-560q0 -68 -29.5 -123t-87 -86.5t-138.5 -31.5q-127 0 -189 59.5t-62 181.5v157q0 63 -7 104t-21 71l148 17q14 -23 26 -69.5t12 -90.5v-184q0 -66 22.5 -98t70.5 -32q97 0 97 130v449q-46 -42 -137 -42q-25 0 -55 4q5 57 5 84q0 45 -30 45q-35 0 -35 -64v-38
l-99 -8v46q0 64 -35 64q-30 0 -30 -46q0 -42 10 -86h-107q-13 50 -13 103q0 60 32.5 90t85.5 30q49 0 74 -24.5t32 -60.5q8 36 35 60.5t78 24.5q50 0 79 -26t29 -66q0 -23 -7 -46q39 6 61 26t27 52z" />
    <glyph glyph-name="uni0E1B0E4B" unicode="&#xe1b;&#xe4b;" horiz-adv-x="639" 
d="M567 784v-560q0 -68 -29.5 -123t-87 -86.5t-138.5 -31.5q-127 0 -189 59.5t-62 181.5v157q0 63 -7 104t-21 71l148 17q14 -23 26 -69.5t12 -90.5v-184q0 -66 22.5 -98t70.5 -32q97 0 97 130v571zM359 703l-74 1l2 -62h-120l1 62l-80 -1l9 92l71 -1l-1 59l120 10l-2 -69
l74 1v-92z" />
    <glyph glyph-name="uni0E1B0E4C" unicode="&#xe1b;&#xe4c;" horiz-adv-x="639" 
d="M646 666h-79v-442q0 -68 -29.5 -123t-87 -86.5t-138.5 -31.5q-127 0 -189 59.5t-62 181.5v157q0 63 -7 104t-21 71l148 17q14 -23 26 -69.5t12 -90.5v-184q0 -66 22.5 -98t70.5 -32q97 0 97 130v437h-28q-22 0 -31.5 -8.5t-9.5 -29.5q0 -14 2 -34h-111q-5 25 -5 58
q0 55 37.5 82.5t99.5 27.5h46v38l158 -16v-22h79v-96z" />
    <glyph glyph-name="uni0E1B0E4D" unicode="&#xe1b;&#xe4d;" horiz-adv-x="639" 
d="M567 784v-560q0 -68 -29.5 -123t-87 -86.5t-138.5 -31.5q-127 0 -189 59.5t-62 181.5v157q0 63 -7 104t-21 71l148 17q14 -23 26 -69.5t12 -90.5v-184q0 -66 22.5 -98t70.5 -32q97 0 97 130v571zM334 833q34 -34 34 -84q0 -49 -34 -83.5t-91 -34.5q-56 0 -90.5 34.5
t-34.5 83.5q0 50 34.5 84t90.5 34q57 0 91 -34zM218.5 777q-9.5 -10 -9.5 -28t9.5 -28t24.5 -10t24.5 10t9.5 28t-9.5 28t-24.5 10t-24.5 -10z" />
    <glyph glyph-name="uni0E1D0E31" unicode="&#xe1d;&#xe31;" horiz-adv-x="785" 
d="M713 639v-428q0 -118 -46.5 -173t-130.5 -55q-123 0 -150 118q-17 -63 -51.5 -90.5t-100.5 -27.5q-171 0 -171 228v76q0 101 12.5 163.5t49 97t105.5 34.5q26 0 52.5 -5t41.5 -12l-14 -102q-18 6 -35 6q-30 0 -44 -31.5t-14 -115.5v-113q0 -60 12.5 -85t40.5 -25
q25 0 36.5 19t11.5 69v120l136 16v-136q0 -88 49 -88q28 0 40 22.5t12 84.5v426q-92 2 -138 32.5t-46 93.5q0 38 9 65h106q-3 -18 -3 -36q0 -31 16.5 -43t55.5 -14v70l158 -16v-48q69 8 102 15l15 -96q-74 -13 -117 -16z" />
    <glyph glyph-name="uni0E1D0E49" unicode="&#xe1d;&#xe49;" horiz-adv-x="785" 
d="M713 784v-573q0 -118 -46.5 -173t-130.5 -55q-123 0 -150 118q-17 -63 -51.5 -90.5t-100.5 -27.5q-171 0 -171 228v76q0 101 12.5 163.5t49 97t105.5 34.5q26 0 52.5 -5t41.5 -12l-14 -102q-18 6 -35 6q-30 0 -44 -31.5t-14 -115.5v-113q0 -60 12.5 -85t40.5 -25
q25 0 36.5 19t11.5 69v120l136 16v-136q0 -88 49 -88q28 0 40 22.5t12 84.5v479q-42 -24 -100.5 -36t-137.5 -14l-32 39q16 27 16 52q0 46 -49 46q-17 0 -42 -7l-12 83q36 12 86 12q59 0 93.5 -24t34.5 -70q0 -24 -8 -43q57 7 92.5 25.5t56.5 52.5l5 -1z" />
    <glyph glyph-name="uni0E1D0E4A" unicode="&#xe1d;&#xe4a;" horiz-adv-x="785" 
d="M713 784v-573q0 -118 -46.5 -173t-130.5 -55q-123 0 -150 118q-17 -63 -51.5 -90.5t-100.5 -27.5q-171 0 -171 228v76q0 101 12.5 163.5t49 97t105.5 34.5q26 0 52.5 -5t41.5 -12l-14 -102q-18 6 -35 6q-30 0 -44 -31.5t-14 -115.5v-113q0 -60 12.5 -85t40.5 -25
q25 0 36.5 19t11.5 69v120l136 16v-136q0 -88 49 -88q28 0 40 22.5t12 84.5v471q-47 -41 -137 -41q-23 0 -55 4q5 43 5 84q0 45 -30 45q-35 0 -35 -64v-38l-98 -8v46q0 64 -35 64q-15 0 -23 -11.5t-8 -34.5q0 -42 10 -86h-107q-13 58 -13 103q0 60 32.5 90t85.5 30
q50 0 75 -24.5t32 -60.5q7 36 34.5 60.5t77.5 24.5t79 -26t29 -66q0 -23 -7 -46q39 6 61 26t27 52z" />
    <glyph glyph-name="uni0E1D0E4B" unicode="&#xe1d;&#xe4b;" horiz-adv-x="785" 
d="M713 784v-573q0 -118 -46.5 -173t-130.5 -55q-123 0 -150 118q-17 -63 -51.5 -90.5t-100.5 -27.5q-171 0 -171 228v76q0 101 12.5 163.5t49 97t105.5 34.5q26 0 52.5 -5t41.5 -12l-14 -102q-18 6 -35 6q-30 0 -44 -31.5t-14 -115.5v-113q0 -60 12.5 -85t40.5 -25
q25 0 36.5 19t11.5 69v120l136 16v-136q0 -88 49 -88q28 0 40 22.5t12 84.5v594zM505 703l-74 1l2 -62h-120l1 62l-80 -1l9 92l71 -1l-1 59l120 10l-2 -69l74 1v-92z" />
    <glyph glyph-name="uni0E1D0E4C" unicode="&#xe1d;&#xe4c;" horiz-adv-x="785" 
d="M793 666h-80v-455q0 -118 -46.5 -173t-130.5 -55q-123 0 -150 118q-17 -63 -51.5 -90.5t-100.5 -27.5q-171 0 -171 228v76q0 101 12.5 163.5t49 97t105.5 34.5q26 0 52.5 -5t41.5 -12l-14 -102q-18 6 -35 6q-30 0 -44 -31.5t-14 -115.5v-113q0 -60 12.5 -85t40.5 -25
q25 0 36.5 19t11.5 69v120l136 16v-136q0 -88 49 -88q28 0 40 22.5t12 84.5v460h-27q-23 0 -32.5 -8.5t-9.5 -29.5q0 -14 2 -34h-111q0 4 -2.5 22t-2.5 36q0 55 37.5 82.5t99.5 27.5h46v38l158 -16v-22h80v-96z" />
    <glyph glyph-name="uni0E1D0E4D" unicode="&#xe1d;&#xe4d;" horiz-adv-x="785" 
d="M713 784v-573q0 -118 -46.5 -173t-130.5 -55q-123 0 -150 118q-17 -63 -51.5 -90.5t-100.5 -27.5q-171 0 -171 228v76q0 101 12.5 163.5t49 97t105.5 34.5q26 0 52.5 -5t41.5 -12l-14 -102q-18 6 -35 6q-30 0 -44 -31.5t-14 -115.5v-113q0 -60 12.5 -85t40.5 -25
q25 0 36.5 19t11.5 69v120l136 16v-136q0 -88 49 -88q28 0 40 22.5t12 84.5v594zM481 833q34 -34 34 -84q0 -49 -34 -83.5t-91 -34.5q-56 0 -90.5 34.5t-34.5 83.5q0 50 34.5 84t90.5 34q57 0 91 -34zM365.5 777q-9.5 -10 -9.5 -28t9.5 -28t24.5 -10t24.5 10t9.5 28t-9.5 28
t-24.5 10t-24.5 -10z" />
    <glyph glyph-name="uni0E1F0E31" unicode="&#xe1f;&#xe31;" horiz-adv-x="793" 
d="M759 638l-12 -70l-94 -568h-205l-64 435l-73 -435h-198l-56 350q-14 83 -27 129t-30 75l134 23q49 -64 65 -211l29 -259l76 461h164l70 -461l59 461l8 64q-90 2 -134.5 33t-44.5 93q0 31 9 65h107q-4 -24 -4 -36q0 -32 18 -44t62 -13l9 70h159l-11 -63q39 4 96 14l15 -96
q-71 -13 -127 -17z" />
    <glyph glyph-name="uni0E1F0E49" unicode="&#xe1f;&#xe49;" horiz-adv-x="777" 
d="M786 800l-39 -232l-94 -568h-205l-64 435l-73 -435h-198l-56 350q-14 83 -27 129t-30 75l134 23q49 -64 65 -211l29 -259l76 461h164l70 -461l59 461l6 36q5 41 17 82q-77 -48 -225 -51l-31 40q16 25 16 51q0 46 -49 46q-18 0 -42 -7l-13 83q38 12 87 12q59 0 93.5 -24
t34.5 -71q0 -24 -8 -41q50 7 84.5 25.5t58.5 51.5l5 -1h155z" />
    <glyph glyph-name="uni0E1F0E4A" unicode="&#xe1f;&#xe4a;" horiz-adv-x="777" 
d="M786 800l-39 -232l-94 -568h-205l-64 435l-73 -435h-198l-56 350q-14 83 -27 129t-30 75l134 23q49 -64 65 -211l29 -259l76 461h164l70 -461l59 461l6 36q4 31 14 64q-45 -32 -121 -32q-25 0 -55 4q5 57 5 84q0 45 -30 45q-35 0 -35 -64v-38l-99 -8v46q0 64 -35 64
q-30 0 -30 -46q0 -39 9 -86h-106q-13 50 -13 103q0 60 32.5 90t84.5 30q50 0 75 -24.5t32 -60.5q8 36 35 60.5t77 24.5t79 -26t29 -66q0 -20 -6 -46q68 11 83 78h158z" />
    <glyph glyph-name="uni0E1F0E4B" unicode="&#xe1f;&#xe4b;" horiz-adv-x="777" 
d="M786 800l-39 -232l-94 -568h-205l-64 435l-73 -435h-198l-56 350q-14 83 -27 129t-30 75l134 23q49 -64 65 -211l29 -259l76 461h164l70 -461l59 461l30 232h159zM567 703l-74 1l2 -62h-120l1 62l-80 -1l9 92l71 -1l-1 59l120 10l-2 -69l74 1v-92z" />
    <glyph glyph-name="uni0E1F0E4C" unicode="&#xe1f;&#xe4c;" horiz-adv-x="793" 
d="M848 666h-85l-16 -98l-94 -568h-205l-64 435l-73 -435h-198l-56 350q-14 83 -27 129t-30 75l134 23q49 -64 65 -211l29 -259l76 461h164l70 -461l59 461l13 98h-27q-22 0 -31.5 -8.5t-9.5 -29.5q0 -14 2 -34h-112q-4 40 -4 58q0 55 37.5 82.5t98.5 27.5h58l5 38h159
l-6 -38h68v-96z" />
    <glyph glyph-name="uni0E1F0E4D" unicode="&#xe1f;&#xe4d;" horiz-adv-x="777" 
d="M786 800l-39 -232l-94 -568h-205l-64 435l-73 -435h-198l-56 350q-14 83 -27 129t-30 75l134 23q49 -64 65 -211l29 -259l76 461h164l70 -461l59 461l30 232h159zM543 833q34 -34 34 -84q0 -49 -34 -83.5t-91 -34.5q-56 0 -90.5 34.5t-34.5 83.5q0 50 34.5 84t90.5 34
q57 0 91 -34zM427.5 777q-9.5 -10 -9.5 -28t9.5 -28t24.5 -10t24.5 10t9.5 28t-9.5 28t-24.5 10t-24.5 -10z" />
    <glyph glyph-name="uni0E310E4A" unicode="&#xe31;&#xe4a;" 
d="M-565 671q-38 28 -38 87q0 19 4 37t8 28h103q-4 -22 -4 -34q0 -23 15.5 -31.5t55.5 -8.5q44 0 98.5 10t108.5 31l25 -95q-130 -52 -261 -52q-77 0 -115 28zM-30 1059q-31 -89 -89 -128t-153 -39q-21 0 -49 4q4 41 4 76q0 41 -27 41q-32 0 -32 -58v-35l-88 -7v42
q0 29 -8.5 43.5t-22.5 14.5q-28 0 -28 -42q0 -36 9 -77h-96q-12 46 -12 92q0 55 29 82t77 27q44 0 67 -22.5t29 -54.5q7 32 31.5 54.5t69.5 22.5t71 -23.5t26 -60.5q0 -22 -7 -45q77 14 106 111z" />
    <glyph glyph-name="uniFE8E" unicode="&#x627;" horiz-adv-x="263" arabic-form="final" 
d="M56 763l121 17v-538q0 -55 22.5 -73.5t76.5 -18.5l7 -82l-20 -68q-103 0 -155 53.5t-52 183.5v526z" />
    <glyph glyph-name="uniFE84" unicode="&#x623;" horiz-adv-x="263" arabic-form="final" 
d="M56 632l121 16v-406q0 -55 22.5 -73.5t76.5 -18.5l7 -82l-20 -68q-103 0 -155 53.5t-52 183.5v395zM232 714l-227 -36l-10 70l62 10q-35 31 -35 65q0 38 28 63.5t80 25.5q43 0 88 -27l-43 -66q-23 15 -43 15q-13 0 -20.5 -7.5t-7.5 -17.5q0 -16 23 -39l93 16z" />
    <glyph glyph-name="uniFE88" unicode="&#x625;" horiz-adv-x="263" arabic-form="final" 
d="M56 763l121 17v-538q0 -55 22.5 -73.5t76.5 -18.5l7 -82l-20 -68q-103 0 -155 53.5t-52 183.5v526zM243 -233l-227 -36l-10 70l62 10q-35 31 -35 65q0 38 28 63.5t80 25.5q43 0 88 -27l-43 -66q-23 15 -43 15q-13 0 -20.5 -7.5t-7.5 -17.5q0 -16 23 -39l93 16z" />
    <glyph glyph-name="uniFE82" unicode="&#x622;" horiz-adv-x="263" arabic-form="final" 
d="M56 632l121 16v-406q0 -55 22.5 -73.5t76.5 -18.5l7 -82l-20 -68q-103 0 -155 53.5t-52 183.5v395zM-16 707q13 46 41 73.5t62 27.5q16 0 26.5 -3.5t23.5 -10.5q22 -12 37 -12q11 0 18 3t22 12l32 -55q-41 -42 -81 -42q-11 0 -21.5 4t-19.5 9q-20 11 -34 11
q-26 0 -43 -36z" />
    <glyph glyph-name="uniFB51" unicode="&#x671;" horiz-adv-x="263" arabic-form="final" 
d="M56 632l121 16v-406q0 -55 22.5 -73.5t76.5 -18.5l7 -82l-20 -68q-103 0 -155 53.5t-52 183.5v395zM232 875.5q25 -20.5 25 -58.5q0 -97 -123 -97q-29 0 -67 11l-17 -32l-61 20l31 88l31 -9q23 52 57 75t68 23q31 0 56 -20.5zM190 810q0 19 -22 19q-16 0 -32.5 -12.5
t-29.5 -29.5q21 -3 38 -3q46 0 46 26z" />
    <glyph glyph-name="uniFD3D" unicode="&#xfd3d;" horiz-adv-x="236" arabic-form="isolated" 
d="M54 0v632l128 16v-648h-128zM6 864l229 43l-3 -73l-229 -44zM6 757l229 43l-3 -73l-229 -44z" />
    <glyph glyph-name="uniFD3C" unicode="&#xfd3c;" horiz-adv-x="263" arabic-form="final" 
d="M56 632l121 16v-406q0 -55 22.5 -73.5t76.5 -18.5l7 -82l-20 -68q-103 0 -155 53.5t-52 183.5v395zM4 864l229 43l-3 -73l-229 -44zM4 757l229 43l-3 -73l-229 -44z" />
    <glyph glyph-name="uni066E.init" unicode="&#x66e;" horiz-adv-x="318" 
d="M98 155q28 5 38 17t10 36q0 47 -48 172l129 42q20 -62 31 -123.5t11 -108.5q0 -78 -25.5 -118.5t-82 -56t-161.5 -15.5l-20 67l32 83q58 0 86 5z" />
    <glyph glyph-name="uni066E.medi" unicode="&#x66e;" horiz-adv-x="331" 
d="M351 68l-20 -68q-61 0 -100.5 14.5t-64.5 51.5q-26 -37 -64.5 -51.5t-101.5 -14.5l-20 67l33 83q45 0 64 7t24 24t5 56v101h121v-99q0 -38 8 -56t32.5 -25.5t75.5 -7.5z" />
    <glyph glyph-name="uni066E.fina" unicode="&#x66e;" horiz-adv-x="987" 
d="M1007 71l-20 -71q-80 0 -127.5 16t-81.5 65q-72 -44 -155.5 -67.5t-197.5 -29.5l-1 -2h-47h-42l-1 2q-118 5 -181.5 28t-88.5 67t-25 119q0 40 10.5 83t28.5 80l94 -29q-16 -59 -16 -99q0 -37 18 -57.5t67 -31t143 -12.5q109 3 200.5 21t141.5 48v146h122v-72
q0 -50 12 -76.5t44 -37.5t96 -11z" />
    <glyph glyph-name="uniFE90" unicode="&#x628;" horiz-adv-x="987" arabic-form="final" 
d="M1007 71l-20 -71q-80 0 -127.5 16t-81.5 65q-72 -44 -155.5 -67.5t-197.5 -29.5l-1 -2h-47h-42l-1 2q-118 5 -181.5 28t-88.5 67t-25 119q0 40 10.5 83t28.5 80l94 -29q-16 -59 -16 -99q0 -37 18 -57.5t67 -31t143 -12.5q109 3 200.5 21t141.5 48v146h122v-72
q0 -50 12 -76.5t44 -37.5t96 -11zM324 -200q-20 20 -20 49q0 28 20.5 48.5t48.5 20.5q29 0 49 -20.5t20 -48.5q0 -29 -20 -49t-49 -20t-49 20z" />
    <glyph glyph-name="uniFE92" unicode="&#x628;" horiz-adv-x="331" arabic-form="medial" 
d="M351 68l-20 -68q-61 0 -100.5 14.5t-64.5 51.5q-26 -37 -64.5 -51.5t-101.5 -14.5l-20 67l33 83q45 0 64 7t24 24t5 56v101h121v-99q0 -38 8 -56t32.5 -25.5t75.5 -7.5zM117 -200q-20 20 -20 49q0 28 20.5 48.5t48.5 20.5q29 0 49 -20.5t20 -48.5q0 -29 -20 -49t-49 -20
t-49 20z" />
    <glyph glyph-name="uniFE91" unicode="&#x628;" horiz-adv-x="318" arabic-form="initial" 
d="M98 155q28 5 38 17t10 36q0 47 -48 172l129 42q20 -62 31 -123.5t11 -108.5q0 -78 -25.5 -118.5t-82 -56t-161.5 -15.5l-20 67l32 83q58 0 86 5zM100 -200q-20 20 -20 49q0 28 20.5 48.5t48.5 20.5q29 0 49 -20.5t20 -48.5q0 -29 -20 -49t-49 -20t-49 20z" />
    <glyph glyph-name="uniFB57" unicode="&#x67e;" horiz-adv-x="987" arabic-form="final" 
d="M1007 71l-20 -71q-80 0 -127.5 16t-81.5 65q-72 -44 -155.5 -67.5t-197.5 -29.5l-1 -2h-47h-42l-1 2q-118 5 -181.5 28t-88.5 67t-25 119q0 40 10.5 83t28.5 80l94 -29q-16 -59 -16 -99q0 -37 18 -57.5t67 -31t143 -12.5q109 3 200.5 21t141.5 48v146h122v-72
q0 -50 12 -76.5t44 -37.5t96 -11zM326.5 -104.5q17.5 -17.5 17.5 -41.5q0 -26 -17.5 -43.5t-41.5 -17.5q-26 0 -44 17.5t-18 43.5q0 24 18.5 41.5t43.5 17.5q24 0 41.5 -17.5zM504.5 -104.5q18.5 -17.5 18.5 -41.5q0 -26 -18 -43.5t-44 -17.5q-24 0 -41.5 17.5t-17.5 43.5
q0 24 17.5 41.5t41.5 17.5q25 0 43.5 -17.5zM414.5 -239q17.5 -18 17.5 -43t-17.5 -42t-41.5 -17t-41.5 17t-17.5 42t17.5 43t41.5 18t41.5 -18z" />
    <glyph glyph-name="uniFB59" unicode="&#x67e;" horiz-adv-x="331" arabic-form="medial" 
d="M351 68l-20 -68q-61 0 -100.5 14.5t-64.5 51.5q-26 -37 -64.5 -51.5t-101.5 -14.5l-20 67l33 83q45 0 64 7t24 24t5 56v101h121v-99q0 -38 8 -56t32.5 -25.5t75.5 -7.5zM119.5 -104.5q17.5 -17.5 17.5 -41.5q0 -26 -17.5 -43.5t-41.5 -17.5q-26 0 -44 17.5t-18 43.5
q0 24 18.5 41.5t43.5 17.5q24 0 41.5 -17.5zM297.5 -104.5q18.5 -17.5 18.5 -41.5q0 -26 -18 -43.5t-44 -17.5q-24 0 -41.5 17.5t-17.5 43.5q0 24 17.5 41.5t41.5 17.5q25 0 43.5 -17.5zM207.5 -239q17.5 -18 17.5 -43t-17.5 -42t-41.5 -17t-41.5 17t-17.5 42t17.5 43
t41.5 18t41.5 -18z" />
    <glyph glyph-name="uniFB58" unicode="&#x67e;" horiz-adv-x="318" arabic-form="initial" 
d="M98 155q28 5 38 17t10 36q0 47 -48 172l129 42q20 -62 31 -123.5t11 -108.5q0 -78 -25.5 -118.5t-82 -56t-161.5 -15.5l-20 67l32 83q58 0 86 5zM102.5 -104.5q17.5 -17.5 17.5 -41.5q0 -26 -17.5 -43.5t-41.5 -17.5q-26 0 -44 17.5t-18 43.5q0 24 18.5 41.5t43.5 17.5
q24 0 41.5 -17.5zM280.5 -104.5q18.5 -17.5 18.5 -41.5q0 -26 -18 -43.5t-44 -17.5q-24 0 -41.5 17.5t-17.5 43.5q0 24 17.5 41.5t41.5 17.5q25 0 43.5 -17.5zM190.5 -239q17.5 -18 17.5 -43t-17.5 -42t-41.5 -17t-41.5 17t-17.5 42t17.5 43t41.5 18t41.5 -18z" />
    <glyph glyph-name="uniFB53" unicode="&#x67b;" horiz-adv-x="987" arabic-form="final" 
d="M1007 71l-20 -71q-80 0 -127.5 16t-81.5 65q-72 -44 -155.5 -67.5t-197.5 -29.5l-1 -2h-47h-42l-1 2q-118 5 -181.5 28t-88.5 67t-25 119q0 40 10.5 83t28.5 80l94 -29q-16 -59 -16 -99q0 -37 18 -57.5t67 -31t143 -12.5q109 3 200.5 21t141.5 48v146h122v-72
q0 -50 12 -76.5t44 -37.5t96 -11zM327.5 -177.5q-18.5 18.5 -18.5 44.5t18.5 44.5t44.5 18.5t44.5 -18.5t18.5 -44.5t-18.5 -44.5t-44.5 -18.5t-44.5 18.5zM328 -336q-18 18 -18 44t18 44.5t44 18.5t45 -18.5t19 -44.5q0 -25 -19 -43.5t-45 -18.5t-44 18z" />
    <glyph glyph-name="uniFB55" unicode="&#x67b;" horiz-adv-x="331" arabic-form="medial" 
d="M351 68l-20 -68q-61 0 -100.5 14.5t-64.5 51.5q-26 -37 -64.5 -51.5t-101.5 -14.5l-20 67l33 83q45 0 64 7t24 24t5 56v101h121v-99q0 -38 8 -56t32.5 -25.5t75.5 -7.5zM120.5 -177.5q-18.5 18.5 -18.5 44.5t18.5 44.5t44.5 18.5t44.5 -18.5t18.5 -44.5t-18.5 -44.5
t-44.5 -18.5t-44.5 18.5zM121 -336q-18 18 -18 44t18 44.5t44 18.5t45 -18.5t19 -44.5q0 -25 -19 -43.5t-45 -18.5t-44 18z" />
    <glyph glyph-name="uniFB54" unicode="&#x67b;" horiz-adv-x="318" arabic-form="initial" 
d="M98 155q28 5 38 17t10 36q0 47 -48 172l129 42q20 -62 31 -123.5t11 -108.5q0 -78 -25.5 -118.5t-82 -56t-161.5 -15.5l-20 67l32 83q58 0 86 5zM104.5 -177.5q-18.5 18.5 -18.5 44.5t18.5 44.5t44.5 18.5t44.5 -18.5t18.5 -44.5t-18.5 -44.5t-44.5 -18.5t-44.5 18.5z
M105 -336q-18 18 -18 44t18 44.5t44 18.5t45 -18.5t19 -44.5q0 -25 -19 -43.5t-45 -18.5t-44 18z" />
    <glyph glyph-name="uniFB5B" unicode="&#x680;" horiz-adv-x="987" arabic-form="final" 
d="M1007 71l-20 -71q-80 0 -127.5 16t-81.5 65q-72 -44 -155.5 -67.5t-197.5 -29.5l-1 -2h-47h-42l-1 2q-118 5 -181.5 28t-88.5 67t-25 119q0 40 10.5 83t28.5 80l94 -29q-16 -59 -16 -99q0 -37 18 -57.5t67 -31t143 -12.5q109 3 200.5 21t141.5 48v146h122v-72
q0 -50 12 -76.5t44 -37.5t96 -11zM259 -172q-17 16 -17 39q0 24 17 40.5t41 16.5t40 -16.5t16 -40.5q0 -23 -16.5 -39t-39.5 -16q-24 0 -41 16zM405.5 -172q-16.5 16 -16.5 39q0 24 16.5 40.5t39.5 16.5q24 0 41 -16.5t17 -40.5q0 -23 -17 -39t-41 -16q-23 0 -39.5 16z
M259 -312.5q-17 16.5 -17 40.5q0 23 17 40t41 17q23 0 39.5 -17t16.5 -40q0 -24 -16.5 -40.5t-39.5 -16.5q-24 0 -41 16.5zM405.5 -312.5q-16.5 16.5 -16.5 40.5q0 23 16.5 40t39.5 17q24 0 41 -17t17 -40q0 -24 -17 -40.5t-41 -16.5q-23 0 -39.5 16.5z" />
    <glyph glyph-name="uniFB5D" unicode="&#x680;" horiz-adv-x="331" arabic-form="medial" 
d="M351 68l-20 -68q-61 0 -100.5 14.5t-64.5 51.5q-26 -37 -64.5 -51.5t-101.5 -14.5l-20 67l33 83q45 0 64 7t24 24t5 56v101h121v-99q0 -38 8 -56t32.5 -25.5t75.5 -7.5zM52 -172q-17 16 -17 39q0 24 17 40.5t41 16.5t40 -16.5t16 -40.5q0 -23 -16.5 -39t-39.5 -16
q-24 0 -41 16zM198.5 -172q-16.5 16 -16.5 39q0 24 16.5 40.5t39.5 16.5q24 0 41 -16.5t17 -40.5q0 -23 -17 -39t-41 -16q-23 0 -39.5 16zM52 -312.5q-17 16.5 -17 40.5q0 23 17 40t41 17q23 0 39.5 -17t16.5 -40q0 -24 -16.5 -40.5t-39.5 -16.5q-24 0 -41 16.5z
M198.5 -312.5q-16.5 16.5 -16.5 40.5q0 23 16.5 40t39.5 17q24 0 41 -17t17 -40q0 -24 -17 -40.5t-41 -16.5q-23 0 -39.5 16.5z" />
    <glyph glyph-name="uniFB5C" unicode="&#x680;" horiz-adv-x="318" arabic-form="initial" 
d="M98 155q28 5 38 17t10 36q0 47 -48 172l129 42q20 -62 31 -123.5t11 -108.5q0 -78 -25.5 -118.5t-82 -56t-161.5 -15.5l-20 67l32 83q58 0 86 5zM35 -172q-17 16 -17 39q0 24 17 40.5t41 16.5t40 -16.5t16 -40.5q0 -23 -16.5 -39t-39.5 -16q-24 0 -41 16zM181.5 -172
q-16.5 16 -16.5 39q0 24 16.5 40.5t39.5 16.5q24 0 41 -16.5t17 -40.5q0 -23 -17 -39t-41 -16q-23 0 -39.5 16zM35 -312.5q-17 16.5 -17 40.5q0 23 17 40t41 17q23 0 39.5 -17t16.5 -40q0 -24 -16.5 -40.5t-39.5 -16.5q-24 0 -41 16.5zM181.5 -312.5q-16.5 16.5 -16.5 40.5
q0 23 16.5 40t39.5 17q24 0 41 -17t17 -40q0 -24 -17 -40.5t-41 -16.5q-23 0 -39.5 16.5z" />
    <glyph glyph-name="uniFBE9" unicode="&#x649;" horiz-adv-x="331" arabic-form="medial" 
d="M351 68l-20 -68q-61 0 -100.5 14.5t-64.5 51.5q-26 -37 -64.5 -51.5t-101.5 -14.5l-20 67l33 83q45 0 64 7t24 24t5 56v101h121v-99q0 -38 8 -56t32.5 -25.5t75.5 -7.5z" />
    <glyph glyph-name="uniFBE8" unicode="&#x649;" horiz-adv-x="318" arabic-form="initial" 
d="M98 155q28 5 38 17t10 36q0 47 -48 172l129 42q20 -62 31 -123.5t11 -108.5q0 -78 -25.5 -118.5t-82 -56t-161.5 -15.5l-20 67l32 83q58 0 86 5z" />
    <glyph glyph-name="uniFE96" unicode="&#x62a;" horiz-adv-x="987" arabic-form="final" 
d="M1007 71l-20 -71q-80 0 -127.5 16t-81.5 65q-72 -44 -155.5 -67.5t-197.5 -29.5l-1 -2h-47h-42l-1 2q-118 5 -181.5 28t-88.5 67t-25 119q0 40 10.5 83t28.5 80l94 -29q-16 -59 -16 -99q0 -37 18 -57.5t67 -31t143 -12.5q109 3 200.5 21t141.5 48v146h122v-72
q0 -50 12 -76.5t44 -37.5t96 -11zM345.5 406.5q-18.5 18.5 -18.5 45.5q0 26 18.5 44t44.5 18t44.5 -18t18.5 -44q0 -27 -18.5 -45.5t-44.5 -18.5t-44.5 18.5zM511 406.5q-19 18.5 -19 45.5q0 26 19 44t45 18t44 -18t18 -44q0 -27 -18 -45.5t-44 -18.5t-45 18.5z" />
    <glyph glyph-name="uniFE98" unicode="&#x62a;" horiz-adv-x="331" arabic-form="medial" 
d="M351 68l-20 -68q-61 0 -100.5 14.5t-64.5 51.5q-26 -37 -64.5 -51.5t-101.5 -14.5l-20 67l33 83q45 0 64 7t24 24t5 56v101h121v-99q0 -38 8 -56t32.5 -25.5t75.5 -7.5zM39.5 438.5q-18.5 18.5 -18.5 45.5q0 26 18.5 44t44.5 18t44.5 -18t18.5 -44q0 -27 -18.5 -45.5
t-44.5 -18.5t-44.5 18.5zM205 438.5q-19 18.5 -19 45.5q0 26 19 44t45 18t44 -18t18 -44q0 -27 -18 -45.5t-44 -18.5t-45 18.5z" />
    <glyph glyph-name="uniFE97" unicode="&#x62a;" horiz-adv-x="318" arabic-form="initial" 
d="M98 155q28 5 38 17t10 36q0 47 -48 172l129 42q20 -62 31 -123.5t11 -108.5q0 -78 -25.5 -118.5t-82 -56t-161.5 -15.5l-20 67l32 83q58 0 86 5zM-1.5 510.5q-18.5 18.5 -18.5 45.5q0 26 18.5 44t44.5 18t44.5 -18t18.5 -44q0 -27 -18.5 -45.5t-44.5 -18.5t-44.5 18.5z
M164 510.5q-19 18.5 -19 45.5q0 26 19 44t45 18t44 -18t18 -44q0 -27 -18 -45.5t-44 -18.5t-45 18.5z" />
    <glyph glyph-name="uni067C.init" unicode="&#x67c;" horiz-adv-x="316" 
d="M-1 511.5q-18 18.5 -18 44.5t18 44.5t44 18.5t45 -18.5t19 -44.5t-19 -44.5t-45 -18.5t-44 18.5zM164.5 511.5q-18.5 18.5 -18.5 44.5t18.5 44.5t44.5 18.5t44.5 -18.5t18.5 -44.5t-18.5 -44.5t-44.5 -18.5t-44.5 18.5zM255.5 95.5q-13.5 -36.5 -43.5 -57.5
q23 -26 23 -62q0 -41 -27.5 -67.5t-68.5 -26.5q-40 0 -68 26.5t-28 67.5q0 13 3 25q-14 -1 -46 -1l-20 67l32 83q58 0 86 5t38 17t10 36q0 47 -48 172l129 42q20 -62 31 -123.5t11 -108.5q0 -58 -13.5 -94.5zM165.5 -48q9.5 10 9.5 24t-10 23.5t-26 9.5t-25.5 -9.5
t-9.5 -23.5t9.5 -24t25.5 -10q17 0 26.5 10z" />
    <glyph glyph-name="uni067C.medi" unicode="&#x67c;" horiz-adv-x="331" 
d="M39.5 438.5q-18.5 18.5 -18.5 44.5q0 27 18.5 45t44.5 18t44.5 -18t18.5 -45q0 -26 -18.5 -44.5t-44.5 -18.5t-44.5 18.5zM204.5 438.5q-18.5 18.5 -18.5 44.5q0 27 18.5 45t44.5 18t44.5 -18t18.5 -45q0 -26 -18.5 -44.5t-44.5 -18.5t-44.5 18.5zM230.5 14.5
q-39.5 14.5 -64.5 51.5l-5 -6q21 -12 33.5 -33.5t12.5 -47.5q0 -41 -28 -67.5t-68 -26.5q-41 0 -69 26.5t-28 67.5q0 7 2 21h-16l-20 67l33 83q45 0 64 7t24 24t5 56v101h121v-99q0 -38 8 -56t32.5 -25.5t75.5 -7.5l8 -82l-20 -68q-61 0 -100.5 14.5zM137 -44.5
q9 9.5 9 23.5q0 15 -9.5 24t-25.5 9t-26 -9.5t-10 -23.5t9.5 -23.5t26.5 -9.5t26 9.5z" />
    <glyph glyph-name="uni067C.fina" unicode="&#x67c;" horiz-adv-x="987" 
d="M345.5 407.5q-18.5 18.5 -18.5 44.5t18.5 44.5t44.5 18.5t44.5 -18.5t18.5 -44.5t-18.5 -44.5t-44.5 -18.5t-44.5 18.5zM510.5 407.5q-18.5 18.5 -18.5 44.5t18.5 44.5t44.5 18.5t44.5 -18.5t18.5 -44.5t-18.5 -44.5t-44.5 -18.5t-44.5 18.5zM1007 71l-20 -71
q-80 0 -127.5 16t-81.5 65q-67 -41 -143.5 -64t-178.5 -31q8 -18 8 -38q0 -41 -28 -67.5t-68 -26.5q-41 0 -69 26.5t-28 67.5q0 21 8 40q-95 8 -147 32t-72.5 66.5t-20.5 111.5q0 40 10.5 83t28.5 80l94 -29q-16 -59 -16 -99q0 -37 18 -57.5t67 -31t143 -12.5
q109 3 200.5 21t141.5 48v146h122v-72q0 -50 12 -76.5t44 -37.5t96 -11zM393.5 -76q9.5 10 9.5 24t-9.5 23.5t-25.5 9.5t-26 -9.5t-10 -23.5t9.5 -24t26.5 -10q16 0 25.5 10z" />
    <glyph glyph-name="uni067D.init" unicode="&#x67d;" horiz-adv-x="318" 
d="M98 155q28 5 38 17t10 36q0 47 -48 172l129 42q20 -62 31 -123.5t11 -108.5q0 -78 -25.5 -118.5t-82 -56t-161.5 -15.5l-20 67l32 83q58 0 86 5zM79.5 716.5q17.5 -17.5 17.5 -41.5q0 -25 -17.5 -43t-41.5 -18q-26 0 -44 18t-18 43q0 24 18.5 41.5t43.5 17.5
q24 0 41.5 -17.5zM257.5 716.5q18.5 -17.5 18.5 -41.5q0 -25 -18 -43t-44 -18q-24 0 -41.5 18t-17.5 43q0 24 17.5 41.5t41.5 17.5q25 0 43.5 -17.5zM167.5 582.5q17.5 -17.5 17.5 -42.5t-17.5 -42.5t-41.5 -17.5t-41.5 17.5t-17.5 42.5t17.5 42.5t41.5 17.5t41.5 -17.5z
" />
    <glyph glyph-name="uni067D.medi" unicode="&#x67d;" horiz-adv-x="331" 
d="M351 68l-20 -68q-61 0 -100.5 14.5t-64.5 51.5q-26 -37 -64.5 -51.5t-101.5 -14.5l-20 67l33 83q45 0 64 7t24 24t5 56v101h121v-99q0 -38 8 -56t32.5 -25.5t75.5 -7.5zM120.5 644.5q17.5 -17.5 17.5 -41.5q0 -25 -17.5 -43t-41.5 -18q-26 0 -44 18t-18 43
q0 24 18.5 41.5t43.5 17.5q24 0 41.5 -17.5zM298.5 644.5q18.5 -17.5 18.5 -41.5q0 -25 -18 -43t-44 -18q-24 0 -41.5 18t-17.5 43q0 24 17.5 41.5t41.5 17.5q25 0 43.5 -17.5zM208.5 510.5q17.5 -17.5 17.5 -42.5t-17.5 -42.5t-41.5 -17.5t-41.5 17.5t-17.5 42.5t17.5 42.5
t41.5 17.5t41.5 -17.5z" />
    <glyph glyph-name="uni067D.fina" unicode="&#x67d;" horiz-adv-x="987" 
d="M1007 71l-20 -71q-80 0 -127.5 16t-81.5 65q-72 -44 -155.5 -67.5t-197.5 -29.5l-1 -2h-47h-42l-1 2q-118 5 -181.5 28t-88.5 67t-25 119q0 40 10.5 83t28.5 80l94 -29q-16 -59 -16 -99q0 -37 18 -57.5t67 -31t143 -12.5q109 3 200.5 21t141.5 48v146h122v-72
q0 -50 12 -76.5t44 -37.5t96 -11zM426.5 612.5q17.5 -17.5 17.5 -41.5q0 -25 -17.5 -43t-41.5 -18q-26 0 -44 18t-18 43q0 24 18.5 41.5t43.5 17.5q24 0 41.5 -17.5zM604.5 612.5q18.5 -17.5 18.5 -41.5q0 -25 -18 -43t-44 -18q-24 0 -41.5 18t-17.5 43q0 24 17.5 41.5
t41.5 17.5q25 0 43.5 -17.5zM514.5 478.5q17.5 -17.5 17.5 -42.5t-17.5 -42.5t-41.5 -17.5t-41.5 17.5t-17.5 42.5t17.5 42.5t41.5 17.5t41.5 -17.5z" />
    <glyph glyph-name="uniFE9A" unicode="&#x62b;" horiz-adv-x="987" arabic-form="final" 
d="M1007 71l-20 -71q-80 0 -127.5 16t-81.5 65q-72 -44 -155.5 -67.5t-197.5 -29.5l-1 -2h-47h-42l-1 2q-118 5 -181.5 28t-88.5 67t-25 119q0 40 10.5 83t28.5 80l94 -29q-16 -59 -16 -99q0 -37 18 -57.5t67 -31t143 -12.5q109 3 200.5 21t141.5 48v146h122v-72
q0 -50 12 -76.5t44 -37.5t96 -11zM431.5 534q-17.5 18 -17.5 43t17.5 42t41.5 17t41.5 -17t17.5 -42t-17.5 -43t-41.5 -18t-41.5 18zM341 400q-18 17 -18 42t18 43t44 18q24 0 41.5 -18t17.5 -43t-17.5 -42t-41.5 -17q-26 0 -44 17zM519.5 400q-17.5 17 -17.5 42t17.5 43
t41.5 18q26 0 44 -18t18 -43t-18 -42t-44 -17q-24 0 -41.5 17z" />
    <glyph glyph-name="uniFE9C" unicode="&#x62b;" horiz-adv-x="331" arabic-form="medial" 
d="M351 68l-20 -68q-61 0 -100.5 14.5t-64.5 51.5q-26 -37 -64.5 -51.5t-101.5 -14.5l-20 67l33 83q45 0 64 7t24 24t5 56v101h121v-99q0 -38 8 -56t32.5 -25.5t75.5 -7.5zM125.5 566q-17.5 18 -17.5 43t17.5 42t41.5 17t41.5 -17t17.5 -42t-17.5 -43t-41.5 -18t-41.5 18z
M35 432q-18 17 -18 42t18 43t44 18q24 0 41.5 -18t17.5 -43t-17.5 -42t-41.5 -17q-26 0 -44 17zM213.5 432q-17.5 17 -17.5 42t17.5 43t41.5 18q26 0 44 -18t18 -43t-18 -42t-44 -17q-24 0 -41.5 17z" />
    <glyph glyph-name="uniFE9B" unicode="&#x62b;" horiz-adv-x="318" arabic-form="initial" 
d="M98 155q28 5 38 17t10 36q0 47 -48 172l129 42q20 -62 31 -123.5t11 -108.5q0 -78 -25.5 -118.5t-82 -56t-161.5 -15.5l-20 67l32 83q58 0 86 5zM84.5 638q-17.5 18 -17.5 43t17.5 42t41.5 17t41.5 -17t17.5 -42t-17.5 -43t-41.5 -18t-41.5 18zM-6 504q-18 17 -18 42
t18 43t44 18q24 0 41.5 -18t17.5 -43t-17.5 -42t-41.5 -17q-26 0 -44 17zM172.5 504q-17.5 17 -17.5 42t17.5 43t41.5 18q26 0 44 -18t18 -43t-18 -42t-44 -17q-24 0 -41.5 17z" />
    <glyph glyph-name="uniFB67" unicode="&#x679;" horiz-adv-x="987" arabic-form="final" 
d="M1007 71l-20 -71q-80 0 -127.5 16t-81.5 65q-72 -44 -155.5 -67.5t-197.5 -29.5l-1 -2h-47h-42l-1 2q-118 5 -181.5 28t-88.5 67t-25 119q0 40 10.5 83t28.5 80l94 -29q-16 -59 -16 -99q0 -37 18 -57.5t67 -31t143 -12.5q109 3 200.5 21t141.5 48v146h122v-72
q0 -50 12 -76.5t44 -37.5t96 -11zM579.5 537q20.5 -26 20.5 -66q0 -32 -24.5 -60.5t-78.5 -28.5h-155l8 67h32v149h65v-68q19 18 36 25.5t37 7.5q39 0 59.5 -26zM527 454.5q11 5.5 11 18.5q0 23 -26 23q-36 0 -79 -47h55q28 0 39 5.5z" />
    <glyph glyph-name="uniFB69" unicode="&#x679;" horiz-adv-x="331" arabic-form="medial" 
d="M351 68l-20 -68q-61 0 -100.5 14.5t-64.5 51.5q-26 -37 -64.5 -51.5t-101.5 -14.5l-20 67l33 83q45 0 64 7t24 24t5 56v101h121v-99q0 -38 8 -56t32.5 -25.5t75.5 -7.5zM273.5 569q20.5 -26 20.5 -66q0 -32 -24.5 -60.5t-78.5 -28.5h-155l8 67h32v149h65v-68
q19 18 36 25.5t37 7.5q39 0 59.5 -26zM221 486.5q11 5.5 11 18.5q0 23 -26 23q-36 0 -79 -47h55q28 0 39 5.5z" />
    <glyph glyph-name="uniFB68" unicode="&#x679;" horiz-adv-x="318" arabic-form="initial" 
d="M98 155q28 5 38 17t10 36q0 47 -48 172l129 42q20 -62 31 -123.5t11 -108.5q0 -78 -25.5 -118.5t-82 -56t-161.5 -15.5l-20 67l32 83q58 0 86 5zM232.5 641q20.5 -26 20.5 -66q0 -32 -24.5 -60.5t-78.5 -28.5h-155l8 67h32v149h65v-68q19 18 36 25.5t37 7.5
q39 0 59.5 -26zM180 558.5q11 5.5 11 18.5q0 23 -26 23q-36 0 -79 -47h55q28 0 39 5.5z" />
    <glyph glyph-name="uniFB5F" unicode="&#x67a;" horiz-adv-x="987" arabic-form="final" 
d="M1007 71l-20 -71q-80 0 -127.5 16t-81.5 65q-72 -44 -155.5 -67.5t-197.5 -29.5l-1 -2h-47h-42l-1 2q-118 5 -181.5 28t-88.5 67t-25 119q0 40 10.5 83t28.5 80l94 -29q-16 -59 -16 -99q0 -37 18 -57.5t67 -31t143 -12.5q109 3 200.5 21t141.5 48v146h122v-72
q0 -50 12 -76.5t44 -37.5t96 -11zM427.5 546.5q-18.5 18.5 -18.5 44.5t18.5 44.5t44.5 18.5t44.5 -18.5t18.5 -44.5t-18.5 -44.5t-44.5 -18.5t-44.5 18.5zM428 387.5q-18 18.5 -18 44.5t18 44.5t44 18.5t45 -18.5t19 -44.5t-19 -44.5t-45 -18.5t-44 18.5z" />
    <glyph glyph-name="uniFB61" unicode="&#x67a;" horiz-adv-x="331" arabic-form="medial" 
d="M351 68l-20 -68q-61 0 -100.5 14.5t-64.5 51.5q-26 -37 -64.5 -51.5t-101.5 -14.5l-20 67l33 83q45 0 64 7t24 24t5 56v101h121v-99q0 -38 8 -56t32.5 -25.5t75.5 -7.5zM122.5 578.5q-18.5 18.5 -18.5 44.5t18.5 44.5t44.5 18.5t44.5 -18.5t18.5 -44.5t-18.5 -44.5
t-44.5 -18.5t-44.5 18.5zM123 419.5q-18 18.5 -18 44.5t18 44.5t44 18.5t45 -18.5t19 -44.5t-19 -44.5t-45 -18.5t-44 18.5z" />
    <glyph glyph-name="uniFB60" unicode="&#x67a;" horiz-adv-x="318" arabic-form="initial" 
d="M98 155q28 5 38 17t10 36q0 47 -48 172l129 42q20 -62 31 -123.5t11 -108.5q0 -78 -25.5 -118.5t-82 -56t-161.5 -15.5l-20 67l32 83q58 0 86 5zM81.5 650.5q-18.5 18.5 -18.5 44.5t18.5 44.5t44.5 18.5t44.5 -18.5t18.5 -44.5t-18.5 -44.5t-44.5 -18.5t-44.5 18.5z
M82 491.5q-18 18.5 -18 44.5t18 44.5t44 18.5t45 -18.5t19 -44.5t-19 -44.5t-45 -18.5t-44 18.5z" />
    <glyph glyph-name="uniFB63" unicode="&#x67f;" horiz-adv-x="987" arabic-form="final" 
d="M1007 71l-20 -71q-80 0 -127.5 16t-81.5 65q-72 -44 -155.5 -67.5t-197.5 -29.5l-1 -2h-47h-42l-1 2q-118 5 -181.5 28t-88.5 67t-25 119q0 40 10.5 83t28.5 80l94 -29q-16 -59 -16 -99q0 -37 18 -57.5t67 -31t143 -12.5q109 3 200.5 21t141.5 48v146h122v-72
q0 -50 12 -76.5t44 -37.5t96 -11zM360 525.5q-17 16.5 -17 39.5q0 24 17 40.5t41 16.5t40 -16t16 -41q0 -23 -16.5 -39.5t-39.5 -16.5q-24 0 -41 16.5zM506.5 525.5q-16.5 16.5 -16.5 39.5q0 25 16.5 41t39.5 16q24 0 41 -16.5t17 -40.5q0 -23 -17 -39.5t-41 -16.5
q-23 0 -39.5 16.5zM360 385.5q-17 16.5 -17 39.5q0 24 17 41t41 17q23 0 39.5 -17t16.5 -41q0 -23 -16.5 -39.5t-39.5 -16.5q-24 0 -41 16.5zM506.5 385.5q-16.5 16.5 -16.5 39.5q0 24 16.5 41t39.5 17q24 0 41 -17t17 -41q0 -23 -17 -39.5t-41 -16.5q-23 0 -39.5 16.5z" />
    <glyph glyph-name="uniFB65" unicode="&#x67f;" horiz-adv-x="331" arabic-form="medial" 
d="M351 68l-20 -68q-61 0 -100.5 14.5t-64.5 51.5q-26 -37 -64.5 -51.5t-101.5 -14.5l-20 67l33 83q45 0 64 7t24 24t5 56v101h121v-99q0 -38 8 -56t32.5 -25.5t75.5 -7.5zM54 557.5q-17 16.5 -17 39.5q0 24 17 40.5t41 16.5t40 -16t16 -41q0 -23 -16.5 -39.5t-39.5 -16.5
q-24 0 -41 16.5zM200.5 557.5q-16.5 16.5 -16.5 39.5q0 25 16.5 41t39.5 16q24 0 41 -16.5t17 -40.5q0 -23 -17 -39.5t-41 -16.5q-23 0 -39.5 16.5zM54 417.5q-17 16.5 -17 39.5q0 24 17 41t41 17q23 0 39.5 -17t16.5 -41q0 -23 -16.5 -39.5t-39.5 -16.5q-24 0 -41 16.5z
M200.5 417.5q-16.5 16.5 -16.5 39.5q0 24 16.5 41t39.5 17q24 0 41 -17t17 -41q0 -23 -17 -39.5t-41 -16.5q-23 0 -39.5 16.5z" />
    <glyph glyph-name="uniFB64" unicode="&#x67f;" horiz-adv-x="318" arabic-form="initial" 
d="M98 155q28 5 38 17t10 36q0 47 -48 172l129 42q20 -62 31 -123.5t11 -108.5q0 -78 -25.5 -118.5t-82 -56t-161.5 -15.5l-20 67l32 83q58 0 86 5zM13 629.5q-17 16.5 -17 39.5q0 24 17 40.5t41 16.5t40 -16t16 -41q0 -23 -16.5 -39.5t-39.5 -16.5q-24 0 -41 16.5z
M159.5 629.5q-16.5 16.5 -16.5 39.5q0 25 16.5 41t39.5 16q24 0 41 -16.5t17 -40.5q0 -23 -17 -39.5t-41 -16.5q-23 0 -39.5 16.5zM13 489.5q-17 16.5 -17 39.5q0 24 17 41t41 17q23 0 39.5 -17t16.5 -41q0 -23 -16.5 -39.5t-39.5 -16.5q-24 0 -41 16.5zM159.5 489.5
q-16.5 16.5 -16.5 39.5q0 24 16.5 41t39.5 17q24 0 41 -17t17 -41q0 -23 -17 -39.5t-41 -16.5q-23 0 -39.5 16.5z" />
    <glyph glyph-name="uniFE9E" unicode="&#x62c;" horiz-adv-x="692" arabic-form="final" 
d="M278 147q-66 -40 -94.5 -91.5t-28.5 -98.5q0 -90 65 -133t181 -43q58 0 114.5 12.5t100.5 34.5l53 -130q-48 -31 -119.5 -49.5t-161.5 -18.5q-109 0 -187 39.5t-118 109t-40 158.5q0 141 93.5 238t274.5 131q-8 3 -40 16q-38 15 -65.5 22t-71.5 7q-40 0 -75 -11t-59 -26
l-63 121q42 27 94 42t104 15q66 0 116 -22t114 -65q49 -34 87.5 -53t82.5 -24l-15 -123l-54 -2q7 -24 21 -35t40.5 -14.5t77.5 -3.5l7 -85l-20 -65q-99 0 -166 50t-76 147q-106 -10 -172 -50zM331 -88q-20 20 -20 49q0 28 20.5 48.5t48.5 20.5q29 0 49 -20.5t20 -48.5
q0 -29 -20 -49t-49 -20t-49 20z" />
    <glyph glyph-name="uniFEA0" unicode="&#x62c;" horiz-adv-x="739" arabic-form="medial" 
d="M759 65l-20 -65q-126 0 -190.5 45.5t-79.5 139.5q-41 -13 -80 -32t-97 -51q-92 -51 -156 -76.5t-136 -25.5l-20 67l32 83q55 0 102.5 10.5t84.5 25t94 40.5q58 27 97.5 42.5t86.5 26.5q-43 13 -75 25q-48 17 -79 24t-77 7q-64 0 -129 -37l-66 122q42 26 93 41t92 15
q59 0 102 -10t73 -25.5t71 -42.5q49 -33 91.5 -53.5t104.5 -33.5l-17 -121l-76 -2q4 -26 17.5 -37t45 -14t104.5 -3zM353 -150q-20 20 -20 49q0 28 20.5 48.5t48.5 20.5q29 0 49 -20.5t20 -48.5q0 -29 -20 -49t-49 -20t-49 20z" />
    <glyph glyph-name="uniFE9F" unicode="&#x62c;" horiz-adv-x="712" arabic-form="initial" 
d="M344.5 478.5q44.5 -13.5 74 -33.5t69.5 -55q48 -43 88 -69t102 -41l-17 -120l-101 -7q-68 -4 -125.5 -22.5t-144.5 -54.5q-91 -38 -153.5 -57t-136.5 -19l-20 67l32 83q67 0 126.5 15t150.5 46q57 20 95.5 32t79.5 19q-25 13 -61 37q-28 19 -47 29t-47 16.5t-69 6.5
q-66 0 -129 -37l-65 122q42 26 94 41t98 15q62 0 106.5 -13.5zM256 -200q-20 20 -20 49q0 28 20.5 48.5t48.5 20.5q29 0 49 -20.5t20 -48.5q0 -29 -20 -49t-49 -20t-49 20z" />
    <glyph glyph-name="uniFB7B" unicode="&#x686;" horiz-adv-x="692" arabic-form="final" 
d="M526 50q-67 50 -76 147q-106 -10 -172 -50t-94.5 -91.5t-28.5 -98.5q0 -90 65 -133t181 -43q58 0 114.5 12.5t100.5 34.5l53 -130q-48 -31 -119.5 -49.5t-161.5 -18.5q-109 0 -187 39.5t-118 109t-40 158.5q0 141 93.5 238t274.5 131q-8 3 -40 16q-38 15 -65.5 22
t-71.5 7q-40 0 -75 -11t-59 -26l-63 121q42 27 94 42t104 15q66 0 116 -22t114 -65q49 -34 87.5 -53t82.5 -24l-15 -123l-54 -2q7 -24 21 -35t40.5 -14.5t77.5 -3.5l7 -85l-20 -65q-99 0 -166 50zM322 50q16 -16 16 -38q0 -23 -16 -39t-38 -16q-23 0 -39.5 16t-16.5 39
q0 22 16.5 38t39.5 16q22 0 38 -16zM483.5 -27q-16.5 -16 -39.5 -16q-22 0 -37.5 16t-15.5 39q0 22 15.5 38t37.5 16q23 0 39.5 -16t16.5 -38q0 -23 -16.5 -39zM326 -148q-16 16 -16 38t16 38t38 16t38 -16t16 -38t-16 -38t-38 -16t-38 16z" />
    <glyph glyph-name="uniFB7D" unicode="&#x686;" horiz-adv-x="739" arabic-form="medial" 
d="M759 65l-20 -65q-126 0 -190.5 45.5t-79.5 139.5q-41 -13 -80 -32t-97 -51q-92 -51 -156 -76.5t-136 -25.5l-20 67l32 83q55 0 102.5 10.5t84.5 25t94 40.5q58 27 97.5 42.5t86.5 26.5q-43 13 -75 25q-48 17 -79 24t-77 7q-64 0 -129 -37l-66 122q42 26 93 41t92 15
q59 0 102 -10t73 -25.5t71 -42.5q49 -33 91.5 -53.5t104.5 -33.5l-17 -121l-76 -2q4 -26 17.5 -37t45 -14t104.5 -3zM355.5 -54.5q17.5 -17.5 17.5 -41.5q0 -26 -17.5 -43.5t-41.5 -17.5q-26 0 -44 17.5t-18 43.5q0 24 18.5 41.5t43.5 17.5q24 0 41.5 -17.5zM533.5 -54.5
q18.5 -17.5 18.5 -41.5q0 -26 -18 -43.5t-44 -17.5q-24 0 -41.5 17.5t-17.5 43.5q0 24 17.5 41.5t41.5 17.5q25 0 43.5 -17.5zM443.5 -189q17.5 -18 17.5 -43t-17.5 -42t-41.5 -17t-41.5 17t-17.5 42t17.5 43t41.5 18t41.5 -18z" />
    <glyph glyph-name="uniFB7C" unicode="&#x686;" horiz-adv-x="712" arabic-form="initial" 
d="M344.5 478.5q44.5 -13.5 74 -33.5t69.5 -55q48 -43 88 -69t102 -41l-17 -120l-101 -7q-68 -4 -125.5 -22.5t-144.5 -54.5q-91 -38 -153.5 -57t-136.5 -19l-20 67l32 83q67 0 126.5 15t150.5 46q57 20 95.5 32t79.5 19q-25 13 -61 37q-28 19 -47 29t-47 16.5t-69 6.5
q-66 0 -129 -37l-65 122q42 26 94 41t98 15q62 0 106.5 -13.5zM258.5 -104.5q17.5 -17.5 17.5 -41.5q0 -26 -17.5 -43.5t-41.5 -17.5q-26 0 -44 17.5t-18 43.5q0 24 18.5 41.5t43.5 17.5q24 0 41.5 -17.5zM436.5 -104.5q18.5 -17.5 18.5 -41.5q0 -26 -18 -43.5t-44 -17.5
q-24 0 -41.5 17.5t-17.5 43.5q0 24 17.5 41.5t41.5 17.5q25 0 43.5 -17.5zM346.5 -239q17.5 -18 17.5 -43t-17.5 -42t-41.5 -17t-41.5 17t-17.5 42t17.5 43t41.5 18t41.5 -18z" />
    <glyph glyph-name="uniFB7F" unicode="&#x687;" horiz-adv-x="692" arabic-form="final" 
d="M526 50q-67 50 -76 147q-106 -10 -172 -50t-94.5 -91.5t-28.5 -98.5q0 -90 65 -133t181 -43q58 0 114.5 12.5t100.5 34.5l53 -130q-48 -31 -119.5 -49.5t-161.5 -18.5q-109 0 -187 39.5t-118 109t-40 158.5q0 141 93.5 238t274.5 131q-8 3 -40 16q-38 15 -65.5 22
t-71.5 7q-40 0 -75 -11t-59 -26l-63 121q42 27 94 42t104 15q66 0 116 -22t114 -65q49 -34 87.5 -53t82.5 -24l-15 -123l-54 -2q7 -24 21 -35t40.5 -14.5t77.5 -3.5l7 -85l-20 -65q-99 0 -166 50zM351 73q15 -15 15 -37q0 -20 -15 -35.5t-36 -15.5q-22 0 -37.5 15.5
t-15.5 35.5q0 22 15.5 37t37.5 15q21 0 36 -15zM483.5 73q15.5 -15 15.5 -37q0 -20 -15.5 -35.5t-37.5 -15.5q-21 0 -36 15.5t-15 35.5q0 22 15 37t36 15q22 0 37.5 -15zM351 -54q15 -15 15 -37q0 -21 -15 -36t-36 -15q-22 0 -37.5 15t-15.5 36q0 22 15.5 37t37.5 15
q21 0 36 -15zM483.5 -54q15.5 -15 15.5 -37q0 -21 -15.5 -36t-37.5 -15q-21 0 -36 15t-15 36q0 22 15 37t36 15q22 0 37.5 -15z" />
    <glyph glyph-name="uniFB81" unicode="&#x687;" horiz-adv-x="739" arabic-form="medial" 
d="M759 65l-20 -65q-126 0 -190.5 45.5t-79.5 139.5q-41 -13 -80 -32t-97 -51q-92 -51 -156 -76.5t-136 -25.5l-20 67l32 83q55 0 102.5 10.5t84.5 25t94 40.5q58 27 97.5 42.5t86.5 26.5q-43 13 -75 25q-48 17 -79 24t-77 7q-64 0 -129 -37l-66 122q42 26 93 41t92 15
q59 0 102 -10t73 -25.5t71 -42.5q49 -33 91.5 -53.5t104.5 -33.5l-17 -121l-76 -2q4 -26 17.5 -37t45 -14t104.5 -3zM288 -122q-17 16 -17 39q0 24 17 40.5t41 16.5t40 -16.5t16 -40.5q0 -23 -16.5 -39t-39.5 -16q-24 0 -41 16zM434.5 -122q-16.5 16 -16.5 39
q0 24 16.5 40.5t39.5 16.5q24 0 41 -16.5t17 -40.5q0 -23 -17 -39t-41 -16q-23 0 -39.5 16zM288 -262.5q-17 16.5 -17 40.5q0 23 17 40t41 17q23 0 39.5 -17t16.5 -40q0 -24 -16.5 -40.5t-39.5 -16.5q-24 0 -41 16.5zM434.5 -262.5q-16.5 16.5 -16.5 40.5q0 23 16.5 40
t39.5 17q24 0 41 -17t17 -40q0 -24 -17 -40.5t-41 -16.5q-23 0 -39.5 16.5z" />
    <glyph glyph-name="uniFB80" unicode="&#x687;" horiz-adv-x="712" arabic-form="initial" 
d="M344.5 478.5q44.5 -13.5 74 -33.5t69.5 -55q48 -43 88 -69t102 -41l-17 -120l-101 -7q-68 -4 -125.5 -22.5t-144.5 -54.5q-91 -38 -153.5 -57t-136.5 -19l-20 67l32 83q67 0 126.5 15t150.5 46q57 20 95.5 32t79.5 19q-25 13 -61 37q-28 19 -47 29t-47 16.5t-69 6.5
q-66 0 -129 -37l-65 122q42 26 94 41t98 15q62 0 106.5 -13.5zM191 -172q-17 16 -17 39q0 24 17 40.5t41 16.5t40 -16.5t16 -40.5q0 -23 -16.5 -39t-39.5 -16q-24 0 -41 16zM337.5 -172q-16.5 16 -16.5 39q0 24 16.5 40.5t39.5 16.5q24 0 41 -16.5t17 -40.5q0 -23 -17 -39
t-41 -16q-23 0 -39.5 16zM191 -312.5q-17 16.5 -17 40.5q0 23 17 40t41 17q23 0 39.5 -17t16.5 -40q0 -24 -16.5 -40.5t-39.5 -16.5q-24 0 -41 16.5zM337.5 -312.5q-16.5 16.5 -16.5 40.5q0 23 16.5 40t39.5 17q24 0 41 -17t17 -40q0 -24 -17 -40.5t-41 -16.5
q-23 0 -39.5 16.5z" />
    <glyph glyph-name="uni06BF.init" unicode="&#x6bf;" horiz-adv-x="712" 
d="M344.5 478.5q44.5 -13.5 74 -33.5t69.5 -55q48 -43 88 -69t102 -41l-17 -120l-101 -7q-68 -4 -125.5 -22.5t-144.5 -54.5q-91 -38 -153.5 -57t-136.5 -19l-20 67l32 83q67 0 126.5 15t150.5 46q57 20 95.5 32t79.5 19q-25 13 -61 37q-28 19 -47 29t-47 16.5t-69 6.5
q-66 0 -129 -37l-65 122q42 26 94 41t98 15q62 0 106.5 -13.5zM258.5 -104.5q17.5 -17.5 17.5 -41.5q0 -26 -17.5 -43.5t-41.5 -17.5q-26 0 -44 17.5t-18 43.5q0 24 18.5 41.5t43.5 17.5q24 0 41.5 -17.5zM436.5 -104.5q18.5 -17.5 18.5 -41.5q0 -26 -18 -43.5t-44 -17.5
q-24 0 -41.5 17.5t-17.5 43.5q0 24 17.5 41.5t41.5 17.5q25 0 43.5 -17.5zM346.5 -239q17.5 -18 17.5 -43t-17.5 -42t-41.5 -17t-41.5 17t-17.5 42t17.5 43t41.5 18t41.5 -18zM188 579q-20 20 -20 49q0 28 20.5 48.5t48.5 20.5q29 0 49 -20.5t20 -48.5q0 -29 -20 -49
t-49 -20t-49 20z" />
    <glyph glyph-name="uni06BF.medi" unicode="&#x6bf;" horiz-adv-x="739" 
d="M759 65l-20 -65q-126 0 -190.5 45.5t-79.5 139.5q-41 -13 -80 -32t-97 -51q-92 -51 -156 -76.5t-136 -25.5l-20 67l32 83q55 0 102.5 10.5t84.5 25t94 40.5q58 27 97.5 42.5t86.5 26.5q-43 13 -75 25q-48 17 -79 24t-77 7q-64 0 -129 -37l-66 122q42 26 93 41t92 15
q59 0 102 -10t73 -25.5t71 -42.5q49 -33 91.5 -53.5t104.5 -33.5l-17 -121l-76 -2q4 -26 17.5 -37t45 -14t104.5 -3zM355.5 -54.5q17.5 -17.5 17.5 -41.5q0 -26 -17.5 -43.5t-41.5 -17.5q-26 0 -44 17.5t-18 43.5q0 24 18.5 41.5t43.5 17.5q24 0 41.5 -17.5zM533.5 -54.5
q18.5 -17.5 18.5 -41.5q0 -26 -18 -43.5t-44 -17.5q-24 0 -41.5 17.5t-17.5 43.5q0 24 17.5 41.5t41.5 17.5q25 0 43.5 -17.5zM443.5 -189q17.5 -18 17.5 -43t-17.5 -42t-41.5 -17t-41.5 17t-17.5 42t17.5 43t41.5 18t41.5 -18zM186 579q-20 20 -20 49q0 28 20.5 48.5
t48.5 20.5q29 0 49 -20.5t20 -48.5q0 -29 -20 -49t-49 -20t-49 20z" />
    <glyph glyph-name="uni06BF.fina" unicode="&#x6bf;" horiz-adv-x="692" 
d="M526 50q-67 50 -76 147q-106 -10 -172 -50t-94.5 -91.5t-28.5 -98.5q0 -90 65 -133t181 -43q58 0 114.5 12.5t100.5 34.5l53 -130q-48 -31 -119.5 -49.5t-161.5 -18.5q-109 0 -187 39.5t-118 109t-40 158.5q0 141 93.5 238t274.5 131q-8 3 -40 16q-38 15 -65.5 22
t-71.5 7q-40 0 -75 -11t-59 -26l-63 121q42 27 94 42t104 15q66 0 116 -22t114 -65q49 -34 87.5 -53t82.5 -24l-15 -123l-54 -2q7 -24 21 -35t40.5 -14.5t77.5 -3.5l7 -85l-20 -65q-99 0 -166 50zM322 50q16 -16 16 -38q0 -23 -16 -39t-38 -16q-23 0 -39.5 16t-16.5 39
q0 22 16.5 38t39.5 16q22 0 38 -16zM483.5 -27q-16.5 -16 -39.5 -16q-22 0 -37.5 16t-15.5 39q0 22 15.5 38t37.5 16q23 0 39.5 -16t16.5 -38q0 -23 -16.5 -39zM326 -148q-16 16 -16 38t16 38t38 16t38 -16t16 -38t-16 -38t-38 -16t-38 16zM186 579q-20 20 -20 49
q0 28 20.5 48.5t48.5 20.5q29 0 49 -20.5t20 -48.5q0 -29 -20 -49t-49 -20t-49 20z" />
    <glyph glyph-name="uniFB77" unicode="&#x683;" horiz-adv-x="692" arabic-form="final" 
d="M278 147q-66 -40 -94.5 -91.5t-28.5 -98.5q0 -90 65 -133t181 -43q58 0 114.5 12.5t100.5 34.5l53 -130q-48 -31 -119.5 -49.5t-161.5 -18.5q-109 0 -187 39.5t-118 109t-40 158.5q0 141 93.5 238t274.5 131q-8 3 -40 16q-38 15 -65.5 22t-71.5 7q-40 0 -75 -11t-59 -26
l-63 121q42 27 94 42t104 15q66 0 116 -22t114 -65q49 -34 87.5 -53t82.5 -24l-15 -123l-54 -2q7 -24 21 -35t40.5 -14.5t77.5 -3.5l7 -85l-20 -65q-99 0 -166 50t-76 147q-106 -10 -172 -50zM252.5 -80.5q-18.5 18.5 -18.5 44.5t18.5 44.5t44.5 18.5t44.5 -18.5t18.5 -44.5
t-18.5 -44.5t-44.5 -18.5t-44.5 18.5zM418 -80.5q-19 18.5 -19 44.5t19 44.5t45 18.5t44 -18.5t18 -44.5t-18 -44.5t-44 -18.5t-45 18.5z" />
    <glyph glyph-name="uniFB79" unicode="&#x683;" horiz-adv-x="739" arabic-form="medial" 
d="M759 65l-20 -65q-126 0 -190.5 45.5t-79.5 139.5q-41 -13 -80 -32t-97 -51q-92 -51 -156 -76.5t-136 -25.5l-20 67l32 83q55 0 102.5 10.5t84.5 25t94 40.5q58 27 97.5 42.5t86.5 26.5q-43 13 -75 25q-48 17 -79 24t-77 7q-64 0 -129 -37l-66 122q42 26 93 41t92 15
q59 0 102 -10t73 -25.5t71 -42.5q49 -33 91.5 -53.5t104.5 -33.5l-17 -121l-76 -2q4 -26 17.5 -37t45 -14t104.5 -3zM274.5 -137.5q-18.5 18.5 -18.5 44.5t18.5 44.5t44.5 18.5t44.5 -18.5t18.5 -44.5t-18.5 -44.5t-44.5 -18.5t-44.5 18.5zM440 -137.5q-19 18.5 -19 44.5
t19 44.5t45 18.5t44 -18.5t18 -44.5t-18 -44.5t-44 -18.5t-45 18.5z" />
    <glyph glyph-name="uniFB78" unicode="&#x683;" horiz-adv-x="712" arabic-form="initial" 
d="M344.5 478.5q44.5 -13.5 74 -33.5t69.5 -55q48 -43 88 -69t102 -41l-17 -120l-101 -7q-68 -4 -125.5 -22.5t-144.5 -54.5q-91 -38 -153.5 -57t-136.5 -19l-20 67l32 83q67 0 126.5 15t150.5 46q57 20 95.5 32t79.5 19q-25 13 -61 37q-28 19 -47 29t-47 16.5t-69 6.5
q-66 0 -129 -37l-65 122q42 26 94 41t98 15q62 0 106.5 -13.5zM177.5 -187.5q-18.5 18.5 -18.5 44.5t18.5 44.5t44.5 18.5t44.5 -18.5t18.5 -44.5t-18.5 -44.5t-44.5 -18.5t-44.5 18.5zM343 -187.5q-19 18.5 -19 44.5t19 44.5t45 18.5t44 -18.5t18 -44.5t-18 -44.5
t-44 -18.5t-45 18.5z" />
    <glyph glyph-name="uniFB73" unicode="&#x684;" horiz-adv-x="692" arabic-form="final" 
d="M278 147q-66 -40 -94.5 -91.5t-28.5 -98.5q0 -90 65 -133t181 -43q58 0 114.5 12.5t100.5 34.5l53 -130q-48 -31 -119.5 -49.5t-161.5 -18.5q-109 0 -187 39.5t-118 109t-40 158.5q0 141 93.5 238t274.5 131q-8 3 -40 16q-38 15 -65.5 22t-71.5 7q-40 0 -75 -11t-59 -26
l-63 121q42 27 94 42t104 15q66 0 116 -22t114 -65q49 -34 87.5 -53t82.5 -24l-15 -123l-54 -2q7 -24 21 -35t40.5 -14.5t77.5 -3.5l7 -85l-20 -65q-99 0 -166 50t-76 147q-106 -10 -172 -50zM337.5 -16q-18.5 19 -18.5 45t18.5 44t43.5 18q27 0 45.5 -18t18.5 -44
t-18.5 -45t-45.5 -19q-25 0 -43.5 19zM337.5 -175q-18.5 18 -18.5 44t18.5 45t44.5 19t44.5 -19t18.5 -45t-18.5 -44t-44.5 -18t-44.5 18z" />
    <glyph glyph-name="uniFB75" unicode="&#x684;" horiz-adv-x="739" arabic-form="medial" 
d="M759 65l-20 -65q-126 0 -190.5 45.5t-79.5 139.5q-41 -13 -80 -32t-97 -51q-92 -51 -156 -76.5t-136 -25.5l-20 67l32 83q55 0 102.5 10.5t84.5 25t94 40.5q58 27 97.5 42.5t86.5 26.5q-43 13 -75 25q-48 17 -79 24t-77 7q-64 0 -129 -37l-66 122q42 26 93 41t92 15
q59 0 102 -10t73 -25.5t71 -42.5q49 -33 91.5 -53.5t104.5 -33.5l-17 -121l-76 -2q4 -26 17.5 -37t45 -14t104.5 -3zM356.5 -127.5q-18.5 18.5 -18.5 44.5t18.5 44.5t44.5 18.5t44.5 -18.5t18.5 -44.5t-18.5 -44.5t-44.5 -18.5t-44.5 18.5zM357 -286q-18 18 -18 44t18 44.5
t44 18.5t45 -18.5t19 -44.5q0 -25 -19 -43.5t-45 -18.5t-44 18z" />
    <glyph glyph-name="uniFB74" unicode="&#x684;" horiz-adv-x="712" arabic-form="initial" 
d="M344.5 478.5q44.5 -13.5 74 -33.5t69.5 -55q48 -43 88 -69t102 -41l-17 -120l-101 -7q-68 -4 -125.5 -22.5t-144.5 -54.5q-91 -38 -153.5 -57t-136.5 -19l-20 67l32 83q67 0 126.5 15t150.5 46q57 20 95.5 32t79.5 19q-25 13 -61 37q-28 19 -47 29t-47 16.5t-69 6.5
q-66 0 -129 -37l-65 122q42 26 94 41t98 15q62 0 106.5 -13.5zM260.5 -177.5q-18.5 18.5 -18.5 44.5t18.5 44.5t44.5 18.5t44.5 -18.5t18.5 -44.5t-18.5 -44.5t-44.5 -18.5t-44.5 18.5zM261 -336q-18 18 -18 44t18 44.5t44 18.5t45 -18.5t19 -44.5q0 -25 -19 -43.5
t-45 -18.5t-44 18z" />
    <glyph glyph-name="uniFEA2" unicode="&#x62d;" horiz-adv-x="692" arabic-form="final" 
d="M278 147q-66 -40 -94.5 -91.5t-28.5 -98.5q0 -90 65 -133t181 -43q58 0 114.5 12.5t100.5 34.5l53 -130q-48 -31 -119.5 -49.5t-161.5 -18.5q-109 0 -187 39.5t-118 109t-40 158.5q0 141 93.5 238t274.5 131q-8 3 -40 16q-38 15 -65.5 22t-71.5 7q-40 0 -75 -11t-59 -26
l-63 121q42 27 94 42t104 15q66 0 116 -22t114 -65q49 -34 87.5 -53t82.5 -24l-15 -123l-54 -2q7 -24 21 -35t40.5 -14.5t77.5 -3.5l7 -85l-20 -65q-99 0 -166 50t-76 147q-106 -10 -172 -50z" />
    <glyph glyph-name="uniFEA4" unicode="&#x62d;" horiz-adv-x="739" arabic-form="medial" 
d="M759 65l-20 -65q-126 0 -190.5 45.5t-79.5 139.5q-41 -13 -80 -32t-97 -51q-92 -51 -156 -76.5t-136 -25.5l-20 67l32 83q55 0 102.5 10.5t84.5 25t94 40.5q58 27 97.5 42.5t86.5 26.5q-43 13 -75 25q-48 17 -79 24t-77 7q-64 0 -129 -37l-66 122q42 26 93 41t92 15
q59 0 102 -10t73 -25.5t71 -42.5q49 -33 91.5 -53.5t104.5 -33.5l-17 -121l-76 -2q4 -26 17.5 -37t45 -14t104.5 -3z" />
    <glyph glyph-name="uniFEA3" unicode="&#x62d;" horiz-adv-x="712" arabic-form="initial" 
d="M344.5 478.5q44.5 -13.5 74 -33.5t69.5 -55q48 -43 88 -69t102 -41l-17 -120l-101 -7q-68 -4 -125.5 -22.5t-144.5 -54.5q-91 -38 -153.5 -57t-136.5 -19l-20 67l32 83q67 0 126.5 15t150.5 46q57 20 95.5 32t79.5 19q-25 13 -61 37q-28 19 -47 29t-47 16.5t-69 6.5
q-66 0 -129 -37l-65 122q42 26 94 41t98 15q62 0 106.5 -13.5z" />
    <glyph glyph-name="uni0681.init" unicode="&#x681;" horiz-adv-x="712" 
d="M344.5 478.5q44.5 -13.5 74 -33.5t69.5 -55q48 -43 88 -69t102 -41l-17 -120l-101 -7q-68 -4 -125.5 -22.5t-144.5 -54.5q-91 -38 -153.5 -57t-136.5 -19l-20 67l32 83q67 0 126.5 15t150.5 46q57 20 95.5 32t79.5 19q-25 13 -61 37q-28 19 -47 29t-47 16.5t-69 6.5
q-66 0 -129 -37l-65 122q42 26 94 41t98 15q62 0 106.5 -13.5zM353 569l-227 -36l-10 70l62 10q-35 31 -35 65q0 38 28 63.5t80 25.5q43 0 88 -27l-43 -66q-23 15 -43 15q-13 0 -20.5 -7.5t-7.5 -17.5q0 -16 23 -39l93 16z" />
    <glyph glyph-name="uni0681.medi" unicode="&#x681;" horiz-adv-x="739" 
d="M759 65l-20 -65q-126 0 -190.5 45.5t-79.5 139.5q-41 -13 -80 -32t-97 -51q-92 -51 -156 -76.5t-136 -25.5l-20 67l32 83q55 0 102.5 10.5t84.5 25t94 40.5q58 27 97.5 42.5t86.5 26.5q-43 13 -75 25q-48 17 -79 24t-77 7q-64 0 -129 -37l-66 122q42 26 93 41t92 15
q59 0 102 -10t73 -25.5t71 -42.5q49 -33 91.5 -53.5t104.5 -33.5l-17 -121l-76 -2q4 -26 17.5 -37t45 -14t104.5 -3zM351 569l-227 -36l-10 70l62 10q-35 31 -35 65q0 38 28 63.5t80 25.5q43 0 88 -27l-43 -66q-23 15 -43 15q-13 0 -20.5 -7.5t-7.5 -17.5q0 -16 23 -39
l93 16z" />
    <glyph glyph-name="uni0681.fina" unicode="&#x681;" horiz-adv-x="692" 
d="M278 147q-66 -40 -94.5 -91.5t-28.5 -98.5q0 -90 65 -133t181 -43q58 0 114.5 12.5t100.5 34.5l53 -130q-48 -31 -119.5 -49.5t-161.5 -18.5q-109 0 -187 39.5t-118 109t-40 158.5q0 141 93.5 238t274.5 131q-8 3 -40 16q-38 15 -65.5 22t-71.5 7q-40 0 -75 -11t-59 -26
l-63 121q42 27 94 42t104 15q66 0 116 -22t114 -65q49 -34 87.5 -53t82.5 -24l-15 -123l-54 -2q7 -24 21 -35t40.5 -14.5t77.5 -3.5l7 -85l-20 -65q-99 0 -166 50t-76 147q-106 -10 -172 -50zM352 569l-227 -36l-10 70l62 10q-35 31 -35 65q0 38 28 63.5t80 25.5
q43 0 88 -27l-43 -66q-23 15 -43 15q-13 0 -20.5 -7.5t-7.5 -17.5q0 -16 23 -39l93 16z" />
    <glyph glyph-name="uni0682.init" unicode="&#x682;" horiz-adv-x="712" 
d="M344.5 478.5q44.5 -13.5 74 -33.5t69.5 -55q48 -43 88 -69t102 -41l-17 -120l-101 -7q-68 -4 -125.5 -22.5t-144.5 -54.5q-91 -38 -153.5 -57t-136.5 -19l-20 67l32 83q67 0 126.5 15t150.5 46q57 20 95.5 32t79.5 19q-25 13 -61 37q-28 19 -47 29t-47 16.5t-69 6.5
q-66 0 -129 -37l-65 122q42 26 94 41t98 15q62 0 106.5 -13.5zM193.5 726.5q-18.5 18.5 -18.5 44.5t18.5 44.5t44.5 18.5t44.5 -18.5t18.5 -44.5t-18.5 -44.5t-44.5 -18.5t-44.5 18.5zM194 567.5q-18 18.5 -18 44.5t18 44.5t44 18.5t45 -18.5t19 -44.5t-19 -44.5t-45 -18.5
t-44 18.5z" />
    <glyph glyph-name="uni0682.medi" unicode="&#x682;" horiz-adv-x="739" 
d="M759 65l-20 -65q-126 0 -190.5 45.5t-79.5 139.5q-41 -13 -80 -32t-97 -51q-92 -51 -156 -76.5t-136 -25.5l-20 67l32 83q55 0 102.5 10.5t84.5 25t94 40.5q58 27 97.5 42.5t86.5 26.5q-43 13 -75 25q-48 17 -79 24t-77 7q-64 0 -129 -37l-66 122q42 26 93 41t92 15
q59 0 102 -10t73 -25.5t71 -42.5q49 -33 91.5 -53.5t104.5 -33.5l-17 -121l-76 -2q4 -26 17.5 -37t45 -14t104.5 -3zM191.5 726.5q-18.5 18.5 -18.5 44.5t18.5 44.5t44.5 18.5t44.5 -18.5t18.5 -44.5t-18.5 -44.5t-44.5 -18.5t-44.5 18.5zM192 567.5q-18 18.5 -18 44.5
t18 44.5t44 18.5t45 -18.5t19 -44.5t-19 -44.5t-45 -18.5t-44 18.5z" />
    <glyph glyph-name="uni0682.fina" unicode="&#x682;" horiz-adv-x="692" 
d="M278 147q-66 -40 -94.5 -91.5t-28.5 -98.5q0 -90 65 -133t181 -43q58 0 114.5 12.5t100.5 34.5l53 -130q-48 -31 -119.5 -49.5t-161.5 -18.5q-109 0 -187 39.5t-118 109t-40 158.5q0 141 93.5 238t274.5 131q-8 3 -40 16q-38 15 -65.5 22t-71.5 7q-40 0 -75 -11t-59 -26
l-63 121q42 27 94 42t104 15q66 0 116 -22t114 -65q49 -34 87.5 -53t82.5 -24l-15 -123l-54 -2q7 -24 21 -35t40.5 -14.5t77.5 -3.5l7 -85l-20 -65q-99 0 -166 50t-76 147q-106 -10 -172 -50zM191.5 726.5q-18.5 18.5 -18.5 44.5t18.5 44.5t44.5 18.5t44.5 -18.5t18.5 -44.5
t-18.5 -44.5t-44.5 -18.5t-44.5 18.5zM192 567.5q-18 18.5 -18 44.5t18 44.5t44 18.5t45 -18.5t19 -44.5t-19 -44.5t-45 -18.5t-44 18.5z" />
    <glyph glyph-name="uni0685.init" unicode="&#x685;" horiz-adv-x="712" 
d="M344.5 478.5q44.5 -13.5 74 -33.5t69.5 -55q48 -43 88 -69t102 -41l-17 -120l-101 -7q-68 -4 -125.5 -22.5t-144.5 -54.5q-91 -38 -153.5 -57t-136.5 -19l-20 67l32 83q67 0 126.5 15t150.5 46q57 20 95.5 32t79.5 19q-25 13 -61 37q-28 19 -47 29t-47 16.5t-69 6.5
q-66 0 -129 -37l-65 122q42 26 94 41t98 15q62 0 106.5 -13.5zM196.5 714q-17.5 18 -17.5 43t17.5 42t41.5 17t41.5 -17t17.5 -42t-17.5 -43t-41.5 -18t-41.5 18zM106 580q-18 17 -18 42t18 43t44 18q24 0 41.5 -18t17.5 -43t-17.5 -42t-41.5 -17q-26 0 -44 17zM284.5 580
q-17.5 17 -17.5 42t17.5 43t41.5 18q26 0 44 -18t18 -43t-18 -42t-44 -17q-24 0 -41.5 17z" />
    <glyph glyph-name="uni0685.medi" unicode="&#x685;" horiz-adv-x="739" 
d="M759 65l-20 -65q-126 0 -190.5 45.5t-79.5 139.5q-41 -13 -80 -32t-97 -51q-92 -51 -156 -76.5t-136 -25.5l-20 67l32 83q55 0 102.5 10.5t84.5 25t94 40.5q58 27 97.5 42.5t86.5 26.5q-43 13 -75 25q-48 17 -79 24t-77 7q-64 0 -129 -37l-66 122q42 26 93 41t92 15
q59 0 102 -10t73 -25.5t71 -42.5q49 -33 91.5 -53.5t104.5 -33.5l-17 -121l-76 -2q4 -26 17.5 -37t45 -14t104.5 -3zM194.5 714q-17.5 18 -17.5 43t17.5 42t41.5 17t41.5 -17t17.5 -42t-17.5 -43t-41.5 -18t-41.5 18zM104 580q-18 17 -18 42t18 43t44 18q24 0 41.5 -18
t17.5 -43t-17.5 -42t-41.5 -17q-26 0 -44 17zM282.5 580q-17.5 17 -17.5 42t17.5 43t41.5 18q26 0 44 -18t18 -43t-18 -42t-44 -17q-24 0 -41.5 17z" />
    <glyph glyph-name="uni0685.fina" unicode="&#x685;" horiz-adv-x="692" 
d="M278 147q-66 -40 -94.5 -91.5t-28.5 -98.5q0 -90 65 -133t181 -43q58 0 114.5 12.5t100.5 34.5l53 -130q-48 -31 -119.5 -49.5t-161.5 -18.5q-109 0 -187 39.5t-118 109t-40 158.5q0 141 93.5 238t274.5 131q-8 3 -40 16q-38 15 -65.5 22t-71.5 7q-40 0 -75 -11t-59 -26
l-63 121q42 27 94 42t104 15q66 0 116 -22t114 -65q49 -34 87.5 -53t82.5 -24l-15 -123l-54 -2q7 -24 21 -35t40.5 -14.5t77.5 -3.5l7 -85l-20 -65q-99 0 -166 50t-76 147q-106 -10 -172 -50zM195.5 714q-17.5 18 -17.5 43t17.5 42t41.5 17t41.5 -17t17.5 -42t-17.5 -43
t-41.5 -18t-41.5 18zM105 580q-18 17 -18 42t18 43t44 18q24 0 41.5 -18t17.5 -43t-17.5 -42t-41.5 -17q-26 0 -44 17zM283.5 580q-17.5 17 -17.5 42t17.5 43t41.5 18q26 0 44 -18t18 -43t-18 -42t-44 -17q-24 0 -41.5 17z" />
    <glyph glyph-name="uniFEA6" unicode="&#x62e;" horiz-adv-x="692" arabic-form="final" 
d="M278 147q-66 -40 -94.5 -91.5t-28.5 -98.5q0 -90 65 -133t181 -43q58 0 114.5 12.5t100.5 34.5l53 -130q-48 -31 -119.5 -49.5t-161.5 -18.5q-109 0 -187 39.5t-118 109t-40 158.5q0 141 93.5 238t274.5 131q-8 3 -40 16q-38 15 -65.5 22t-71.5 7q-40 0 -75 -11t-59 -26
l-63 121q42 27 94 42t104 15q66 0 116 -22t114 -65q49 -34 87.5 -53t82.5 -24l-15 -123l-54 -2q7 -24 21 -35t40.5 -14.5t77.5 -3.5l7 -85l-20 -65q-99 0 -166 50t-76 147q-106 -10 -172 -50zM186 579q-20 20 -20 49q0 28 20.5 48.5t48.5 20.5q29 0 49 -20.5t20 -48.5
q0 -29 -20 -49t-49 -20t-49 20z" />
    <glyph glyph-name="uniFEA8" unicode="&#x62e;" horiz-adv-x="739" arabic-form="medial" 
d="M759 65l-20 -65q-126 0 -190.5 45.5t-79.5 139.5q-41 -13 -80 -32t-97 -51q-92 -51 -156 -76.5t-136 -25.5l-20 67l32 83q55 0 102.5 10.5t84.5 25t94 40.5q58 27 97.5 42.5t86.5 26.5q-43 13 -75 25q-48 17 -79 24t-77 7q-64 0 -129 -37l-66 122q42 26 93 41t92 15
q59 0 102 -10t73 -25.5t71 -42.5q49 -33 91.5 -53.5t104.5 -33.5l-17 -121l-76 -2q4 -26 17.5 -37t45 -14t104.5 -3zM186 579q-20 20 -20 49q0 28 20.5 48.5t48.5 20.5q29 0 49 -20.5t20 -48.5q0 -29 -20 -49t-49 -20t-49 20z" />
    <glyph glyph-name="uniFEA7" unicode="&#x62e;" horiz-adv-x="712" arabic-form="initial" 
d="M344.5 478.5q44.5 -13.5 74 -33.5t69.5 -55q48 -43 88 -69t102 -41l-17 -120l-101 -7q-68 -4 -125.5 -22.5t-144.5 -54.5q-91 -38 -153.5 -57t-136.5 -19l-20 67l32 83q67 0 126.5 15t150.5 46q57 20 95.5 32t79.5 19q-25 13 -61 37q-28 19 -47 29t-47 16.5t-69 6.5
q-66 0 -129 -37l-65 122q42 26 94 41t98 15q62 0 106.5 -13.5zM188 579q-20 20 -20 49q0 28 20.5 48.5t48.5 20.5q29 0 49 -20.5t20 -48.5q0 -29 -20 -49t-49 -20t-49 20z" />
    <glyph glyph-name="uniFEAA" unicode="&#x62f;" horiz-adv-x="531" arabic-form="final" 
d="M551 69l-20 -69q-46 0 -87.5 22t-66.5 58q-52 -95 -201 -95q-72 0 -155 22l40 146q66 -17 127 -17q44 0 75.5 10t63.5 32l-147 300l135 60l104 -278q18 -47 33 -70t35.5 -31.5t56.5 -8.5z" />
    <glyph glyph-name="uniFEAC" unicode="&#x630;" horiz-adv-x="531" arabic-form="final" 
d="M551 69l-20 -69q-46 0 -87.5 22t-66.5 58q-52 -95 -201 -95q-72 0 -155 22l40 146q66 -17 127 -17q44 0 75.5 10t63.5 32l-147 300l135 60l104 -278q18 -47 33 -70t35.5 -31.5t56.5 -8.5zM172 618q-20 20 -20 49q0 28 20.5 48.5t48.5 20.5q29 0 49 -20.5t20 -48.5
q0 -29 -20 -49t-49 -20t-49 20z" />
    <glyph glyph-name="uniFC5B" unicode="&#xfc5b;" horiz-adv-x="477" arabic-form="isolated" 
d="M86 -11.5q-42 6.5 -65 15.5l40 148q59 -19 127 -19q50 0 92.5 15.5t42.5 46.5q0 86 -191 252l120 97q71 -76 129 -170.5t58 -193.5q0 -115 -85.5 -156.5t-179.5 -41.5q-46 0 -88 6.5zM125 616q-20 20 -20 49q0 28 20.5 48.5t48.5 20.5q29 0 49 -20.5t20 -48.5
q0 -29 -20 -49t-49 -20t-49 20zM213 988v-189h-78v180z" />
    <glyph glyph-name="uniFB89" unicode="&#x688;" horiz-adv-x="531" arabic-form="final" 
d="M551 69l-20 -69q-46 0 -87.5 22t-66.5 58q-52 -95 -201 -95q-72 0 -155 22l40 146q66 -17 127 -17q44 0 75.5 10t63.5 32l-147 300l135 60l104 -278q18 -47 33 -70t35.5 -31.5t56.5 -8.5zM328.5 756q20.5 -26 20.5 -66q0 -32 -24.5 -60.5t-78.5 -28.5h-155l8 67h32v149
h65v-68q19 18 36 25.5t37 7.5q39 0 59.5 -26zM276 673.5q11 5.5 11 18.5q0 23 -26 23q-36 0 -79 -47h55q28 0 39 5.5z" />
    <glyph glyph-name="uniFB85" unicode="&#x68c;" horiz-adv-x="531" arabic-form="final" 
d="M551 69l-20 -69q-46 0 -87.5 22t-66.5 58q-52 -95 -201 -95q-72 0 -155 22l40 146q66 -17 127 -17q44 0 75.5 10t63.5 32l-147 300l135 60l104 -278q18 -47 33 -70t35.5 -31.5t56.5 -8.5zM94.5 625.5q-18.5 18.5 -18.5 45.5q0 26 18.5 44t44.5 18t44.5 -18t18.5 -44
q0 -27 -18.5 -45.5t-44.5 -18.5t-44.5 18.5zM260 625.5q-19 18.5 -19 45.5q0 26 19 44t45 18t44 -18t18 -44q0 -27 -18 -45.5t-44 -18.5t-45 18.5z" />
    <glyph glyph-name="uniFB83" unicode="&#x68d;" horiz-adv-x="531" arabic-form="final" 
d="M551 69l-20 -69q-46 0 -87.5 22t-66.5 58q-52 -95 -201 -95q-72 0 -155 22l40 146q66 -17 127 -17q44 0 75.5 10t63.5 32l-147 300l135 60l104 -278q18 -47 33 -70t35.5 -31.5t56.5 -8.5zM74.5 -187.5q-18.5 18.5 -18.5 44.5t18.5 44.5t44.5 18.5t44.5 -18.5t18.5 -44.5
t-18.5 -44.5t-44.5 -18.5t-44.5 18.5zM240 -187.5q-19 18.5 -19 44.5t19 44.5t45 18.5t44 -18.5t18 -44.5t-18 -44.5t-44 -18.5t-45 18.5z" />
    <glyph glyph-name="uni0689.fina" unicode="&#x689;" horiz-adv-x="531" 
d="M551 69l-20 -69q-46 0 -87.5 22t-66.5 58q-31 -57 -97 -80q13 -23 13 -49q0 -41 -28 -67.5t-68 -26.5q-41 0 -69 26.5t-28 67.5q0 20 8 38q-37 5 -87 18l40 146q66 -17 127 -17q44 0 75.5 10t63.5 32l-147 300l135 60l104 -278q18 -47 33 -70t35.5 -31.5t56.5 -8.5z
M223 -72.5q9 9.5 9 23.5q0 15 -9.5 24t-25.5 9t-26 -9t-10 -24q0 -14 9.5 -23.5t26.5 -9.5t26 9.5z" />
    <glyph glyph-name="uni068A.fina" unicode="&#x68a;" horiz-adv-x="531" 
d="M551 69l-20 -69q-46 0 -87.5 22t-66.5 58q-52 -95 -201 -95q-72 0 -155 22l40 146q66 -17 127 -17q44 0 75.5 10t63.5 32l-147 300l135 60l104 -278q18 -47 33 -70t35.5 -31.5t56.5 -8.5zM153 -200q-20 20 -20 49q0 28 20.5 48.5t48.5 20.5q29 0 49 -20.5t20 -48.5
q0 -29 -20 -49t-49 -20t-49 20z" />
    <glyph glyph-name="uni068B.fina" unicode="&#x68b;" horiz-adv-x="531" 
d="M551 69l-20 -69q-46 0 -87.5 22t-66.5 58q-52 -95 -201 -95q-72 0 -155 22l40 146q66 -17 127 -17q44 0 75.5 10t63.5 32l-147 300l135 60l104 -278q18 -47 33 -70t35.5 -31.5t56.5 -8.5zM153 -200q-20 20 -20 49q0 28 20.5 48.5t48.5 20.5q29 0 49 -20.5t20 -48.5
q0 -29 -20 -49t-49 -20t-49 20zM328.5 756q20.5 -26 20.5 -66q0 -32 -24.5 -60.5t-78.5 -28.5h-155l8 67h32v149h65v-68q19 18 36 25.5t37 7.5q39 0 59.5 -26zM276 673.5q11 5.5 11 18.5q0 23 -26 23q-36 0 -79 -47h55q28 0 39 5.5z" />
    <glyph glyph-name="uniFB87" unicode="&#x68e;" horiz-adv-x="531" arabic-form="final" 
d="M551 69l-20 -69q-46 0 -87.5 22t-66.5 58q-52 -95 -201 -95q-72 0 -155 22l40 146q66 -17 127 -17q44 0 75.5 10t63.5 32l-147 300l135 60l104 -278q18 -47 33 -70t35.5 -31.5t56.5 -8.5zM180.5 753q-17.5 18 -17.5 43t17.5 42t41.5 17t41.5 -17t17.5 -42t-17.5 -43
t-41.5 -18t-41.5 18zM90 619q-18 17 -18 42t18 43t44 18q24 0 41.5 -18t17.5 -43t-17.5 -42t-41.5 -17q-26 0 -44 17zM268.5 619q-17.5 17 -17.5 42t17.5 43t41.5 18q26 0 44 -18t18 -43t-18 -42t-44 -17q-24 0 -41.5 17z" />
    <glyph glyph-name="uni068F.fina" unicode="&#x68f;" horiz-adv-x="531" 
d="M551 69l-20 -69q-46 0 -87.5 22t-66.5 58q-52 -95 -201 -95q-72 0 -155 22l40 146q66 -17 127 -17q44 0 75.5 10t63.5 32l-147 300l135 60l104 -278q18 -47 33 -70t35.5 -31.5t56.5 -8.5zM175.5 831.5q17.5 -17.5 17.5 -41.5q0 -25 -17.5 -43t-41.5 -18q-26 0 -44 18
t-18 43q0 24 18.5 41.5t43.5 17.5q24 0 41.5 -17.5zM353.5 831.5q18.5 -17.5 18.5 -41.5q0 -25 -18 -43t-44 -18q-24 0 -41.5 18t-17.5 43q0 24 17.5 41.5t41.5 17.5q25 0 43.5 -17.5zM263.5 697.5q17.5 -17.5 17.5 -42.5t-17.5 -42.5t-41.5 -17.5t-41.5 17.5t-17.5 42.5
t17.5 42.5t41.5 17.5t41.5 -17.5z" />
    <glyph glyph-name="uni0690.fina" unicode="&#x690;" horiz-adv-x="531" 
d="M551 69l-20 -69q-46 0 -87.5 22t-66.5 58q-52 -95 -201 -95q-72 0 -155 22l40 146q66 -17 127 -17q44 0 75.5 10t63.5 32l-147 300l135 60l104 -278q18 -47 33 -70t35.5 -31.5t56.5 -8.5zM109 744.5q-17 16.5 -17 39.5q0 24 17 40.5t41 16.5t40 -16t16 -41
q0 -23 -16.5 -39.5t-39.5 -16.5q-24 0 -41 16.5zM255.5 744.5q-16.5 16.5 -16.5 39.5q0 25 16.5 41t39.5 16q24 0 41 -16.5t17 -40.5q0 -23 -17 -39.5t-41 -16.5q-23 0 -39.5 16.5zM109 604.5q-17 16.5 -17 39.5q0 24 17 41t41 17q23 0 39.5 -17t16.5 -41q0 -23 -16.5 -39.5
t-39.5 -16.5q-24 0 -41 16.5zM255.5 604.5q-16.5 16.5 -16.5 39.5q0 24 16.5 41t39.5 17q24 0 41 -17t17 -41q0 -23 -17 -39.5t-41 -16.5q-23 0 -39.5 16.5z" />
    <glyph glyph-name="uni06EE.fina" unicode="&#x6ee;" horiz-adv-x="531" 
d="M551 69l-20 -69q-46 0 -87.5 22t-66.5 58q-52 -95 -201 -95q-72 0 -155 22l40 146q66 -17 127 -17q44 0 75.5 10t63.5 32l-147 300l135 60l104 -278q18 -47 33 -70t35.5 -31.5t56.5 -8.5zM107 629l79 142h70l81 -142l-69 -30l-46 77l-46 -77z" />
    <glyph glyph-name="uniFEAE" unicode="&#x631;" horiz-adv-x="417" arabic-form="final" 
d="M437 67l-20 -67q-35 0 -56.5 7t-35.5 26q-10 -108 -87 -178.5t-221 -111.5l-53 143q139 40 202 94t63 115q0 38 -22.5 95.5t-64.5 140.5l138 47q31 -86 39 -113q21 -67 44.5 -91t65.5 -24z" />
    <glyph glyph-name="uniFEB0" unicode="&#x632;" horiz-adv-x="417" arabic-form="final" 
d="M437 67l-20 -67q-35 0 -56.5 7t-35.5 26q-10 -108 -87 -178.5t-221 -111.5l-53 143q139 40 202 94t63 115q0 38 -22.5 95.5t-64.5 140.5l138 47q31 -86 39 -113q21 -67 44.5 -91t65.5 -24zM130 482q-20 20 -20 49q0 28 20.5 48.5t48.5 20.5q29 0 49 -20.5t20 -48.5
q0 -29 -20 -49t-49 -20t-49 20z" />
    <glyph glyph-name="uniFB8D" unicode="&#x691;" horiz-adv-x="417" arabic-form="final" 
d="M437 67l-20 -67q-35 0 -56.5 7t-35.5 26q-10 -108 -87 -178.5t-221 -111.5l-53 143q139 40 202 94t63 115q0 38 -22.5 95.5t-64.5 140.5l138 47q31 -86 39 -113q21 -67 44.5 -91t65.5 -24zM286.5 620q20.5 -26 20.5 -66q0 -32 -24.5 -60.5t-78.5 -28.5h-155l8 67h32v149
h65v-68q19 18 36 25.5t37 7.5q39 0 59.5 -26zM234 537.5q11 5.5 11 18.5q0 23 -26 23q-36 0 -79 -47h55q28 0 39 5.5z" />
    <glyph glyph-name="uni0692.fina" unicode="&#x692;" horiz-adv-x="417" 
d="M437 67l-20 -67q-35 0 -56.5 7t-35.5 26q-10 -108 -87 -178.5t-221 -111.5l-53 143q139 40 202 94t63 115q0 38 -22.5 95.5t-64.5 140.5l138 47q31 -86 39 -113q21 -67 44.5 -91t65.5 -24zM180 531l46 77l69 -29l-81 -143h-70l-79 143l69 29z" />
    <glyph glyph-name="uni0693.fina" unicode="&#x693;" horiz-adv-x="417" 
d="M360.5 7q-21.5 7 -35.5 26q-9 -92 -66 -156q33 -7 54.5 -32t21.5 -61q0 -41 -27.5 -67.5t-68.5 -26.5q-40 0 -68 26.5t-28 67.5v7q-49 -25 -126 -48l-53 143q139 40 202 94t63 115q0 38 -22.5 95.5t-64.5 140.5l138 47q31 -86 39 -113q21 -67 44.5 -91t65.5 -24l8 -83
l-20 -67q-35 0 -56.5 7zM265 -191.5q-10 9.5 -26 9.5t-25.5 -9.5t-9.5 -24.5q0 -14 9.5 -23.5t25.5 -9.5q17 0 26.5 9.5t9.5 23.5q0 15 -10 24.5z" />
    <glyph glyph-name="uni0694.fina" unicode="&#x694;" horiz-adv-x="417" 
d="M437 67l-20 -67q-35 0 -56.5 7t-35.5 26q-10 -108 -87 -178.5t-221 -111.5l-53 143q139 40 202 94t63 115q0 38 -22.5 95.5t-64.5 140.5l138 47q31 -86 39 -113q21 -67 44.5 -91t65.5 -24zM183 -386q-20 20 -20 49q0 28 20.5 48.5t48.5 20.5q29 0 49 -20.5t20 -48.5
q0 -29 -20 -49t-49 -20t-49 20z" />
    <glyph glyph-name="uni0695.fina" unicode="&#x695;" horiz-adv-x="417" 
d="M437 67l-20 -67q-35 0 -56.5 7t-35.5 26q-10 -108 -87 -178.5t-221 -111.5l-53 143q139 40 202 94t63 115q0 38 -22.5 95.5t-64.5 140.5l138 47q31 -86 39 -113q21 -67 44.5 -91t65.5 -24zM232 -306l46 77l69 -29l-81 -143h-70l-79 143l69 29z" />
    <glyph glyph-name="uni0696.fina" unicode="&#x696;" horiz-adv-x="417" 
d="M437 67l-20 -67q-35 0 -56.5 7t-35.5 26q-10 -108 -87 -178.5t-221 -111.5l-53 143q139 40 202 94t63 115q0 38 -22.5 95.5t-64.5 140.5l138 47q31 -86 39 -113q21 -67 44.5 -91t65.5 -24zM183 -386q-20 20 -20 49q0 28 20.5 48.5t48.5 20.5q29 0 49 -20.5t20 -48.5
q0 -29 -20 -49t-49 -20t-49 20zM130 482q-20 20 -20 49q0 28 20.5 48.5t48.5 20.5q29 0 49 -20.5t20 -48.5q0 -29 -20 -49t-49 -20t-49 20z" />
    <glyph glyph-name="uni0697.fina" unicode="&#x697;" horiz-adv-x="417" 
d="M437 67l-20 -67q-35 0 -56.5 7t-35.5 26q-10 -108 -87 -178.5t-221 -111.5l-53 143q139 40 202 94t63 115q0 38 -22.5 95.5t-64.5 140.5l138 47q31 -86 39 -113q21 -67 44.5 -91t65.5 -24zM52.5 489.5q-18.5 18.5 -18.5 45.5q0 26 18.5 44t44.5 18t44.5 -18t18.5 -44
q0 -27 -18.5 -45.5t-44.5 -18.5t-44.5 18.5zM218 489.5q-19 18.5 -19 45.5q0 26 19 44t45 18t44 -18t18 -44q0 -27 -18 -45.5t-44 -18.5t-45 18.5z" />
    <glyph glyph-name="uniFB8B" unicode="&#x698;" horiz-adv-x="417" arabic-form="final" 
d="M437 67l-20 -67q-35 0 -56.5 7t-35.5 26q-10 -108 -87 -178.5t-221 -111.5l-53 143q139 40 202 94t63 115q0 38 -22.5 95.5t-64.5 140.5l138 47q31 -86 39 -113q21 -67 44.5 -91t65.5 -24zM138.5 617q-17.5 18 -17.5 43t17.5 42t41.5 17t41.5 -17t17.5 -42t-17.5 -43
t-41.5 -18t-41.5 18zM48 483q-18 17 -18 42t18 43t44 18q24 0 41.5 -18t17.5 -43t-17.5 -42t-41.5 -17q-26 0 -44 17zM226.5 483q-17.5 17 -17.5 42t17.5 43t41.5 18q26 0 44 -18t18 -43t-18 -42t-44 -17q-24 0 -41.5 17z" />
    <glyph glyph-name="uni0699.fina" unicode="&#x699;" horiz-adv-x="417" 
d="M437 67l-20 -67q-35 0 -56.5 7t-35.5 26q-10 -108 -87 -178.5t-221 -111.5l-53 143q139 40 202 94t63 115q0 38 -22.5 95.5t-64.5 140.5l138 47q31 -86 39 -113q21 -67 44.5 -91t65.5 -24zM67 608.5q-17 16.5 -17 39.5q0 24 17 40.5t41 16.5t40 -16t16 -41
q0 -23 -16.5 -39.5t-39.5 -16.5q-24 0 -41 16.5zM213.5 608.5q-16.5 16.5 -16.5 39.5q0 25 16.5 41t39.5 16q24 0 41 -16.5t17 -40.5q0 -23 -17 -39.5t-41 -16.5q-23 0 -39.5 16.5zM67 468.5q-17 16.5 -17 39.5q0 24 17 41t41 17q23 0 39.5 -17t16.5 -41q0 -23 -16.5 -39.5
t-39.5 -16.5q-24 0 -41 16.5zM213.5 468.5q-16.5 16.5 -16.5 39.5q0 24 16.5 41t39.5 17q24 0 41 -17t17 -41q0 -23 -17 -39.5t-41 -16.5q-23 0 -39.5 16.5z" />
    <glyph glyph-name="uniFC5C" unicode="&#xfc5c;" horiz-adv-x="378" arabic-form="isolated" 
d="M-36 -114q133 46 190 96.5t57 112.5q0 41 -20 97.5t-62 136.5l145 49q25 -63 40 -134t15 -140q0 -134 -78.5 -222t-230.5 -139zM214 634v-189h-78v180z" />
    <glyph glyph-name="uniFEB2" unicode="&#x633;" horiz-adv-x="1296" arabic-form="final" 
d="M1316 69l-20 -69q-47 0 -83.5 17t-58.5 46q-45 -63 -141 -63t-141 68q-25 -37 -61 -52.5t-84 -15.5h-1q-52 0 -85 27q-5 -112 -46 -175t-110.5 -87.5t-171.5 -24.5h-1q-138 0 -205.5 67.5t-67.5 192.5q0 59 16.5 112.5t38.5 94.5l95 -28q-28 -72 -28 -154
q0 -64 39.5 -99.5t124.5 -35.5q105 0 150.5 36.5t45.5 120.5q0 58 -16 115.5t-48 123.5l134 54q16 -52 37 -106q14 -36 30 -54t34.5 -24t46.5 -6q31 0 49 22t18 67v99h121v-99q0 -47 18.5 -68t56.5 -21q69 0 69 69v156h121v-148q0 -46 27 -61.5t89 -15.5z" />
    <glyph glyph-name="uniFEB4" unicode="&#x633;" horiz-adv-x="869" arabic-form="medial" 
d="M889 69l-20 -69q-47 0 -83.5 17t-58.5 46q-46 -63 -141 -63q-96 0 -141 68q-47 -68 -134 -68q-42 0 -78 16t-57 52q-30 -38 -73.5 -53t-102.5 -15l-20 68l33 82q51 0 77 14t26 54v120h120v-103q0 -50 20 -67.5t55 -17.5q32 0 50 22t18 67v99h121v-99q0 -47 18 -68t57 -21
q69 0 69 69v150h121v-142q0 -46 27 -61.5t89 -15.5z" />
    <glyph glyph-name="uniFEB3" unicode="&#x633;" horiz-adv-x="821" arabic-form="initial" 
d="M773 214q0 -110 -49.5 -162t-127.5 -52q-94 0 -141 68q-47 -68 -134 -68q-42 0 -77.5 16t-56.5 52q-31 -38 -76.5 -53t-110.5 -15l-20 68l32 82q60 0 87 14t27 54v120h121v-103q0 -50 20 -67.5t55 -17.5q32 0 50 22t18 67v99h120v-99q0 -47 18.5 -68t57.5 -21
q32 0 47 17.5t15 54.5q0 69 -40 167l123 40q42 -117 42 -215z" />
    <glyph glyph-name="uni069A.init" unicode="&#x69a;" horiz-adv-x="821" 
d="M773 214q0 -110 -49.5 -162t-127.5 -52q-94 0 -141 68q-47 -68 -134 -68q-42 0 -77.5 16t-56.5 52q-31 -38 -76.5 -53t-110.5 -15l-20 68l32 82q60 0 87 14t27 54v120h121v-103q0 -50 20 -67.5t55 -17.5q32 0 50 22t18 67v99h120v-99q0 -47 18.5 -68t57.5 -21
q32 0 47 17.5t15 54.5q0 69 -40 167l123 40q42 -117 42 -215zM406 -200q-20 20 -20 49q0 28 20.5 48.5t48.5 20.5q29 0 49 -20.5t20 -48.5q0 -29 -20 -49t-49 -20t-49 20zM381 431q-20 20 -20 49q0 28 20.5 48.5t48.5 20.5q29 0 49 -20.5t20 -48.5q0 -29 -20 -49t-49 -20
t-49 20z" />
    <glyph glyph-name="uni069A.medi" unicode="&#x69a;" horiz-adv-x="869" 
d="M889 69l-20 -69q-47 0 -83.5 17t-58.5 46q-46 -63 -141 -63q-96 0 -141 68q-47 -68 -134 -68q-42 0 -78 16t-57 52q-30 -38 -73.5 -53t-102.5 -15l-20 68l33 82q51 0 77 14t26 54v120h120v-103q0 -50 20 -67.5t55 -17.5q32 0 50 22t18 67v99h121v-99q0 -47 18 -68t57 -21
q69 0 69 69v150h121v-142q0 -46 27 -61.5t89 -15.5zM393 -200q-20 20 -20 49q0 28 20.5 48.5t48.5 20.5q29 0 49 -20.5t20 -48.5q0 -29 -20 -49t-49 -20t-49 20zM389 431q-20 20 -20 49q0 28 20.5 48.5t48.5 20.5q29 0 49 -20.5t20 -48.5q0 -29 -20 -49t-49 -20t-49 20z" />
    <glyph glyph-name="uni069A.fina" unicode="&#x69a;" horiz-adv-x="1296" 
d="M1316 69l-20 -69q-47 0 -83.5 17t-58.5 46q-45 -63 -141 -63t-141 68q-25 -37 -61 -52.5t-84 -15.5h-1q-52 0 -85 27q-5 -112 -46 -175t-110.5 -87.5t-171.5 -24.5h-1q-138 0 -205.5 67.5t-67.5 192.5q0 59 16.5 112.5t38.5 94.5l95 -28q-28 -72 -28 -154
q0 -64 39.5 -99.5t124.5 -35.5q105 0 150.5 36.5t45.5 120.5q0 58 -16 115.5t-48 123.5l134 54q16 -52 37 -106q14 -36 30 -54t34.5 -24t46.5 -6q31 0 49 22t18 67v99h121v-99q0 -47 18.5 -68t56.5 -21q69 0 69 69v156h121v-148q0 -46 27 -61.5t89 -15.5zM851 -200
q-20 20 -20 49q0 28 20.5 48.5t48.5 20.5q29 0 49 -20.5t20 -48.5q0 -29 -20 -49t-49 -20t-49 20zM816 431q-20 20 -20 49q0 28 20.5 48.5t48.5 20.5q29 0 49 -20.5t20 -48.5q0 -29 -20 -49t-49 -20t-49 20z" />
    <glyph glyph-name="uni069B.init" unicode="&#x69b;" horiz-adv-x="821" 
d="M773 214q0 -110 -49.5 -162t-127.5 -52q-94 0 -141 68q-47 -68 -134 -68q-42 0 -77.5 16t-56.5 52q-31 -38 -76.5 -53t-110.5 -15l-20 68l32 82q60 0 87 14t27 54v120h121v-103q0 -50 20 -67.5t55 -17.5q32 0 50 22t18 67v99h120v-99q0 -47 18.5 -68t57.5 -21
q32 0 47 17.5t15 54.5q0 69 -40 167l123 40q42 -117 42 -215zM408.5 -104.5q17.5 -17.5 17.5 -41.5q0 -26 -17.5 -43.5t-41.5 -17.5q-26 0 -44 17.5t-18 43.5q0 24 18.5 41.5t43.5 17.5q24 0 41.5 -17.5zM586.5 -104.5q18.5 -17.5 18.5 -41.5q0 -26 -18 -43.5t-44 -17.5
q-24 0 -41.5 17.5t-17.5 43.5q0 24 17.5 41.5t41.5 17.5q25 0 43.5 -17.5zM496.5 -239q17.5 -18 17.5 -43t-17.5 -42t-41.5 -17t-41.5 17t-17.5 42t17.5 43t41.5 18t41.5 -18z" />
    <glyph glyph-name="uni069B.medi" unicode="&#x69b;" horiz-adv-x="869" 
d="M889 69l-20 -69q-47 0 -83.5 17t-58.5 46q-46 -63 -141 -63q-96 0 -141 68q-47 -68 -134 -68q-42 0 -78 16t-57 52q-30 -38 -73.5 -53t-102.5 -15l-20 68l33 82q51 0 77 14t26 54v120h120v-103q0 -50 20 -67.5t55 -17.5q32 0 50 22t18 67v99h121v-99q0 -47 18 -68t57 -21
q69 0 69 69v150h121v-142q0 -46 27 -61.5t89 -15.5zM395.5 -104.5q17.5 -17.5 17.5 -41.5q0 -26 -17.5 -43.5t-41.5 -17.5q-26 0 -44 17.5t-18 43.5q0 24 18.5 41.5t43.5 17.5q24 0 41.5 -17.5zM573.5 -104.5q18.5 -17.5 18.5 -41.5q0 -26 -18 -43.5t-44 -17.5
q-24 0 -41.5 17.5t-17.5 43.5q0 24 17.5 41.5t41.5 17.5q25 0 43.5 -17.5zM483.5 -239q17.5 -18 17.5 -43t-17.5 -42t-41.5 -17t-41.5 17t-17.5 42t17.5 43t41.5 18t41.5 -18z" />
    <glyph glyph-name="uni069B.fina" unicode="&#x69b;" horiz-adv-x="1296" 
d="M1316 69l-20 -69q-47 0 -83.5 17t-58.5 46q-45 -63 -141 -63t-141 68q-25 -37 -61 -52.5t-84 -15.5h-1q-52 0 -85 27q-5 -112 -46 -175t-110.5 -87.5t-171.5 -24.5h-1q-138 0 -205.5 67.5t-67.5 192.5q0 59 16.5 112.5t38.5 94.5l95 -28q-28 -72 -28 -154
q0 -64 39.5 -99.5t124.5 -35.5q105 0 150.5 36.5t45.5 120.5q0 58 -16 115.5t-48 123.5l134 54q16 -52 37 -106q14 -36 30 -54t34.5 -24t46.5 -6q31 0 49 22t18 67v99h121v-99q0 -47 18.5 -68t56.5 -21q69 0 69 69v156h121v-148q0 -46 27 -61.5t89 -15.5zM853.5 -104.5
q17.5 -17.5 17.5 -41.5q0 -26 -17.5 -43.5t-41.5 -17.5q-26 0 -44 17.5t-18 43.5q0 24 18.5 41.5t43.5 17.5q24 0 41.5 -17.5zM1031.5 -104.5q18.5 -17.5 18.5 -41.5q0 -26 -18 -43.5t-44 -17.5q-24 0 -41.5 17.5t-17.5 43.5q0 24 17.5 41.5t41.5 17.5q25 0 43.5 -17.5z
M941.5 -239q17.5 -18 17.5 -43t-17.5 -42t-41.5 -17t-41.5 17t-17.5 42t17.5 43t41.5 18t41.5 -18z" />
    <glyph glyph-name="uniFEB6" unicode="&#x634;" horiz-adv-x="1296" arabic-form="final" 
d="M1316 69l-20 -69q-47 0 -83.5 17t-58.5 46q-45 -63 -141 -63t-141 68q-25 -37 -61 -52.5t-84 -15.5h-1q-52 0 -85 27q-5 -112 -46 -175t-110.5 -87.5t-171.5 -24.5h-1q-138 0 -205.5 67.5t-67.5 192.5q0 59 16.5 112.5t38.5 94.5l95 -28q-28 -72 -28 -154
q0 -64 39.5 -99.5t124.5 -35.5q105 0 150.5 36.5t45.5 120.5q0 58 -16 115.5t-48 123.5l134 54q16 -52 37 -106q14 -36 30 -54t34.5 -24t46.5 -6q31 0 49 22t18 67v99h121v-99q0 -47 18.5 -68t56.5 -21q69 0 69 69v156h121v-148q0 -46 27 -61.5t89 -15.5zM825.5 566
q-17.5 18 -17.5 43t17.5 42t41.5 17t41.5 -17t17.5 -42t-17.5 -43t-41.5 -18t-41.5 18zM735 432q-18 17 -18 42t18 43t44 18q24 0 41.5 -18t17.5 -43t-17.5 -42t-41.5 -17q-26 0 -44 17zM913.5 432q-17.5 17 -17.5 42t17.5 43t41.5 18q26 0 44 -18t18 -43t-18 -42t-44 -17
q-24 0 -41.5 17z" />
    <glyph glyph-name="uniFEB8" unicode="&#x634;" horiz-adv-x="869" arabic-form="medial" 
d="M889 69l-20 -69q-47 0 -83.5 17t-58.5 46q-46 -63 -141 -63q-96 0 -141 68q-47 -68 -134 -68q-42 0 -78 16t-57 52q-30 -38 -73.5 -53t-102.5 -15l-20 68l33 82q51 0 77 14t26 54v120h120v-103q0 -50 20 -67.5t55 -17.5q32 0 50 22t18 67v99h121v-99q0 -47 18 -68t57 -21
q69 0 69 69v150h121v-142q0 -46 27 -61.5t89 -15.5zM397.5 566q-17.5 18 -17.5 43t17.5 42t41.5 17t41.5 -17t17.5 -42t-17.5 -43t-41.5 -18t-41.5 18zM307 432q-18 17 -18 42t18 43t44 18q24 0 41.5 -18t17.5 -43t-17.5 -42t-41.5 -17q-26 0 -44 17zM485.5 432
q-17.5 17 -17.5 42t17.5 43t41.5 18q26 0 44 -18t18 -43t-18 -42t-44 -17q-24 0 -41.5 17z" />
    <glyph glyph-name="uniFEB7" unicode="&#x634;" horiz-adv-x="821" arabic-form="initial" 
d="M773 214q0 -110 -49.5 -162t-127.5 -52q-94 0 -141 68q-47 -68 -134 -68q-42 0 -77.5 16t-56.5 52q-31 -38 -76.5 -53t-110.5 -15l-20 68l32 82q60 0 87 14t27 54v120h121v-103q0 -50 20 -67.5t55 -17.5q32 0 50 22t18 67v99h120v-99q0 -47 18.5 -68t57.5 -21
q32 0 47 17.5t15 54.5q0 69 -40 167l123 40q42 -117 42 -215zM389.5 566q-17.5 18 -17.5 43t17.5 42t41.5 17t41.5 -17t17.5 -42t-17.5 -43t-41.5 -18t-41.5 18zM299 432q-18 17 -18 42t18 43t44 18q24 0 41.5 -18t17.5 -43t-17.5 -42t-41.5 -17q-26 0 -44 17zM477.5 432
q-17.5 17 -17.5 42t17.5 43t41.5 18q26 0 44 -18t18 -43t-18 -42t-44 -17q-24 0 -41.5 17z" />
    <glyph glyph-name="uni06FA.init" unicode="&#x6fa;" horiz-adv-x="821" 
d="M773 214q0 -110 -49.5 -162t-127.5 -52q-94 0 -141 68q-47 -68 -134 -68q-42 0 -77.5 16t-56.5 52q-31 -38 -76.5 -53t-110.5 -15l-20 68l32 82q60 0 87 14t27 54v120h121v-103q0 -50 20 -67.5t55 -17.5q32 0 50 22t18 67v99h120v-99q0 -47 18.5 -68t57.5 -21
q32 0 47 17.5t15 54.5q0 69 -40 167l123 40q42 -117 42 -215zM389.5 566q-17.5 18 -17.5 43t17.5 42t41.5 17t41.5 -17t17.5 -42t-17.5 -43t-41.5 -18t-41.5 18zM299 432q-18 17 -18 42t18 43t44 18q24 0 41.5 -18t17.5 -43t-17.5 -42t-41.5 -17q-26 0 -44 17zM477.5 432
q-17.5 17 -17.5 42t17.5 43t41.5 18q26 0 44 -18t18 -43t-18 -42t-44 -17q-24 0 -41.5 17zM406 -200q-20 20 -20 49q0 28 20.5 48.5t48.5 20.5q29 0 49 -20.5t20 -48.5q0 -29 -20 -49t-49 -20t-49 20z" />
    <glyph glyph-name="uni06FA.medi" unicode="&#x6fa;" horiz-adv-x="869" 
d="M889 69l-20 -69q-47 0 -83.5 17t-58.5 46q-46 -63 -141 -63q-96 0 -141 68q-47 -68 -134 -68q-42 0 -78 16t-57 52q-30 -38 -73.5 -53t-102.5 -15l-20 68l33 82q51 0 77 14t26 54v120h120v-103q0 -50 20 -67.5t55 -17.5q32 0 50 22t18 67v99h121v-99q0 -47 18 -68t57 -21
q69 0 69 69v150h121v-142q0 -46 27 -61.5t89 -15.5zM397.5 566q-17.5 18 -17.5 43t17.5 42t41.5 17t41.5 -17t17.5 -42t-17.5 -43t-41.5 -18t-41.5 18zM307 432q-18 17 -18 42t18 43t44 18q24 0 41.5 -18t17.5 -43t-17.5 -42t-41.5 -17q-26 0 -44 17zM485.5 432
q-17.5 17 -17.5 42t17.5 43t41.5 18q26 0 44 -18t18 -43t-18 -42t-44 -17q-24 0 -41.5 17zM393 -200q-20 20 -20 49q0 28 20.5 48.5t48.5 20.5q29 0 49 -20.5t20 -48.5q0 -29 -20 -49t-49 -20t-49 20z" />
    <glyph glyph-name="uni06FA.fina" unicode="&#x6fa;" horiz-adv-x="1296" 
d="M1316 69l-20 -69q-47 0 -83.5 17t-58.5 46q-45 -63 -141 -63t-141 68q-25 -37 -61 -52.5t-84 -15.5h-1q-52 0 -85 27q-5 -112 -46 -175t-110.5 -87.5t-171.5 -24.5h-1q-138 0 -205.5 67.5t-67.5 192.5q0 59 16.5 112.5t38.5 94.5l95 -28q-28 -72 -28 -154
q0 -64 39.5 -99.5t124.5 -35.5q105 0 150.5 36.5t45.5 120.5q0 58 -16 115.5t-48 123.5l134 54q16 -52 37 -106q14 -36 30 -54t34.5 -24t46.5 -6q31 0 49 22t18 67v99h121v-99q0 -47 18.5 -68t56.5 -21q69 0 69 69v156h121v-148q0 -46 27 -61.5t89 -15.5zM825.5 566
q-17.5 18 -17.5 43t17.5 42t41.5 17t41.5 -17t17.5 -42t-17.5 -43t-41.5 -18t-41.5 18zM735 432q-18 17 -18 42t18 43t44 18q24 0 41.5 -18t17.5 -43t-17.5 -42t-41.5 -17q-26 0 -44 17zM913.5 432q-17.5 17 -17.5 42t17.5 43t41.5 18q26 0 44 -18t18 -43t-18 -42t-44 -17
q-24 0 -41.5 17zM851 -200q-20 20 -20 49q0 28 20.5 48.5t48.5 20.5q29 0 49 -20.5t20 -48.5q0 -29 -20 -49t-49 -20t-49 20z" />
    <glyph glyph-name="uni069C.init" unicode="&#x69c;" horiz-adv-x="821" 
d="M773 214q0 -110 -49.5 -162t-127.5 -52q-94 0 -141 68q-47 -68 -134 -68q-42 0 -77.5 16t-56.5 52q-31 -38 -76.5 -53t-110.5 -15l-20 68l32 82q60 0 87 14t27 54v120h121v-103q0 -50 20 -67.5t55 -17.5q32 0 50 22t18 67v99h120v-99q0 -47 18.5 -68t57.5 -21
q32 0 47 17.5t15 54.5q0 69 -40 167l123 40q42 -117 42 -215zM389.5 566q-17.5 18 -17.5 43t17.5 42t41.5 17t41.5 -17t17.5 -42t-17.5 -43t-41.5 -18t-41.5 18zM299 432q-18 17 -18 42t18 43t44 18q24 0 41.5 -18t17.5 -43t-17.5 -42t-41.5 -17q-26 0 -44 17zM477.5 432
q-17.5 17 -17.5 42t17.5 43t41.5 18q26 0 44 -18t18 -43t-18 -42t-44 -17q-24 0 -41.5 17zM408.5 -104.5q17.5 -17.5 17.5 -41.5q0 -26 -17.5 -43.5t-41.5 -17.5q-26 0 -44 17.5t-18 43.5q0 24 18.5 41.5t43.5 17.5q24 0 41.5 -17.5zM586.5 -104.5q18.5 -17.5 18.5 -41.5
q0 -26 -18 -43.5t-44 -17.5q-24 0 -41.5 17.5t-17.5 43.5q0 24 17.5 41.5t41.5 17.5q25 0 43.5 -17.5zM496.5 -239q17.5 -18 17.5 -43t-17.5 -42t-41.5 -17t-41.5 17t-17.5 42t17.5 43t41.5 18t41.5 -18z" />
    <glyph glyph-name="uni069C.medi" unicode="&#x69c;" horiz-adv-x="869" 
d="M889 69l-20 -69q-47 0 -83.5 17t-58.5 46q-46 -63 -141 -63q-96 0 -141 68q-47 -68 -134 -68q-42 0 -78 16t-57 52q-30 -38 -73.5 -53t-102.5 -15l-20 68l33 82q51 0 77 14t26 54v120h120v-103q0 -50 20 -67.5t55 -17.5q32 0 50 22t18 67v99h121v-99q0 -47 18 -68t57 -21
q69 0 69 69v150h121v-142q0 -46 27 -61.5t89 -15.5zM397.5 566q-17.5 18 -17.5 43t17.5 42t41.5 17t41.5 -17t17.5 -42t-17.5 -43t-41.5 -18t-41.5 18zM307 432q-18 17 -18 42t18 43t44 18q24 0 41.5 -18t17.5 -43t-17.5 -42t-41.5 -17q-26 0 -44 17zM485.5 432
q-17.5 17 -17.5 42t17.5 43t41.5 18q26 0 44 -18t18 -43t-18 -42t-44 -17q-24 0 -41.5 17zM395.5 -104.5q17.5 -17.5 17.5 -41.5q0 -26 -17.5 -43.5t-41.5 -17.5q-26 0 -44 17.5t-18 43.5q0 24 18.5 41.5t43.5 17.5q24 0 41.5 -17.5zM573.5 -104.5q18.5 -17.5 18.5 -41.5
q0 -26 -18 -43.5t-44 -17.5q-24 0 -41.5 17.5t-17.5 43.5q0 24 17.5 41.5t41.5 17.5q25 0 43.5 -17.5zM483.5 -239q17.5 -18 17.5 -43t-17.5 -42t-41.5 -17t-41.5 17t-17.5 42t17.5 43t41.5 18t41.5 -18z" />
    <glyph glyph-name="uni069C.fina" unicode="&#x69c;" horiz-adv-x="1296" 
d="M1316 69l-20 -69q-47 0 -83.5 17t-58.5 46q-45 -63 -141 -63t-141 68q-25 -37 -61 -52.5t-84 -15.5h-1q-52 0 -85 27q-5 -112 -46 -175t-110.5 -87.5t-171.5 -24.5h-1q-138 0 -205.5 67.5t-67.5 192.5q0 59 16.5 112.5t38.5 94.5l95 -28q-28 -72 -28 -154
q0 -64 39.5 -99.5t124.5 -35.5q105 0 150.5 36.5t45.5 120.5q0 58 -16 115.5t-48 123.5l134 54q16 -52 37 -106q14 -36 30 -54t34.5 -24t46.5 -6q31 0 49 22t18 67v99h121v-99q0 -47 18.5 -68t56.5 -21q69 0 69 69v156h121v-148q0 -46 27 -61.5t89 -15.5zM825.5 566
q-17.5 18 -17.5 43t17.5 42t41.5 17t41.5 -17t17.5 -42t-17.5 -43t-41.5 -18t-41.5 18zM735 432q-18 17 -18 42t18 43t44 18q24 0 41.5 -18t17.5 -43t-17.5 -42t-41.5 -17q-26 0 -44 17zM913.5 432q-17.5 17 -17.5 42t17.5 43t41.5 18q26 0 44 -18t18 -43t-18 -42t-44 -17
q-24 0 -41.5 17zM853.5 -104.5q17.5 -17.5 17.5 -41.5q0 -26 -17.5 -43.5t-41.5 -17.5q-26 0 -44 17.5t-18 43.5q0 24 18.5 41.5t43.5 17.5q24 0 41.5 -17.5zM1031.5 -104.5q18.5 -17.5 18.5 -41.5q0 -26 -18 -43.5t-44 -17.5q-24 0 -41.5 17.5t-17.5 43.5q0 24 17.5 41.5
t41.5 17.5q25 0 43.5 -17.5zM941.5 -239q17.5 -18 17.5 -43t-17.5 -42t-41.5 -17t-41.5 17t-17.5 42t17.5 43t41.5 18t41.5 -18z" />
    <glyph glyph-name="uniFEBA" unicode="&#x635;" horiz-adv-x="1352" arabic-form="final" 
d="M1372 65l-20 -65q-40 0 -74.5 17.5t-59.5 46.5q-42 -38 -119.5 -51t-214.5 -13h-157q-53 0 -86 27q-5 -112 -46 -175t-110.5 -87.5t-171.5 -24.5h-1q-138 0 -205.5 67.5t-67.5 192.5q0 59 16.5 112.5t38.5 94.5l95 -28q-28 -72 -28 -154q0 -64 39.5 -99.5t124.5 -35.5
q105 0 150.5 36.5t45.5 120.5q0 58 -16 115.5t-48 123.5l134 54q16 -52 37 -106q14 -37 30.5 -55t37.5 -24q60 157 158 238.5t211 81.5q56 0 104 -25.5t77.5 -79.5t29.5 -135q0 -30 -3 -56q19 -16 40.5 -22.5t50.5 -6.5zM1067 157.5q55 7.5 77.5 27t22.5 58.5q0 54 -28 72
t-76 18q-66 0 -130 -39.5t-128 -143.5h98q109 0 164 7.5z" />
    <glyph glyph-name="uniFEBC" unicode="&#x635;" horiz-adv-x="947" arabic-form="medial" 
d="M967 65l-20 -65q-40 0 -74.5 17.5t-58.5 46.5q-42 -38 -119.5 -51t-214.5 -13h-158q-57 0 -96 14.5t-65 50.5q-25 -36 -62.5 -50.5t-98.5 -14.5l-20 67l33 83q43 0 61 7t23 23.5t5 55.5v161h121v-159q0 -46 13 -64t55 -22q60 159 158 241t211 82q57 0 105 -25.5
t77.5 -79.5t29.5 -135q0 -30 -3 -56q19 -16 40.5 -22.5t50.5 -6.5zM663 157.5q55 7.5 77.5 27t22.5 58.5q0 54 -28.5 72t-75.5 18q-66 0 -130.5 -39.5t-127.5 -143.5h98q109 0 164 7.5z" />
    <glyph glyph-name="uniFEBB" unicode="&#x635;" horiz-adv-x="921" arabic-form="initial" 
d="M765 449.5q48 -25.5 77.5 -79.5t29.5 -135q0 -102 -40 -152t-121 -66.5t-231 -16.5h-158q-57 0 -96 14.5t-65 50.5q-25 -36 -62.5 -50.5t-98.5 -14.5l-20 67l33 83q43 0 61 7t23 23.5t5 55.5v161h121v-159q0 -46 13 -64t55 -22q60 159 158 241t211 82q57 0 105 -25.5z
M663 157.5q55 7.5 77.5 27t22.5 58.5q0 54 -28.5 72t-75.5 18q-66 0 -130.5 -39.5t-127.5 -143.5h98q109 0 164 7.5z" />
    <glyph glyph-name="uni069D.init" unicode="&#x69d;" horiz-adv-x="921" 
d="M765 449.5q48 -25.5 77.5 -79.5t29.5 -135q0 -102 -40 -152t-121 -66.5t-231 -16.5h-158q-57 0 -96 14.5t-65 50.5q-25 -36 -62.5 -50.5t-98.5 -14.5l-20 67l33 83q43 0 61 7t23 23.5t5 55.5v161h121v-159q0 -46 13 -64t55 -22q60 159 158 241t211 82q57 0 105 -25.5z
M663 157.5q55 7.5 77.5 27t22.5 58.5q0 54 -28.5 72t-75.5 18q-66 0 -130.5 -39.5t-127.5 -143.5h98q109 0 164 7.5zM33.5 -187.5q-18.5 18.5 -18.5 44.5t18.5 44.5t44.5 18.5t44.5 -18.5t18.5 -44.5t-18.5 -44.5t-44.5 -18.5t-44.5 18.5zM199 -187.5q-19 18.5 -19 44.5
t19 44.5t45 18.5t44 -18.5t18 -44.5t-18 -44.5t-44 -18.5t-45 18.5z" />
    <glyph glyph-name="uni069D.medi" unicode="&#x69d;" horiz-adv-x="947" 
d="M967 65l-20 -65q-40 0 -74.5 17.5t-58.5 46.5q-42 -38 -119.5 -51t-214.5 -13h-158q-57 0 -96 14.5t-65 50.5q-25 -36 -62.5 -50.5t-98.5 -14.5l-20 67l33 83q43 0 61 7t23 23.5t5 55.5v161h121v-159q0 -46 13 -64t55 -22q60 159 158 241t211 82q57 0 105 -25.5
t77.5 -79.5t29.5 -135q0 -30 -3 -56q19 -16 40.5 -22.5t50.5 -6.5zM663 157.5q55 7.5 77.5 27t22.5 58.5q0 54 -28.5 72t-75.5 18q-66 0 -130.5 -39.5t-127.5 -143.5h98q109 0 164 7.5zM33.5 -187.5q-18.5 18.5 -18.5 44.5t18.5 44.5t44.5 18.5t44.5 -18.5t18.5 -44.5
t-18.5 -44.5t-44.5 -18.5t-44.5 18.5zM199 -187.5q-19 18.5 -19 44.5t19 44.5t45 18.5t44 -18.5t18 -44.5t-18 -44.5t-44 -18.5t-45 18.5z" />
    <glyph glyph-name="uni069D.fina" unicode="&#x69d;" horiz-adv-x="1352" 
d="M1372 65l-20 -65q-40 0 -74.5 17.5t-59.5 46.5q-42 -38 -119.5 -51t-214.5 -13h-157q-53 0 -86 27q-5 -112 -46 -175t-110.5 -87.5t-171.5 -24.5h-1q-138 0 -205.5 67.5t-67.5 192.5q0 59 16.5 112.5t38.5 94.5l95 -28q-28 -72 -28 -154q0 -64 39.5 -99.5t124.5 -35.5
q105 0 150.5 36.5t45.5 120.5q0 58 -16 115.5t-48 123.5l134 54q16 -52 37 -106q14 -37 30.5 -55t37.5 -24q60 157 158 238.5t211 81.5q56 0 104 -25.5t77.5 -79.5t29.5 -135q0 -30 -3 -56q19 -16 40.5 -22.5t50.5 -6.5zM1067 157.5q55 7.5 77.5 27t22.5 58.5q0 54 -28 72
t-76 18q-66 0 -130 -39.5t-128 -143.5h98q109 0 164 7.5zM195.5 -434.5q-18.5 18.5 -18.5 44.5t18.5 44.5t44.5 18.5t44.5 -18.5t18.5 -44.5t-18.5 -44.5t-44.5 -18.5t-44.5 18.5zM361 -434.5q-19 18.5 -19 44.5t19 44.5t45 18.5t44 -18.5t18 -44.5t-18 -44.5t-44 -18.5
t-45 18.5z" />
    <glyph glyph-name="uni069E.init" unicode="&#x69e;" horiz-adv-x="921" 
d="M583.5 685q-17.5 18 -17.5 43t17.5 42t41.5 17t42 -17.5t18 -41.5q0 -25 -18 -43t-42 -18t-41.5 18zM493.5 551q-17.5 17 -17.5 42q0 26 18 43.5t43 17.5q24 0 41.5 -18t17.5 -43t-17.5 -42t-41.5 -17q-26 0 -43.5 17zM672.5 636q17.5 18 41.5 18q26 0 43.5 -17.5
t17.5 -43.5q0 -25 -17.5 -42t-43.5 -17q-24 0 -41.5 17t-17.5 42t17.5 43zM765 449.5q48 -25.5 77.5 -79.5t29.5 -135q0 -102 -40 -152t-121 -66.5t-231 -16.5h-158q-57 0 -96 14.5t-65 50.5q-25 -36 -62.5 -50.5t-98.5 -14.5l-20 67l33 83q43 0 61 7t23 23.5t5 55.5v161
h121v-159q0 -46 13 -64t55 -22q60 159 158 241t211 82q57 0 105 -25.5zM663 157.5q55 7.5 77.5 27t22.5 58.5q0 54 -28.5 72t-75.5 18q-66 0 -130.5 -39.5t-127.5 -143.5h98q109 0 164 7.5z" />
    <glyph glyph-name="uni069E.medi" unicode="&#x69e;" horiz-adv-x="947" 
d="M583.5 685q-17.5 18 -17.5 43t17.5 42t41.5 17t42 -17.5t18 -41.5q0 -25 -18 -43t-42 -18t-41.5 18zM493.5 551q-17.5 17 -17.5 42q0 26 18 43.5t43 17.5q24 0 41.5 -18t17.5 -43t-17.5 -42t-41.5 -17q-26 0 -43.5 17zM672.5 636q17.5 18 41.5 18q26 0 43.5 -17.5
t17.5 -43.5q0 -25 -17.5 -42t-43.5 -17q-24 0 -41.5 17t-17.5 42t17.5 43zM967 65l-20 -65q-40 0 -74.5 17.5t-58.5 46.5q-42 -38 -119.5 -51t-214.5 -13h-158q-57 0 -96 14.5t-65 50.5q-25 -36 -62.5 -50.5t-98.5 -14.5l-20 67l33 83q43 0 61 7t23 23.5t5 55.5v161h121
v-159q0 -46 13 -64t55 -22q60 159 158 241t211 82q57 0 105 -25.5t77.5 -79.5t29.5 -135q0 -30 -3 -56q19 -16 40.5 -22.5t50.5 -6.5zM663 157.5q55 7.5 77.5 27t22.5 58.5q0 54 -28.5 72t-75.5 18q-66 0 -130.5 -39.5t-127.5 -143.5h98q109 0 164 7.5z" />
    <glyph glyph-name="uni069E.fina" unicode="&#x69e;" horiz-adv-x="1352" 
d="M988.5 685q-17.5 18 -17.5 43t17.5 42t41.5 17t41.5 -17t17.5 -42t-17.5 -43t-41.5 -18t-41.5 18zM897.5 551q-17.5 17 -17.5 42q0 26 18 43.5t43 17.5q24 0 41.5 -18t17.5 -43t-17.5 -42t-41.5 -17q-26 0 -43.5 17zM1076.5 636q17.5 18 41.5 18q26 0 43.5 -17.5
t17.5 -43.5q0 -25 -17.5 -42t-43.5 -17q-24 0 -41.5 17t-17.5 42t17.5 43zM1372 65l-20 -65q-40 0 -74.5 17.5t-59.5 46.5q-42 -38 -119.5 -51t-214.5 -13h-157q-53 0 -86 27q-5 -112 -46 -175t-110.5 -87.5t-171.5 -24.5h-1q-138 0 -205.5 67.5t-67.5 192.5
q0 59 16.5 112.5t38.5 94.5l95 -28q-28 -72 -28 -154q0 -64 39.5 -99.5t124.5 -35.5q105 0 150.5 36.5t45.5 120.5q0 58 -16 115.5t-48 123.5l134 54q16 -52 37 -106q14 -37 30.5 -55t37.5 -24q60 157 158 238.5t211 81.5q56 0 104 -25.5t77.5 -79.5t29.5 -135q0 -30 -3 -56
q19 -16 40.5 -22.5t50.5 -6.5zM1067 157.5q55 7.5 77.5 27t22.5 58.5q0 54 -28 72t-76 18q-66 0 -130 -39.5t-128 -143.5h98q109 0 164 7.5z" />
    <glyph glyph-name="uniFEBE" unicode="&#x636;" horiz-adv-x="1352" arabic-form="final" 
d="M980 550.5q-20 19.5 -20 48.5t20 49t49 20t48.5 -20t19.5 -49q0 -28 -19.5 -48t-48.5 -20t-49 19.5zM1372 65l-20 -65q-40 0 -74.5 17.5t-59.5 46.5q-42 -38 -119.5 -51t-214.5 -13h-157q-53 0 -86 27q-5 -112 -46 -175t-110.5 -87.5t-171.5 -24.5h-1q-138 0 -205.5 67.5
t-67.5 192.5q0 59 16.5 112.5t38.5 94.5l95 -28q-28 -72 -28 -154q0 -64 39.5 -99.5t124.5 -35.5q105 0 150.5 36.5t45.5 120.5q0 58 -16 115.5t-48 123.5l134 54q16 -52 37 -106q14 -37 30.5 -55t37.5 -24q60 157 158 238.5t211 81.5q56 0 104 -25.5t77.5 -79.5t29.5 -135
q0 -30 -3 -56q19 -16 40.5 -22.5t50.5 -6.5zM1067 157.5q55 7.5 77.5 27t22.5 58.5q0 54 -28 72t-76 18q-66 0 -130 -39.5t-128 -143.5h98q109 0 164 7.5z" />
    <glyph glyph-name="uniFEC0" unicode="&#x636;" horiz-adv-x="947" arabic-form="medial" 
d="M576 551q-20 20 -20 48q0 29 19.5 49t48.5 20t49 -20t20 -49t-20 -48.5t-49 -19.5q-28 0 -48 20zM967 65l-20 -65q-40 0 -74.5 17.5t-58.5 46.5q-42 -38 -119.5 -51t-214.5 -13h-158q-57 0 -96 14.5t-65 50.5q-25 -36 -62.5 -50.5t-98.5 -14.5l-20 67l33 83q43 0 61 7
t23 23.5t5 55.5v161h121v-159q0 -46 13 -64t55 -22q60 159 158 241t211 82q57 0 105 -25.5t77.5 -79.5t29.5 -135q0 -30 -3 -56q19 -16 40.5 -22.5t50.5 -6.5zM663 157.5q55 7.5 77.5 27t22.5 58.5q0 54 -28.5 72t-75.5 18q-66 0 -130.5 -39.5t-127.5 -143.5h98
q109 0 164 7.5z" />
    <glyph glyph-name="uniFEBF" unicode="&#x636;" horiz-adv-x="921" arabic-form="initial" 
d="M576 551q-20 20 -20 48q0 29 19.5 49t48.5 20t49 -20t20 -49t-20 -48.5t-49 -19.5q-28 0 -48 20zM765 449.5q48 -25.5 77.5 -79.5t29.5 -135q0 -102 -40 -152t-121 -66.5t-231 -16.5h-158q-57 0 -96 14.5t-65 50.5q-25 -36 -62.5 -50.5t-98.5 -14.5l-20 67l33 83
q43 0 61 7t23 23.5t5 55.5v161h121v-159q0 -46 13 -64t55 -22q60 159 158 241t211 82q57 0 105 -25.5zM663 157.5q55 7.5 77.5 27t22.5 58.5q0 54 -28.5 72t-75.5 18q-66 0 -130.5 -39.5t-127.5 -143.5h98q109 0 164 7.5z" />
    <glyph glyph-name="uni06FB.init" unicode="&#x6fb;" horiz-adv-x="921" 
d="M576 551q-20 20 -20 48q0 29 19.5 49t48.5 20t49 -20t20 -49t-20 -48.5t-49 -19.5q-28 0 -48 20zM765 449.5q48 -25.5 77.5 -79.5t29.5 -135q0 -102 -40 -152t-121 -66.5t-231 -16.5h-158q-57 0 -96 14.5t-65 50.5q-25 -36 -62.5 -50.5t-98.5 -14.5l-20 67l33 83
q43 0 61 7t23 23.5t5 55.5v161h121v-159q0 -46 13 -64t55 -22q60 159 158 241t211 82q57 0 105 -25.5zM663 157.5q55 7.5 77.5 27t22.5 58.5q0 54 -28.5 72t-75.5 18q-66 0 -130.5 -39.5t-127.5 -143.5h98q109 0 164 7.5zM542 -102.5q20 -20.5 20 -48.5q0 -29 -20 -49
t-49 -20t-49 20t-20 49t20 49t49 20t49 -20.5z" />
    <glyph glyph-name="uni06FB.medi" unicode="&#x6fb;" horiz-adv-x="947" 
d="M576 551q-20 20 -20 48q0 29 19.5 49t48.5 20t49 -20t20 -49t-20 -48.5t-49 -19.5q-28 0 -48 20zM967 65l-20 -65q-40 0 -74.5 17.5t-58.5 46.5q-42 -38 -119.5 -51t-214.5 -13h-158q-57 0 -96 14.5t-65 50.5q-25 -36 -62.5 -50.5t-98.5 -14.5l-20 67l33 83q43 0 61 7
t23 23.5t5 55.5v161h121v-159q0 -46 13 -64t55 -22q60 159 158 241t211 82q57 0 105 -25.5t77.5 -79.5t29.5 -135q0 -30 -3 -56q19 -16 40.5 -22.5t50.5 -6.5zM663 157.5q55 7.5 77.5 27t22.5 58.5q0 54 -28.5 72t-75.5 18q-66 0 -130.5 -39.5t-127.5 -143.5h98
q109 0 164 7.5zM542 -102.5q20 -20.5 20 -48.5q0 -29 -20 -49t-49 -20t-49 20t-20 49t20 49t49 20t49 -20.5z" />
    <glyph glyph-name="uni06FB.fina" unicode="&#x6fb;" horiz-adv-x="1352" 
d="M980 550.5q-20 19.5 -20 48.5t20 49t49 20t48.5 -20t19.5 -49q0 -28 -19.5 -48t-48.5 -20t-49 19.5zM1372 65l-20 -65q-40 0 -74.5 17.5t-59.5 46.5q-42 -38 -119.5 -51t-214.5 -13h-157q-53 0 -86 27q-5 -112 -46 -175t-110.5 -87.5t-171.5 -24.5h-1q-138 0 -205.5 67.5
t-67.5 192.5q0 59 16.5 112.5t38.5 94.5l95 -28q-28 -72 -28 -154q0 -64 39.5 -99.5t124.5 -35.5q105 0 150.5 36.5t45.5 120.5q0 58 -16 115.5t-48 123.5l134 54q16 -52 37 -106q14 -37 30.5 -55t37.5 -24q60 157 158 238.5t211 81.5q56 0 104 -25.5t77.5 -79.5t29.5 -135
q0 -30 -3 -56q19 -16 40.5 -22.5t50.5 -6.5zM1067 157.5q55 7.5 77.5 27t22.5 58.5q0 54 -28 72t-76 18q-66 0 -130 -39.5t-128 -143.5h98q109 0 164 7.5zM946 -102q20 -20 20 -49t-20 -49t-49 -20t-49 20t-20 49q0 28 20.5 48.5t48.5 20.5q29 0 49 -20z" />
    <glyph glyph-name="uniFEC2" unicode="&#x637;" horiz-adv-x="859" arabic-form="final" 
d="M879 65l-20 -65q-44 0 -81.5 21.5t-62.5 55.5q-40 -46 -120.5 -61.5t-226.5 -15.5h-344l28 150h101q8 17 26 49v564l121 15v-418q58 57 120.5 86t127.5 29q57 0 105 -25.5t77.5 -79.5t29.5 -135q0 -24 -1 -35q25 -29 50.5 -39.5t61.5 -10.5zM550 157.5q55 7.5 77.5 27
t22.5 58.5q0 54 -28 72t-75 18q-66 0 -131.5 -39.5t-131.5 -143.5h102q109 0 164 7.5z" />
    <glyph glyph-name="uniFEC4" unicode="&#x637;" horiz-adv-x="834" arabic-form="medial" 
d="M854 65l-20 -65q-45 0 -82 21.5t-61 56.5q-40 -47 -120.5 -62.5t-227.5 -15.5h-344v2l-19 64l32 84h117q14 29 25 48v565l122 15v-417q58 56 120.5 85t127.5 29q56 0 104 -25.5t77.5 -79.5t29.5 -135q0 -23 -1 -34q25 -30 50.5 -40.5t61.5 -10.5zM526 157.5
q55 7.5 77.5 27t22.5 58.5q0 54 -28.5 72t-75.5 18q-66 0 -131.5 -39.5t-131.5 -143.5h103q109 0 164 7.5z" />
    <glyph glyph-name="uniFEC3" unicode="&#x637;" horiz-adv-x="784" arabic-form="initial" 
d="M628 449.5q48 -25.5 77.5 -79.5t29.5 -135q0 -102 -40 -152t-121 -66.5t-231 -16.5h-344v2l-19 64l32 84h117q14 29 25 48v565l122 15v-417q58 56 120.5 85t127.5 29q56 0 104 -25.5zM526 157.5q55 7.5 77.5 27t22.5 58.5q0 54 -28.5 72t-75.5 18q-66 0 -131.5 -39.5
t-131.5 -143.5h103q109 0 164 7.5z" />
    <glyph glyph-name="uni069F.init" unicode="&#x69f;" horiz-adv-x="784" 
d="M628 449.5q48 -25.5 77.5 -79.5t29.5 -135q0 -102 -40 -152t-121 -66.5t-231 -16.5h-344v2l-19 64l32 84h117q14 29 25 48v565l122 15v-417q58 56 120.5 85t127.5 29q56 0 104 -25.5zM526 157.5q55 7.5 77.5 27t22.5 58.5q0 54 -28.5 72t-75.5 18q-66 0 -131.5 -39.5
t-131.5 -143.5h103q109 0 164 7.5zM453.5 685q-17.5 18 -17.5 43t17.5 42t41.5 17t41.5 -17t17.5 -42t-17.5 -43t-41.5 -18t-41.5 18zM363 551q-18 17 -18 42t18 43t44 18q24 0 41.5 -18t17.5 -43t-17.5 -42t-41.5 -17q-26 0 -44 17zM541.5 551q-17.5 17 -17.5 42t17.5 43
t41.5 18q26 0 44 -18t18 -43t-18 -42t-44 -17q-24 0 -41.5 17z" />
    <glyph glyph-name="uni069F.medi" unicode="&#x69f;" horiz-adv-x="834" 
d="M854 65l-20 -65q-45 0 -82 21.5t-61 56.5q-40 -47 -120.5 -62.5t-227.5 -15.5h-344v2l-19 64l32 84h117q14 29 25 48v565l122 15v-417q58 56 120.5 85t127.5 29q56 0 104 -25.5t77.5 -79.5t29.5 -135q0 -23 -1 -34q25 -30 50.5 -40.5t61.5 -10.5zM526 157.5
q55 7.5 77.5 27t22.5 58.5q0 54 -28.5 72t-75.5 18q-66 0 -131.5 -39.5t-131.5 -143.5h103q109 0 164 7.5zM453.5 685q-17.5 18 -17.5 43t17.5 42t41.5 17t41.5 -17t17.5 -42t-17.5 -43t-41.5 -18t-41.5 18zM363 551q-18 17 -18 42t18 43t44 18q24 0 41.5 -18t17.5 -43
t-17.5 -42t-41.5 -17q-26 0 -44 17zM541.5 551q-17.5 17 -17.5 42t17.5 43t41.5 18q26 0 44 -18t18 -43t-18 -42t-44 -17q-24 0 -41.5 17z" />
    <glyph glyph-name="uni069F.fina" unicode="&#x69f;" horiz-adv-x="859" 
d="M879 65l-20 -65q-44 0 -81.5 21.5t-62.5 55.5q-40 -46 -120.5 -61.5t-226.5 -15.5h-344l28 150h101q8 17 26 49v564l121 15v-418q58 57 120.5 86t127.5 29q57 0 105 -25.5t77.5 -79.5t29.5 -135q0 -24 -1 -35q25 -29 50.5 -39.5t61.5 -10.5zM550 157.5q55 7.5 77.5 27
t22.5 58.5q0 54 -28 72t-75 18q-66 0 -131.5 -39.5t-131.5 -143.5h102q109 0 164 7.5zM477.5 685q-17.5 18 -17.5 43t17.5 42t41.5 17t41.5 -17t17.5 -42t-17.5 -43t-41.5 -18t-41.5 18zM387 551q-18 17 -18 42t18 43t44 18q24 0 41.5 -18t17.5 -43t-17.5 -42t-41.5 -17
q-26 0 -44 17zM565.5 551q-17.5 17 -17.5 42t17.5 43t41.5 18q26 0 44 -18t18 -43t-18 -42t-44 -17q-24 0 -41.5 17z" />
    <glyph glyph-name="uniFEC6" unicode="&#x638;" horiz-adv-x="859" arabic-form="final" 
d="M879 65l-20 -65q-44 0 -81.5 21.5t-62.5 55.5q-40 -46 -120.5 -61.5t-226.5 -15.5h-344l28 150h101q8 17 26 49v564l121 15v-418q58 57 120.5 86t127.5 29q57 0 105 -25.5t77.5 -79.5t29.5 -135q0 -24 -1 -35q25 -29 50.5 -39.5t61.5 -10.5zM550 157.5q55 7.5 77.5 27
t22.5 58.5q0 54 -28 72t-75 18q-66 0 -131.5 -39.5t-131.5 -143.5h102q109 0 164 7.5zM469 550q-20 20 -20 49q0 28 20.5 48.5t48.5 20.5q29 0 49 -20.5t20 -48.5q0 -29 -20 -49t-49 -20t-49 20z" />
    <glyph glyph-name="uniFEC8" unicode="&#x638;" horiz-adv-x="834" arabic-form="medial" 
d="M854 65l-20 -65q-45 0 -82 21.5t-61 56.5q-40 -47 -120.5 -62.5t-227.5 -15.5h-344v2l-19 64l32 84h117q14 29 25 48v565l122 15v-417q58 56 120.5 85t127.5 29q56 0 104 -25.5t77.5 -79.5t29.5 -135q0 -23 -1 -34q25 -30 50.5 -40.5t61.5 -10.5zM526 157.5
q55 7.5 77.5 27t22.5 58.5q0 54 -28.5 72t-75.5 18q-66 0 -131.5 -39.5t-131.5 -143.5h103q109 0 164 7.5zM445 550q-20 20 -20 49q0 28 20.5 48.5t48.5 20.5q29 0 49 -20.5t20 -48.5q0 -29 -20 -49t-49 -20t-49 20z" />
    <glyph glyph-name="uniFEC7" unicode="&#x638;" horiz-adv-x="784" arabic-form="initial" 
d="M628 449.5q48 -25.5 77.5 -79.5t29.5 -135q0 -102 -40 -152t-121 -66.5t-231 -16.5h-344v2l-19 64l32 84h117q14 29 25 48v565l122 15v-417q58 56 120.5 85t127.5 29q56 0 104 -25.5zM526 157.5q55 7.5 77.5 27t22.5 58.5q0 54 -28.5 72t-75.5 18q-66 0 -131.5 -39.5
t-131.5 -143.5h103q109 0 164 7.5zM445 550q-20 20 -20 49q0 28 20.5 48.5t48.5 20.5q29 0 49 -20.5t20 -48.5q0 -29 -20 -49t-49 -20t-49 20z" />
    <glyph glyph-name="uniFECA" unicode="&#x639;" horiz-adv-x="586" arabic-form="final" 
d="M553 -175l52 -129q-46 -31 -115 -48.5t-156 -17.5q-106 0 -174.5 38.5t-99.5 98t-31 123.5q0 188 168 272q-36 37 -71 67.5t-88 65.5l17 138q48 16 108 27.5t123 11.5q113 0 169.5 -40.5t56.5 -113.5q0 -49 -23 -89t-70 -74q34 -5 127 -5h52l8 -82l-20 -68h-72
q-62 0 -119 19t-115 64q-74 -36 -108 -78t-34 -91q0 -60 50.5 -96.5t153.5 -36.5q126 0 211 44zM317 210q47 21 67.5 41t20.5 43t-26 34t-88 11q-58 0 -124 -15q70 -45 150 -114z" />
    <glyph glyph-name="uniFECC" unicode="&#x639;" horiz-adv-x="612" arabic-form="medial" 
d="M632 67l-20 -67h-47q-70 0 -126 15.5t-107 51.5q-132 -67 -282 -67h-51l-19 69l32 81h20q105 0 190 19q-33 34 -67.5 63t-84.5 62l17 138q47 17 107 28.5t122 11.5q113 0 169 -40.5t56 -113.5q0 -39 -21.5 -80.5t-61.5 -80.5q40 -7 126 -7h40zM348 211q41 20 63.5 42.5
t22.5 40.5q0 23 -25.5 34t-86.5 11q-57 0 -123 -15q59 -37 149 -113z" />
    <glyph glyph-name="uniFECB" unicode="&#x639;" horiz-adv-x="564" arabic-form="initial" 
d="M552 52q-127 -32 -215.5 -42t-183.5 -10h-153l-20 66l32 84h113h11q-35 35 -53.5 74t-18.5 76q0 49 28 93t82.5 71.5t129.5 27.5q37 0 81 -9.5t88 -31.5l-58 -136q-59 30 -112 30q-54 0 -81 -22t-27 -54q0 -61 77 -115q56 4 112 14.5t152 34.5z" />
    <glyph glyph-name="uni06A0.init" unicode="&#x6a0;" horiz-adv-x="564" 
d="M552 52q-127 -32 -215.5 -42t-183.5 -10h-153l-20 66l32 84h113h11q-35 35 -53.5 74t-18.5 76q0 49 28 93t82.5 71.5t129.5 27.5q37 0 81 -9.5t88 -31.5l-58 -136q-59 30 -112 30q-54 0 -81 -22t-27 -54q0 -61 77 -115q56 4 112 14.5t152 34.5zM262.5 715
q-17.5 18 -17.5 43t17.5 42t41.5 17t41.5 -17t17.5 -42t-17.5 -43t-41.5 -18t-41.5 18zM172 581q-18 17 -18 42t18 43t44 18q24 0 41.5 -18t17.5 -43t-17.5 -42t-41.5 -17q-26 0 -44 17zM350.5 581q-17.5 17 -17.5 42t17.5 43t41.5 18q26 0 44 -18t18 -43t-18 -42t-44 -17
q-24 0 -41.5 17z" />
    <glyph glyph-name="uni06A0.medi" unicode="&#x6a0;" horiz-adv-x="612" 
d="M632 67l-20 -67h-47q-70 0 -126 15.5t-107 51.5q-132 -67 -282 -67h-51l-19 69l32 81h20q105 0 190 19q-33 34 -67.5 63t-84.5 62l17 138q47 17 107 28.5t122 11.5q113 0 169 -40.5t56 -113.5q0 -39 -21.5 -80.5t-61.5 -80.5q40 -7 126 -7h40zM348 211q41 20 63.5 42.5
t22.5 40.5q0 23 -25.5 34t-86.5 11q-57 0 -123 -15q59 -37 149 -113zM272.5 699q-17.5 18 -17.5 43t17.5 42t41.5 17t41.5 -17t17.5 -42t-17.5 -43t-41.5 -18t-41.5 18zM182 565q-18 17 -18 42t18 43t44 18q24 0 41.5 -18t17.5 -43t-17.5 -42t-41.5 -17q-26 0 -44 17z
M360.5 565q-17.5 17 -17.5 42t17.5 43t41.5 18q26 0 44 -18t18 -43t-18 -42t-44 -17q-24 0 -41.5 17z" />
    <glyph glyph-name="uni06A0.fina" unicode="&#x6a0;" horiz-adv-x="586" 
d="M553 -175l52 -129q-46 -31 -115 -48.5t-156 -17.5q-106 0 -174.5 38.5t-99.5 98t-31 123.5q0 188 168 272q-36 37 -71 67.5t-88 65.5l17 138q48 16 108 27.5t123 11.5q113 0 169.5 -40.5t56.5 -113.5q0 -49 -23 -89t-70 -74q34 -5 127 -5h52l8 -82l-20 -68h-72
q-62 0 -119 19t-115 64q-74 -36 -108 -78t-34 -91q0 -60 50.5 -96.5t153.5 -36.5q126 0 211 44zM317 210q47 21 67.5 41t20.5 43t-26 34t-88 11q-58 0 -124 -15q70 -45 150 -114zM253.5 699q-17.5 18 -17.5 43t17.5 42t41.5 17t41.5 -17t17.5 -42t-17.5 -43t-41.5 -18
t-41.5 18zM163 565q-18 17 -18 42t18 43t44 18q24 0 41.5 -18t17.5 -43t-17.5 -42t-41.5 -17q-26 0 -44 17zM341.5 565q-17.5 17 -17.5 42t17.5 43t41.5 18q26 0 44 -18t18 -43t-18 -42t-44 -17q-24 0 -41.5 17z" />
    <glyph glyph-name="uniFECE" unicode="&#x63a;" horiz-adv-x="586" arabic-form="final" 
d="M553 -175l52 -129q-46 -31 -115 -48.5t-156 -17.5q-106 0 -174.5 38.5t-99.5 98t-31 123.5q0 188 168 272q-36 37 -71 67.5t-88 65.5l17 138q48 16 108 27.5t123 11.5q113 0 169.5 -40.5t56.5 -113.5q0 -49 -23 -89t-70 -74q34 -5 127 -5h52l8 -82l-20 -68h-72
q-62 0 -119 19t-115 64q-74 -36 -108 -78t-34 -91q0 -60 50.5 -96.5t153.5 -36.5q126 0 211 44zM317 210q47 21 67.5 41t20.5 43t-26 34t-88 11q-58 0 -124 -15q70 -45 150 -114zM245 564q-20 20 -20 49q0 28 20.5 48.5t48.5 20.5q29 0 49 -20.5t20 -48.5q0 -29 -20 -49
t-49 -20t-49 20z" />
    <glyph glyph-name="uniFED0" unicode="&#x63a;" horiz-adv-x="612" arabic-form="medial" 
d="M632 67l-20 -67h-47q-70 0 -126 15.5t-107 51.5q-132 -67 -282 -67h-51l-19 69l32 81h20q105 0 190 19q-33 34 -67.5 63t-84.5 62l17 138q47 17 107 28.5t122 11.5q113 0 169 -40.5t56 -113.5q0 -39 -21.5 -80.5t-61.5 -80.5q40 -7 126 -7h40zM348 211q41 20 63.5 42.5
t22.5 40.5q0 23 -25.5 34t-86.5 11q-57 0 -123 -15q59 -37 149 -113zM264 564q-20 20 -20 49q0 28 20.5 48.5t48.5 20.5q29 0 49 -20.5t20 -48.5q0 -29 -20 -49t-49 -20t-49 20z" />
    <glyph glyph-name="uniFECF" unicode="&#x63a;" horiz-adv-x="564" arabic-form="initial" 
d="M552 52q-127 -32 -215.5 -42t-183.5 -10h-153l-20 66l32 84h113h11q-35 35 -53.5 74t-18.5 76q0 49 28 93t82.5 71.5t129.5 27.5q37 0 81 -9.5t88 -31.5l-58 -136q-59 30 -112 30q-54 0 -81 -22t-27 -54q0 -61 77 -115q56 4 112 14.5t152 34.5zM254 580q-20 20 -20 49
q0 28 20.5 48.5t48.5 20.5q29 0 49 -20.5t20 -48.5q0 -29 -20 -49t-49 -20t-49 20z" />
    <glyph glyph-name="uni06FC.init" unicode="&#x6fc;" horiz-adv-x="564" 
d="M552 52q-127 -32 -215.5 -42t-183.5 -10h-153l-20 66l32 84h113h11q-35 35 -53.5 74t-18.5 76q0 49 28 93t82.5 71.5t129.5 27.5q37 0 81 -9.5t88 -31.5l-58 -136q-59 30 -112 30q-54 0 -81 -22t-27 -54q0 -61 77 -115q56 4 112 14.5t152 34.5zM254 580q-20 20 -20 49
q0 28 20.5 48.5t48.5 20.5q29 0 49 -20.5t20 -48.5q0 -29 -20 -49t-49 -20t-49 20zM211 -200q-20 20 -20 49q0 28 20.5 48.5t48.5 20.5q29 0 49 -20.5t20 -48.5q0 -29 -20 -49t-49 -20t-49 20z" />
    <glyph glyph-name="uni06FC.medi" unicode="&#x6fc;" horiz-adv-x="612" 
d="M632 67l-20 -67h-47q-70 0 -126 15.5t-107 51.5q-132 -67 -282 -67h-51l-19 69l32 81h20q105 0 190 19q-33 34 -67.5 63t-84.5 62l17 138q47 17 107 28.5t122 11.5q113 0 169 -40.5t56 -113.5q0 -39 -21.5 -80.5t-61.5 -80.5q40 -7 126 -7h40zM348 211q41 20 63.5 42.5
t22.5 40.5q0 23 -25.5 34t-86.5 11q-57 0 -123 -15q59 -37 149 -113zM264 564q-20 20 -20 49q0 28 20.5 48.5t48.5 20.5q29 0 49 -20.5t20 -48.5q0 -29 -20 -49t-49 -20t-49 20zM283 -200q-20 20 -20 49q0 28 20.5 48.5t48.5 20.5q29 0 49 -20.5t20 -48.5q0 -29 -20 -49
t-49 -20t-49 20z" />
    <glyph glyph-name="uni06FC.fina" unicode="&#x6fc;" horiz-adv-x="586" 
d="M553 -175l52 -129q-46 -31 -115 -48.5t-156 -17.5q-106 0 -174.5 38.5t-99.5 98t-31 123.5q0 188 168 272q-36 37 -71 67.5t-88 65.5l17 138q48 16 108 27.5t123 11.5q113 0 169.5 -40.5t56.5 -113.5q0 -49 -23 -89t-70 -74q34 -5 127 -5h52l8 -82l-20 -68h-72
q-62 0 -119 19t-115 64q-74 -36 -108 -78t-34 -91q0 -60 50.5 -96.5t153.5 -36.5q126 0 211 44zM317 210q47 21 67.5 41t20.5 43t-26 34t-88 11q-58 0 -124 -15q70 -45 150 -114zM245 564q-20 20 -20 49q0 28 20.5 48.5t48.5 20.5q29 0 49 -20.5t20 -48.5q0 -29 -20 -49
t-49 -20t-49 20zM269 -125q-20 20 -20 49q0 28 20.5 48.5t48.5 20.5q29 0 49 -20.5t20 -48.5q0 -29 -20 -49t-49 -20t-49 20z" />
    <glyph glyph-name="uniFED2" unicode="&#x641;" horiz-adv-x="978" arabic-form="final" 
d="M998 67l-20 -67h-56q-52 0 -107 13.5t-105 39.5q-117 -57 -285 -68l-1 -3q-34 0 -51 1q-12 -1 -38 -1l-1 2q-118 5 -181.5 28t-88.5 67t-25 119q0 40 10.5 83t28.5 80l94 -29q-16 -59 -16 -99q0 -38 19 -58.5t69.5 -31t149.5 -11.5q115 1 193 12q-67 75 -67 160
q0 57 26.5 104t71 74t95.5 27q57 0 101.5 -26t69 -72.5t24.5 -104.5q0 -38 -16 -78t-47 -77q17 -1 53 -1h91zM715 176q42 18 61.5 45.5t19.5 64.5q0 36 -23.5 60t-58.5 24q-36 0 -60 -25t-24 -61q0 -76 85 -108zM663 596q-20 20 -20 49q0 28 20.5 48.5t48.5 20.5
q29 0 49 -20.5t20 -48.5q0 -29 -20 -49t-49 -20t-49 20z" />
    <glyph glyph-name="uniFED4" unicode="&#x641;" horiz-adv-x="537" arabic-form="medial" 
d="M557 67l-20 -67h-80q-43 0 -91 13t-95 37q-97 -50 -207 -50h-64l-20 67l32 83h68q22 0 62 2q-63 76 -63 157q0 57 26.5 104t71 74t95.5 27q57 0 101.5 -26t69 -72.5t24.5 -104.5q0 -39 -17 -79.5t-49 -78.5q44 -3 93 -3h54zM276 178q79 33 79 109q0 36 -23.5 60t-58.5 24
q-36 0 -60 -24.5t-24 -60.5q0 -76 87 -108zM222 601q-20 20 -20 49q0 28 20.5 48.5t48.5 20.5q29 0 49 -20.5t20 -48.5q0 -29 -20 -49t-49 -20t-49 20z" />
    <glyph glyph-name="uniFED3" unicode="&#x641;" horiz-adv-x="477" arabic-form="initial" 
d="M324 571.5q47 -33.5 75.5 -102.5t28.5 -170q0 -123 -41.5 -187t-132 -88t-254.5 -24l-20 68l32 82q120 0 184 8.5t90 26t32 47.5q-39 -27 -109 -27q-80 0 -130.5 49t-50.5 133q0 62 26 112t70.5 78t96.5 28q56 0 103 -33.5zM161 343q26 -20 79 -20q39 0 76 13
q-15 138 -100 138q-36 0 -58.5 -20t-22.5 -53q0 -38 26 -58zM171 693q-20 20 -20 49q0 28 20.5 48.5t48.5 20.5q29 0 49 -20.5t20 -48.5q0 -29 -20 -49t-49 -20t-49 20z" />
    <glyph glyph-name="uniFB6B" unicode="&#x6a4;" horiz-adv-x="978" arabic-form="final" 
d="M998 67l-20 -67h-56q-52 0 -107 13.5t-105 39.5q-117 -57 -285 -68l-1 -3q-34 0 -51 1q-12 -1 -38 -1l-1 2q-118 5 -181.5 28t-88.5 67t-25 119q0 40 10.5 83t28.5 80l94 -29q-16 -59 -16 -99q0 -38 19 -58.5t69.5 -31t149.5 -11.5q115 1 193 12q-67 75 -67 160
q0 57 26.5 104t71 74t95.5 27q57 0 101.5 -26t69 -72.5t24.5 -104.5q0 -38 -16 -78t-47 -77q17 -1 53 -1h91zM715 176q42 18 61.5 45.5t19.5 64.5q0 36 -23.5 60t-58.5 24q-36 0 -60 -25t-24 -61q0 -76 85 -108zM671.5 731q-17.5 18 -17.5 43t17.5 42t41.5 17t41.5 -17
t17.5 -42t-17.5 -43t-41.5 -18t-41.5 18zM581 597q-18 17 -18 42t18 43t44 18q24 0 41.5 -18t17.5 -43t-17.5 -42t-41.5 -17q-26 0 -44 17zM759.5 597q-17.5 17 -17.5 42t17.5 43t41.5 18q26 0 44 -18t18 -43t-18 -42t-44 -17q-24 0 -41.5 17z" />
    <glyph glyph-name="uniFB6D" unicode="&#x6a4;" horiz-adv-x="537" arabic-form="medial" 
d="M557 67l-20 -67h-80q-43 0 -91 13t-95 37q-97 -50 -207 -50h-64l-20 67l32 83h68q22 0 62 2q-63 76 -63 157q0 57 26.5 104t71 74t95.5 27q57 0 101.5 -26t69 -72.5t24.5 -104.5q0 -39 -17 -79.5t-49 -78.5q44 -3 93 -3h54zM276 178q79 33 79 109q0 36 -23.5 60t-58.5 24
q-36 0 -60 -24.5t-24 -60.5q0 -76 87 -108zM230.5 736q-17.5 18 -17.5 43t17.5 42t41.5 17t41.5 -17t17.5 -42t-17.5 -43t-41.5 -18t-41.5 18zM140 602q-18 17 -18 42t18 43t44 18q24 0 41.5 -18t17.5 -43t-17.5 -42t-41.5 -17q-26 0 -44 17zM318.5 602q-17.5 17 -17.5 42
t17.5 43t41.5 18q26 0 44 -18t18 -43t-18 -42t-44 -17q-24 0 -41.5 17z" />
    <glyph glyph-name="uniFB6C" unicode="&#x6a4;" horiz-adv-x="477" arabic-form="initial" 
d="M324 571.5q47 -33.5 75.5 -102.5t28.5 -170q0 -123 -41.5 -187t-132 -88t-254.5 -24l-20 68l32 82q120 0 184 8.5t90 26t32 47.5q-39 -27 -109 -27q-80 0 -130.5 49t-50.5 133q0 62 26 112t70.5 78t96.5 28q56 0 103 -33.5zM161 343q26 -20 79 -20q39 0 76 13
q-15 138 -100 138q-36 0 -58.5 -20t-22.5 -53q0 -38 26 -58zM179.5 828q-17.5 18 -17.5 43t17.5 42t41.5 17t41.5 -17t17.5 -42t-17.5 -43t-41.5 -18t-41.5 18zM89 694q-18 17 -18 42t18 43t44 18q24 0 41.5 -18t17.5 -43t-17.5 -42t-41.5 -17q-26 0 -44 17zM267.5 694
q-17.5 17 -17.5 42t17.5 43t41.5 18q26 0 44 -18t18 -43t-18 -42t-44 -17q-24 0 -41.5 17z" />
    <glyph glyph-name="uni06A1.init" unicode="&#x6a1;" horiz-adv-x="477" 
d="M324 571.5q47 -33.5 75.5 -102.5t28.5 -170q0 -123 -41.5 -187t-132 -88t-254.5 -24l-20 68l32 82q120 0 184 8.5t90 26t32 47.5q-39 -27 -109 -27q-80 0 -130.5 49t-50.5 133q0 62 26 112t70.5 78t96.5 28q56 0 103 -33.5zM161 343q26 -20 79 -20q39 0 76 13
q-15 138 -100 138q-36 0 -58.5 -20t-22.5 -53q0 -38 26 -58z" />
    <glyph glyph-name="uni06A1.medi" unicode="&#x6a1;" horiz-adv-x="537" 
d="M557 67l-20 -67h-80q-43 0 -91 13t-95 37q-97 -50 -207 -50h-64l-20 67l32 83h68q22 0 62 2q-63 76 -63 157q0 57 26.5 104t71 74t95.5 27q57 0 101.5 -26t69 -72.5t24.5 -104.5q0 -39 -17 -79.5t-49 -78.5q44 -3 93 -3h54zM276 178q79 33 79 109q0 36 -23.5 60t-58.5 24
q-36 0 -60 -24.5t-24 -60.5q0 -76 87 -108z" />
    <glyph glyph-name="uni06A1.fina" unicode="&#x6a1;" horiz-adv-x="978" 
d="M998 67l-20 -67h-56q-52 0 -107 13.5t-105 39.5q-117 -57 -285 -68l-1 -3q-34 0 -51 1q-12 -1 -38 -1l-1 2q-118 5 -181.5 28t-88.5 67t-25 119q0 40 10.5 83t28.5 80l94 -29q-16 -59 -16 -99q0 -38 19 -58.5t69.5 -31t149.5 -11.5q115 1 193 12q-67 75 -67 160
q0 57 26.5 104t71 74t95.5 27q57 0 101.5 -26t69 -72.5t24.5 -104.5q0 -38 -16 -78t-47 -77q17 -1 53 -1h91zM715 176q42 18 61.5 45.5t19.5 64.5q0 36 -23.5 60t-58.5 24q-36 0 -60 -25t-24 -61q0 -76 85 -108z" />
    <glyph glyph-name="uni06A2.init" unicode="&#x6a2;" horiz-adv-x="477" 
d="M324 571.5q47 -33.5 75.5 -102.5t28.5 -170q0 -123 -41.5 -187t-132 -88t-254.5 -24l-20 68l32 82q120 0 184 8.5t90 26t32 47.5q-39 -27 -109 -27q-80 0 -130.5 49t-50.5 133q0 62 26 112t70.5 78t96.5 28q56 0 103 -33.5zM161 343q26 -20 79 -20q39 0 76 13
q-15 138 -100 138q-36 0 -58.5 -20t-22.5 -53q0 -38 26 -58zM162 -200q-20 20 -20 49q0 28 20.5 48.5t48.5 20.5q29 0 49 -20.5t20 -48.5q0 -29 -20 -49t-49 -20t-49 20z" />
    <glyph glyph-name="uni06A2.medi" unicode="&#x6a2;" horiz-adv-x="537" 
d="M557 67l-20 -67h-80q-43 0 -91 13t-95 37q-97 -50 -207 -50h-64l-20 67l32 83h68q22 0 62 2q-63 76 -63 157q0 57 26.5 104t71 74t95.5 27q57 0 101.5 -26t69 -72.5t24.5 -104.5q0 -39 -17 -79.5t-49 -78.5q44 -3 93 -3h54zM276 178q79 33 79 109q0 36 -23.5 60t-58.5 24
q-36 0 -60 -24.5t-24 -60.5q0 -76 87 -108zM224 -200q-20 20 -20 49q0 28 20.5 48.5t48.5 20.5q29 0 49 -20.5t20 -48.5q0 -29 -20 -49t-49 -20t-49 20z" />
    <glyph glyph-name="uni06A2.fina" unicode="&#x6a2;" horiz-adv-x="978" 
d="M998 67l-20 -67h-56q-52 0 -107 13.5t-105 39.5q-117 -57 -285 -68l-1 -3q-34 0 -51 1q-12 -1 -38 -1l-1 2q-118 5 -181.5 28t-88.5 67t-25 119q0 40 10.5 83t28.5 80l94 -29q-16 -59 -16 -99q0 -38 19 -58.5t69.5 -31t149.5 -11.5q115 1 193 12q-67 75 -67 160
q0 57 26.5 104t71 74t95.5 27q57 0 101.5 -26t69 -72.5t24.5 -104.5q0 -38 -16 -78t-47 -77q17 -1 53 -1h91zM715 176q42 18 61.5 45.5t19.5 64.5q0 36 -23.5 60t-58.5 24q-36 0 -60 -25t-24 -61q0 -76 85 -108zM666 -200q-20 20 -20 49q0 28 20.5 48.5t48.5 20.5
q29 0 49 -20.5t20 -48.5q0 -29 -20 -49t-49 -20t-49 20z" />
    <glyph glyph-name="uni06A3.init" unicode="&#x6a3;" horiz-adv-x="477" 
d="M324 571.5q47 -33.5 75.5 -102.5t28.5 -170q0 -123 -41.5 -187t-132 -88t-254.5 -24l-20 68l32 82q120 0 184 8.5t90 26t32 47.5q-39 -27 -109 -27q-80 0 -130.5 49t-50.5 133q0 62 26 112t70.5 78t96.5 28q56 0 103 -33.5zM161 343q26 -20 79 -20q39 0 76 13
q-15 138 -100 138q-36 0 -58.5 -20t-22.5 -53q0 -38 26 -58zM171 693q-20 20 -20 49q0 28 20.5 48.5t48.5 20.5q29 0 49 -20.5t20 -48.5q0 -29 -20 -49t-49 -20t-49 20zM155 -200q-20 20 -20 49q0 28 20.5 48.5t48.5 20.5q29 0 49 -20.5t20 -48.5q0 -29 -20 -49t-49 -20
t-49 20z" />
    <glyph glyph-name="uni06A3.medi" unicode="&#x6a3;" horiz-adv-x="537" 
d="M557 67l-20 -67h-80q-43 0 -91 13t-95 37q-97 -50 -207 -50h-64l-20 67l32 83h68q22 0 62 2q-63 76 -63 157q0 57 26.5 104t71 74t95.5 27q57 0 101.5 -26t69 -72.5t24.5 -104.5q0 -39 -17 -79.5t-49 -78.5q44 -3 93 -3h54zM276 178q79 33 79 109q0 36 -23.5 60t-58.5 24
q-36 0 -60 -24.5t-24 -60.5q0 -76 87 -108zM222 601q-20 20 -20 49q0 28 20.5 48.5t48.5 20.5q29 0 49 -20.5t20 -48.5q0 -29 -20 -49t-49 -20t-49 20zM219 -200q-20 20 -20 49q0 28 20.5 48.5t48.5 20.5q29 0 49 -20.5t20 -48.5q0 -29 -20 -49t-49 -20t-49 20z" />
    <glyph glyph-name="uni06A3.fina" unicode="&#x6a3;" horiz-adv-x="978" 
d="M998 67l-20 -67h-56q-52 0 -107 13.5t-105 39.5q-117 -57 -285 -68l-1 -3q-34 0 -51 1q-12 -1 -38 -1l-1 2q-118 5 -181.5 28t-88.5 67t-25 119q0 40 10.5 83t28.5 80l94 -29q-16 -59 -16 -99q0 -38 19 -58.5t69.5 -31t149.5 -11.5q115 1 193 12q-67 75 -67 160
q0 57 26.5 104t71 74t95.5 27q57 0 101.5 -26t69 -72.5t24.5 -104.5q0 -38 -16 -78t-47 -77q17 -1 53 -1h91zM715 176q42 18 61.5 45.5t19.5 64.5q0 36 -23.5 60t-58.5 24q-36 0 -60 -25t-24 -61q0 -76 85 -108zM663 596q-20 20 -20 49q0 28 20.5 48.5t48.5 20.5
q29 0 49 -20.5t20 -48.5q0 -29 -20 -49t-49 -20t-49 20zM662 -200q-20 20 -20 49q0 28 20.5 48.5t48.5 20.5q29 0 49 -20.5t20 -48.5q0 -29 -20 -49t-49 -20t-49 20z" />
    <glyph glyph-name="uni06A5.init" unicode="&#x6a5;" horiz-adv-x="477" 
d="M324 571.5q47 -33.5 75.5 -102.5t28.5 -170q0 -123 -41.5 -187t-132 -88t-254.5 -24l-20 68l32 82q120 0 184 8.5t90 26t32 47.5q-39 -27 -109 -27q-80 0 -130.5 49t-50.5 133q0 62 26 112t70.5 78t96.5 28q56 0 103 -33.5zM161 343q26 -20 79 -20q39 0 76 13
q-15 138 -100 138q-36 0 -58.5 -20t-22.5 -53q0 -38 26 -58zM164.5 -104.5q17.5 -17.5 17.5 -41.5q0 -26 -17.5 -43.5t-41.5 -17.5q-26 0 -44 17.5t-18 43.5q0 24 18.5 41.5t43.5 17.5q24 0 41.5 -17.5zM342.5 -104.5q18.5 -17.5 18.5 -41.5q0 -26 -18 -43.5t-44 -17.5
q-24 0 -41.5 17.5t-17.5 43.5q0 24 17.5 41.5t41.5 17.5q25 0 43.5 -17.5zM252.5 -239q17.5 -18 17.5 -43t-17.5 -42t-41.5 -17t-41.5 17t-17.5 42t17.5 43t41.5 18t41.5 -18z" />
    <glyph glyph-name="uni06A5.medi" unicode="&#x6a5;" horiz-adv-x="537" 
d="M557 67l-20 -67h-80q-43 0 -91 13t-95 37q-97 -50 -207 -50h-64l-20 67l32 83h68q22 0 62 2q-63 76 -63 157q0 57 26.5 104t71 74t95.5 27q57 0 101.5 -26t69 -72.5t24.5 -104.5q0 -39 -17 -79.5t-49 -78.5q44 -3 93 -3h54zM276 178q79 33 79 109q0 36 -23.5 60t-58.5 24
q-36 0 -60 -24.5t-24 -60.5q0 -76 87 -108zM226.5 -104.5q17.5 -17.5 17.5 -41.5q0 -26 -17.5 -43.5t-41.5 -17.5q-26 0 -44 17.5t-18 43.5q0 24 18.5 41.5t43.5 17.5q24 0 41.5 -17.5zM404.5 -104.5q18.5 -17.5 18.5 -41.5q0 -26 -18 -43.5t-44 -17.5q-24 0 -41.5 17.5
t-17.5 43.5q0 24 17.5 41.5t41.5 17.5q25 0 43.5 -17.5zM314.5 -239q17.5 -18 17.5 -43t-17.5 -42t-41.5 -17t-41.5 17t-17.5 42t17.5 43t41.5 18t41.5 -18z" />
    <glyph glyph-name="uni06A5.fina" unicode="&#x6a5;" horiz-adv-x="978" 
d="M998 67l-20 -67h-56q-52 0 -107 13.5t-105 39.5q-117 -57 -285 -68l-1 -3q-34 0 -51 1q-12 -1 -38 -1l-1 2q-118 5 -181.5 28t-88.5 67t-25 119q0 40 10.5 83t28.5 80l94 -29q-16 -59 -16 -99q0 -38 19 -58.5t69.5 -31t149.5 -11.5q115 1 193 12q-67 75 -67 160
q0 57 26.5 104t71 74t95.5 27q57 0 101.5 -26t69 -72.5t24.5 -104.5q0 -38 -16 -78t-47 -77q17 -1 53 -1h91zM715 176q42 18 61.5 45.5t19.5 64.5q0 36 -23.5 60t-58.5 24q-36 0 -60 -25t-24 -61q0 -76 85 -108zM668.5 -104.5q17.5 -17.5 17.5 -41.5q0 -26 -17.5 -43.5
t-41.5 -17.5q-26 0 -44 17.5t-18 43.5q0 24 18.5 41.5t43.5 17.5q24 0 41.5 -17.5zM846.5 -104.5q18.5 -17.5 18.5 -41.5q0 -26 -18 -43.5t-44 -17.5q-24 0 -41.5 17.5t-17.5 43.5q0 24 17.5 41.5t41.5 17.5q25 0 43.5 -17.5zM756.5 -239q17.5 -18 17.5 -43t-17.5 -42
t-41.5 -17t-41.5 17t-17.5 42t17.5 43t41.5 18t41.5 -18z" />
    <glyph glyph-name="uniFB6F" unicode="&#x6a6;" horiz-adv-x="978" arabic-form="final" 
d="M998 67l-20 -67h-56q-52 0 -107 13.5t-105 39.5q-117 -57 -285 -68l-1 -3q-34 0 -51 1q-12 -1 -38 -1l-1 2q-118 5 -181.5 28t-88.5 67t-25 119q0 40 10.5 83t28.5 80l94 -29q-16 -59 -16 -99q0 -38 19 -58.5t69.5 -31t149.5 -11.5q115 1 193 12q-67 75 -67 160
q0 57 26.5 104t71 74t95.5 27q57 0 101.5 -26t69 -72.5t24.5 -104.5q0 -38 -16 -78t-47 -77q17 -1 53 -1h91zM715 176q42 18 61.5 45.5t19.5 64.5q0 36 -23.5 60t-58.5 24q-36 0 -60 -25t-24 -61q0 -76 85 -108zM600 722.5q-17 16.5 -17 39.5q0 24 17 40.5t41 16.5t40 -16
t16 -41q0 -23 -16.5 -39.5t-39.5 -16.5q-24 0 -41 16.5zM746.5 722.5q-16.5 16.5 -16.5 39.5q0 25 16.5 41t39.5 16q24 0 41 -16.5t17 -40.5q0 -23 -17 -39.5t-41 -16.5q-23 0 -39.5 16.5zM600 582.5q-17 16.5 -17 39.5q0 24 17 41t41 17q23 0 39.5 -17t16.5 -41
q0 -23 -16.5 -39.5t-39.5 -16.5q-24 0 -41 16.5zM746.5 582.5q-16.5 16.5 -16.5 39.5q0 24 16.5 41t39.5 17q24 0 41 -17t17 -41q0 -23 -17 -39.5t-41 -16.5q-23 0 -39.5 16.5z" />
    <glyph glyph-name="uniFB71" unicode="&#x6a6;" horiz-adv-x="537" arabic-form="medial" 
d="M557 67l-20 -67h-80q-43 0 -91 13t-95 37q-97 -50 -207 -50h-64l-20 67l32 83h68q22 0 62 2q-63 76 -63 157q0 57 26.5 104t71 74t95.5 27q57 0 101.5 -26t69 -72.5t24.5 -104.5q0 -39 -17 -79.5t-49 -78.5q44 -3 93 -3h54zM276 178q79 33 79 109q0 36 -23.5 60t-58.5 24
q-36 0 -60 -24.5t-24 -60.5q0 -76 87 -108zM159 727.5q-17 16.5 -17 39.5q0 24 17 40.5t41 16.5t40 -16t16 -41q0 -23 -16.5 -39.5t-39.5 -16.5q-24 0 -41 16.5zM305.5 727.5q-16.5 16.5 -16.5 39.5q0 25 16.5 41t39.5 16q24 0 41 -16.5t17 -40.5q0 -23 -17 -39.5t-41 -16.5
q-23 0 -39.5 16.5zM159 587.5q-17 16.5 -17 39.5q0 24 17 41t41 17q23 0 39.5 -17t16.5 -41q0 -23 -16.5 -39.5t-39.5 -16.5q-24 0 -41 16.5zM305.5 587.5q-16.5 16.5 -16.5 39.5q0 24 16.5 41t39.5 17q24 0 41 -17t17 -41q0 -23 -17 -39.5t-41 -16.5q-23 0 -39.5 16.5z" />
    <glyph glyph-name="uniFB70" unicode="&#x6a6;" horiz-adv-x="477" arabic-form="initial" 
d="M324 571.5q47 -33.5 75.5 -102.5t28.5 -170q0 -123 -41.5 -187t-132 -88t-254.5 -24l-20 68l32 82q120 0 184 8.5t90 26t32 47.5q-39 -27 -109 -27q-80 0 -130.5 49t-50.5 133q0 62 26 112t70.5 78t96.5 28q56 0 103 -33.5zM161 343q26 -20 79 -20q39 0 76 13
q-15 138 -100 138q-36 0 -58.5 -20t-22.5 -53q0 -38 26 -58zM108 819.5q-17 16.5 -17 39.5q0 24 17 40.5t41 16.5t40 -16t16 -41q0 -23 -16.5 -39.5t-39.5 -16.5q-24 0 -41 16.5zM254.5 819.5q-16.5 16.5 -16.5 39.5q0 25 16.5 41t39.5 16q24 0 41 -16.5t17 -40.5
q0 -23 -17 -39.5t-41 -16.5q-23 0 -39.5 16.5zM108 679.5q-17 16.5 -17 39.5q0 24 17 41t41 17q23 0 39.5 -17t16.5 -41q0 -23 -16.5 -39.5t-39.5 -16.5q-24 0 -41 16.5zM254.5 679.5q-16.5 16.5 -16.5 39.5q0 24 16.5 41t39.5 17q24 0 41 -17t17 -41q0 -23 -17 -39.5
t-41 -16.5q-23 0 -39.5 16.5z" />
    <glyph glyph-name="uni066F.init" unicode="&#x66f;" horiz-adv-x="477" 
d="M324 571.5q47 -33.5 75.5 -102.5t28.5 -170q0 -123 -41.5 -187t-132 -88t-254.5 -24l-20 68l32 82q120 0 184 8.5t90 26t32 47.5q-39 -27 -109 -27q-80 0 -130.5 49t-50.5 133q0 62 26 112t70.5 78t96.5 28q56 0 103 -33.5zM161 343q26 -20 79 -20q39 0 76 13
q-15 138 -100 138q-36 0 -58.5 -20t-22.5 -53q0 -38 26 -58z" />
    <glyph glyph-name="uni066F.medi" unicode="&#x66f;" horiz-adv-x="537" 
d="M557 67l-20 -67h-80q-43 0 -91 13t-95 37q-97 -50 -207 -50h-64l-20 67l32 83h68q22 0 62 2q-63 76 -63 157q0 57 26.5 104t71 74t95.5 27q57 0 101.5 -26t69 -72.5t24.5 -104.5q0 -39 -17 -79.5t-49 -78.5q44 -3 93 -3h54zM276 178q79 33 79 109q0 36 -23.5 60t-58.5 24
q-36 0 -60 -24.5t-24 -60.5q0 -76 87 -108z" />
    <glyph glyph-name="uni066F.fina" unicode="&#x66f;" horiz-adv-x="821" 
d="M821 0h-100q-21 -133 -105.5 -198t-240.5 -65q-175 0 -255.5 65.5t-80.5 198.5q0 60 16 112.5t37 89.5l94 -27q-10 -26 -17 -65t-7 -85q0 -72 50 -105.5t175 -33.5q183 0 223 113h-51q-115 0 -173 50t-58 138q0 62 26.5 112.5t70.5 78.5t96 28q51 0 95 -28t73.5 -85.5
t36.5 -143.5h107l8 -84zM616 141q-16 134 -99 134q-36 0 -59 -20t-23 -53q0 -36 25.5 -51.5t80.5 -15.5q45 0 75 6z" />
    <glyph glyph-name="uniFED6" unicode="&#x642;" horiz-adv-x="821" arabic-form="final" 
d="M821 0h-100q-21 -133 -105.5 -198t-240.5 -65q-175 0 -255.5 65.5t-80.5 198.5q0 60 16 112.5t37 89.5l94 -27q-10 -26 -17 -65t-7 -85q0 -72 50 -105.5t175 -33.5q183 0 223 113h-51q-115 0 -173 50t-58 138q0 62 26.5 112.5t70.5 78.5t96 28q51 0 95 -28t73.5 -85.5
t36.5 -143.5h107l8 -84zM616 141q-16 134 -99 134q-36 0 -59 -20t-23 -53q0 -36 25.5 -51.5t80.5 -15.5q45 0 75 6zM393.5 501.5q-18.5 18.5 -18.5 45.5q0 26 18.5 44t44.5 18t44.5 -18t18.5 -44q0 -27 -18.5 -45.5t-44.5 -18.5t-44.5 18.5zM559 501.5q-19 18.5 -19 45.5
q0 26 19 44t45 18t44 -18t18 -44q0 -27 -18 -45.5t-44 -18.5t-45 18.5z" />
    <glyph glyph-name="uniFED8" unicode="&#x642;" horiz-adv-x="537" arabic-form="medial" 
d="M557 67l-20 -67h-80q-43 0 -91 13t-95 37q-97 -50 -207 -50h-64l-20 67l32 83h68q22 0 62 2q-63 76 -63 157q0 57 26.5 104t71 74t95.5 27q57 0 101.5 -26t69 -72.5t24.5 -104.5q0 -39 -17 -79.5t-49 -78.5q44 -3 93 -3h54zM276 178q79 33 79 109q0 36 -23.5 60t-58.5 24
q-36 0 -60 -24.5t-24 -60.5q0 -76 87 -108zM144.5 608.5q-18.5 18.5 -18.5 45.5q0 26 18.5 44t44.5 18t44.5 -18t18.5 -44q0 -27 -18.5 -45.5t-44.5 -18.5t-44.5 18.5zM310 608.5q-19 18.5 -19 45.5q0 26 19 44t45 18t44 -18t18 -44q0 -27 -18 -45.5t-44 -18.5t-45 18.5z
" />
    <glyph glyph-name="uniFED7" unicode="&#x642;" horiz-adv-x="477" arabic-form="initial" 
d="M324 571.5q47 -33.5 75.5 -102.5t28.5 -170q0 -123 -41.5 -187t-132 -88t-254.5 -24l-20 68l32 82q120 0 184 8.5t90 26t32 47.5q-39 -27 -109 -27q-80 0 -130.5 49t-50.5 133q0 62 26 112t70.5 78t96.5 28q56 0 103 -33.5zM161 343q26 -20 79 -20q39 0 76 13
q-15 138 -100 138q-36 0 -58.5 -20t-22.5 -53q0 -38 26 -58zM93.5 700.5q-18.5 18.5 -18.5 45.5q0 26 18.5 44t44.5 18t44.5 -18t18.5 -44q0 -27 -18.5 -45.5t-44.5 -18.5t-44.5 18.5zM259 700.5q-19 18.5 -19 45.5q0 26 19 44t45 18t44 -18t18 -44q0 -27 -18 -45.5
t-44 -18.5t-45 18.5z" />
    <glyph glyph-name="uni06A7.init" unicode="&#x6a7;" horiz-adv-x="477" 
d="M324 571.5q47 -33.5 75.5 -102.5t28.5 -170q0 -123 -41.5 -187t-132 -88t-254.5 -24l-20 68l32 82q120 0 184 8.5t90 26t32 47.5q-39 -27 -109 -27q-80 0 -130.5 49t-50.5 133q0 62 26 112t70.5 78t96.5 28q56 0 103 -33.5zM161 343q26 -20 79 -20q39 0 76 13
q-15 138 -100 138q-36 0 -58.5 -20t-22.5 -53q0 -38 26 -58zM171 693q-20 20 -20 49q0 28 20.5 48.5t48.5 20.5q29 0 49 -20.5t20 -48.5q0 -29 -20 -49t-49 -20t-49 20z" />
    <glyph glyph-name="uni06A7.medi" unicode="&#x6a7;" horiz-adv-x="537" 
d="M557 67l-20 -67h-80q-43 0 -91 13t-95 37q-97 -50 -207 -50h-64l-20 67l32 83h68q22 0 62 2q-63 76 -63 157q0 57 26.5 104t71 74t95.5 27q57 0 101.5 -26t69 -72.5t24.5 -104.5q0 -39 -17 -79.5t-49 -78.5q44 -3 93 -3h54zM276 178q79 33 79 109q0 36 -23.5 60t-58.5 24
q-36 0 -60 -24.5t-24 -60.5q0 -76 87 -108zM222 601q-20 20 -20 49q0 28 20.5 48.5t48.5 20.5q29 0 49 -20.5t20 -48.5q0 -29 -20 -49t-49 -20t-49 20z" />
    <glyph glyph-name="uni06A7.fina" unicode="&#x6a7;" horiz-adv-x="821" 
d="M821 0h-100q-21 -133 -105.5 -198t-240.5 -65q-175 0 -255.5 65.5t-80.5 198.5q0 60 16 112.5t37 89.5l94 -27q-10 -26 -17 -65t-7 -85q0 -72 50 -105.5t175 -33.5q183 0 223 113h-51q-115 0 -173 50t-58 138q0 62 26.5 112.5t70.5 78.5t96 28q51 0 95 -28t73.5 -85.5
t36.5 -143.5h107l8 -84zM616 141q-16 134 -99 134q-36 0 -59 -20t-23 -53q0 -36 25.5 -51.5t80.5 -15.5q45 0 75 6zM471 494q-20 20 -20 49q0 28 20.5 48.5t48.5 20.5q29 0 49 -20.5t20 -48.5q0 -29 -20 -49t-49 -20t-49 20z" />
    <glyph glyph-name="uni06A8.init" unicode="&#x6a8;" horiz-adv-x="477" 
d="M324 571.5q47 -33.5 75.5 -102.5t28.5 -170q0 -123 -41.5 -187t-132 -88t-254.5 -24l-20 68l32 82q120 0 184 8.5t90 26t32 47.5q-39 -27 -109 -27q-80 0 -130.5 49t-50.5 133q0 62 26 112t70.5 78t96.5 28q56 0 103 -33.5zM161 343q26 -20 79 -20q39 0 76 13
q-15 138 -100 138q-36 0 -58.5 -20t-22.5 -53q0 -38 26 -58zM179.5 828q-17.5 18 -17.5 43t17.5 42t41.5 17t41.5 -17t17.5 -42t-17.5 -43t-41.5 -18t-41.5 18zM89 694q-18 17 -18 42t18 43t44 18q24 0 41.5 -18t17.5 -43t-17.5 -42t-41.5 -17q-26 0 -44 17zM267.5 694
q-17.5 17 -17.5 42t17.5 43t41.5 18q26 0 44 -18t18 -43t-18 -42t-44 -17q-24 0 -41.5 17z" />
    <glyph glyph-name="uni06A8.medi" unicode="&#x6a8;" horiz-adv-x="537" 
d="M557 67l-20 -67h-80q-43 0 -91 13t-95 37q-97 -50 -207 -50h-64l-20 67l32 83h68q22 0 62 2q-63 76 -63 157q0 57 26.5 104t71 74t95.5 27q57 0 101.5 -26t69 -72.5t24.5 -104.5q0 -39 -17 -79.5t-49 -78.5q44 -3 93 -3h54zM276 178q79 33 79 109q0 36 -23.5 60t-58.5 24
q-36 0 -60 -24.5t-24 -60.5q0 -76 87 -108zM230.5 736q-17.5 18 -17.5 43t17.5 42t41.5 17t41.5 -17t17.5 -42t-17.5 -43t-41.5 -18t-41.5 18zM140 602q-18 17 -18 42t18 43t44 18q24 0 41.5 -18t17.5 -43t-17.5 -42t-41.5 -17q-26 0 -44 17zM318.5 602q-17.5 17 -17.5 42
t17.5 43t41.5 18q26 0 44 -18t18 -43t-18 -42t-44 -17q-24 0 -41.5 17z" />
    <glyph glyph-name="uni06A8.fina" unicode="&#x6a8;" horiz-adv-x="821" 
d="M821 0h-100q-21 -133 -105.5 -198t-240.5 -65q-175 0 -255.5 65.5t-80.5 198.5q0 60 16 112.5t37 89.5l94 -27q-10 -26 -17 -65t-7 -85q0 -72 50 -105.5t175 -33.5q183 0 223 113h-51q-115 0 -173 50t-58 138q0 62 26.5 112.5t70.5 78.5t96 28q51 0 95 -28t73.5 -85.5
t36.5 -143.5h107l8 -84zM616 141q-16 134 -99 134q-36 0 -59 -20t-23 -53q0 -36 25.5 -51.5t80.5 -15.5q45 0 75 6zM479.5 629q-17.5 18 -17.5 43t17.5 42t41.5 17t41.5 -17t17.5 -42t-17.5 -43t-41.5 -18t-41.5 18zM389 495q-18 17 -18 42t18 43t44 18q24 0 41.5 -18
t17.5 -43t-17.5 -42t-41.5 -17q-26 0 -44 17zM567.5 495q-17.5 17 -17.5 42t17.5 43t41.5 18q26 0 44 -18t18 -43t-18 -42t-44 -17q-24 0 -41.5 17z" />
    <glyph glyph-name="uniFEDA" unicode="&#x643;" horiz-adv-x="870" arabic-form="final" 
d="M890 71l-20 -71q-64 0 -106.5 14t-73.5 55q-107 -70 -265 -83l-1 -4q-35 0 -52 1q-12 -1 -37 -1l-1 2q-118 5 -181.5 28t-88.5 67t-25 119q0 40 10.5 83t28.5 80l94 -29q-16 -59 -16 -99q0 -37 18 -57.5t66 -30.5t141 -12q78 2 137.5 16t111.5 41v575l121 16v-514
q0 -45 10.5 -69.5t39 -36t81.5 -11.5zM395.5 344.5q28.5 5.5 28.5 15.5t-21 19.5t-87 22.5l16 80l172 101l-5 -90l-93 -48q53 -15 74.5 -34.5t21.5 -53.5q0 -58 -60.5 -77t-141.5 -19l-12 78q79 0 107.5 5.5z" />
    <glyph glyph-name="uniFEDC" unicode="&#x643;" horiz-adv-x="537" arabic-form="medial" 
d="M557 71l-20 -71q-93 0 -154.5 34.5t-121.5 124.5q-6 -70 -72.5 -114.5t-188.5 -44.5l-20 67l32 83q63 0 97 6.5t47 19.5t13 34q0 22 -17.5 52.5t-57.5 79.5l-67 81l28 126l405 219l-7 -135l-307 -165l151 -187q44 -55 76.5 -82t72 -38t103.5 -11z" />
    <glyph glyph-name="uniFEDB" unicode="&#x643;" horiz-adv-x="459" arabic-form="initial" 
d="M422 627l-268 -144q92 -47 139.5 -89.5t64 -83t16.5 -91.5q0 -100 -89.5 -159.5t-284.5 -59.5l-20 67l32 83q101 0 156 9t75.5 27t20.5 47q0 23 -17 44.5t-75 55t-176 86.5l29 130l405 219z" />
    <glyph glyph-name="uniFB8F" unicode="&#x6a9;" horiz-adv-x="994" arabic-form="final" 
d="M1014 71l-20 -71q-93 0 -154.5 34.5t-121.5 124.5q-6 -67 -74 -114.5t-219 -59.5l-1 -3q-34 0 -51 1q-12 -1 -38 -1l-1 2q-118 5 -181.5 28t-88.5 67t-25 119q0 40 10.5 83t28.5 80l94 -29q-16 -59 -16 -99q0 -37 18.5 -57.5t68 -31t145.5 -12.5q139 3 188.5 24t49.5 54
q0 22 -17.5 52.5t-57.5 79.5l-67 81l28 126l405 219l-7 -141l-303 -163l173 -214q36 -45 63.5 -65.5t63 -27.5t99.5 -7z" />
    <glyph glyph-name="uniFB91" unicode="&#x6a9;" horiz-adv-x="537" arabic-form="medial" 
d="M557 71l-20 -71q-93 0 -154.5 34.5t-121.5 124.5q-6 -70 -72.5 -114.5t-188.5 -44.5l-20 67l32 83q63 0 97 6.5t47 19.5t13 34q0 22 -17.5 52.5t-57.5 79.5l-67 81l28 126l405 219l-7 -135l-307 -165l151 -187q44 -55 76.5 -82t72 -38t103.5 -11z" />
    <glyph glyph-name="uniFB90" unicode="&#x6a9;" horiz-adv-x="459" arabic-form="initial" 
d="M422 627l-268 -144q92 -47 139.5 -89.5t64 -83t16.5 -91.5q0 -100 -89.5 -159.5t-284.5 -59.5l-20 67l32 83q101 0 156 9t75.5 27t20.5 47q0 23 -17 44.5t-75 55t-176 86.5l29 130l405 219z" />
    <glyph glyph-name="uni063B.init" unicode="&#x63b;" horiz-adv-x="459" 
d="M422 627l-268 -144q92 -47 139.5 -89.5t64 -83t16.5 -91.5q0 -100 -89.5 -159.5t-284.5 -59.5l-20 67l32 83q101 0 156 9t75.5 27t20.5 47q0 23 -17 44.5t-75 55t-176 86.5l29 130l405 219zM-58.5 734.5q-18.5 18.5 -18.5 45.5q0 26 18.5 44t44.5 18t44.5 -18t18.5 -44
q0 -27 -18.5 -45.5t-44.5 -18.5t-44.5 18.5zM107 734.5q-19 18.5 -19 45.5q0 26 19 44t45 18t44 -18t18 -44q0 -27 -18 -45.5t-44 -18.5t-45 18.5z" />
    <glyph glyph-name="uni063B.medi" unicode="&#x63b;" horiz-adv-x="537" 
d="M557 71l-20 -71q-93 0 -154.5 34.5t-121.5 124.5q-6 -70 -72.5 -114.5t-188.5 -44.5l-20 67l32 83q63 0 97 6.5t47 19.5t13 34q0 22 -17.5 52.5t-57.5 79.5l-67 81l28 126l405 219l-7 -135l-307 -165l151 -187q44 -55 76.5 -82t72 -38t103.5 -11zM-29.5 734.5
q-18.5 18.5 -18.5 45.5q0 26 18.5 44t44.5 18t44.5 -18t18.5 -44q0 -27 -18.5 -45.5t-44.5 -18.5t-44.5 18.5zM136 734.5q-19 18.5 -19 45.5q0 26 19 44t45 18t44 -18t18 -44q0 -27 -18 -45.5t-44 -18.5t-45 18.5z" />
    <glyph glyph-name="uni063B.fina" unicode="&#x63b;" horiz-adv-x="994" 
d="M1014 71l-20 -71q-93 0 -154.5 34.5t-121.5 124.5q-6 -67 -74 -114.5t-219 -59.5l-1 -3q-34 0 -51 1q-12 -1 -38 -1l-1 2q-118 5 -181.5 28t-88.5 67t-25 119q0 40 10.5 83t28.5 80l94 -29q-16 -59 -16 -99q0 -37 18.5 -57.5t68 -31t145.5 -12.5q139 3 188.5 24t49.5 54
q0 22 -17.5 52.5t-57.5 79.5l-67 81l28 126l405 219l-7 -141l-303 -163l173 -214q36 -45 63.5 -65.5t63 -27.5t99.5 -7zM423.5 734.5q-18.5 18.5 -18.5 45.5q0 26 18.5 44t44.5 18t44.5 -18t18.5 -44q0 -27 -18.5 -45.5t-44.5 -18.5t-44.5 18.5zM589 734.5
q-19 18.5 -19 45.5q0 26 19 44t45 18t44 -18t18 -44q0 -27 -18 -45.5t-44 -18.5t-45 18.5z" />
    <glyph glyph-name="uni063C.init" unicode="&#x63c;" horiz-adv-x="459" 
d="M422 627l-268 -144q92 -47 139.5 -89.5t64 -83t16.5 -91.5q0 -100 -89.5 -159.5t-284.5 -59.5l-20 67l32 83q101 0 156 9t75.5 27t20.5 47q0 23 -17 44.5t-75 55t-176 86.5l29 130l405 219zM78.5 -104.5q17.5 -17.5 17.5 -41.5q0 -26 -17.5 -43.5t-41.5 -17.5
q-26 0 -44 17.5t-18 43.5q0 24 18.5 41.5t43.5 17.5q24 0 41.5 -17.5zM256.5 -104.5q18.5 -17.5 18.5 -41.5q0 -26 -18 -43.5t-44 -17.5q-24 0 -41.5 17.5t-17.5 43.5q0 24 17.5 41.5t41.5 17.5q25 0 43.5 -17.5zM166.5 -239q17.5 -18 17.5 -43t-17.5 -42t-41.5 -17
t-41.5 17t-17.5 42t17.5 43t41.5 18t41.5 -18z" />
    <glyph glyph-name="uni063C.medi" unicode="&#x63c;" horiz-adv-x="537" 
d="M557 71l-20 -71q-93 0 -154.5 34.5t-121.5 124.5q-6 -70 -72.5 -114.5t-188.5 -44.5l-20 67l32 83q63 0 97 6.5t47 19.5t13 34q0 22 -17.5 52.5t-57.5 79.5l-67 81l28 126l405 219l-7 -135l-307 -165l151 -187q44 -55 76.5 -82t72 -38t103.5 -11zM242.5 -104.5
q17.5 -17.5 17.5 -41.5q0 -26 -17.5 -43.5t-41.5 -17.5q-26 0 -44 17.5t-18 43.5q0 24 18.5 41.5t43.5 17.5q24 0 41.5 -17.5zM420.5 -104.5q18.5 -17.5 18.5 -41.5q0 -26 -18 -43.5t-44 -17.5q-24 0 -41.5 17.5t-17.5 43.5q0 24 17.5 41.5t41.5 17.5q25 0 43.5 -17.5z
M330.5 -239q17.5 -18 17.5 -43t-17.5 -42t-41.5 -17t-41.5 17t-17.5 42t17.5 43t41.5 18t41.5 -18z" />
    <glyph glyph-name="uni063C.fina" unicode="&#x63c;" horiz-adv-x="994" 
d="M1014 71l-20 -71q-93 0 -154.5 34.5t-121.5 124.5q-6 -67 -74 -114.5t-219 -59.5l-1 -3q-34 0 -51 1q-12 -1 -38 -1l-1 2q-118 5 -181.5 28t-88.5 67t-25 119q0 40 10.5 83t28.5 80l94 -29q-16 -59 -16 -99q0 -37 18.5 -57.5t68 -31t145.5 -12.5q139 3 188.5 24t49.5 54
q0 22 -17.5 52.5t-57.5 79.5l-67 81l28 126l405 219l-7 -141l-303 -163l173 -214q36 -45 63.5 -65.5t63 -27.5t99.5 -7zM330.5 -104.5q17.5 -17.5 17.5 -41.5q0 -26 -17.5 -43.5t-41.5 -17.5q-26 0 -44 17.5t-18 43.5q0 24 18.5 41.5t43.5 17.5q24 0 41.5 -17.5z
M508.5 -104.5q18.5 -17.5 18.5 -41.5q0 -26 -18 -43.5t-44 -17.5q-24 0 -41.5 17.5t-17.5 43.5q0 24 17.5 41.5t41.5 17.5q25 0 43.5 -17.5zM418.5 -239q17.5 -18 17.5 -43t-17.5 -42t-41.5 -17t-41.5 17t-17.5 42t17.5 43t41.5 18t41.5 -18z" />
    <glyph glyph-name="uniFB93" unicode="&#x6af;" horiz-adv-x="994" arabic-form="final" 
d="M912 809l-396 -214l24 101l378 208zM1014 71l-20 -71q-93 0 -154.5 34.5t-121.5 124.5q-6 -67 -74 -114.5t-219 -59.5l-1 -3q-34 0 -51 1q-12 -1 -38 -1l-1 2q-118 5 -181.5 28t-88.5 67t-25 119q0 40 10.5 83t28.5 80l94 -29q-16 -59 -16 -99q0 -37 18.5 -57.5t68 -31
t145.5 -12.5q139 3 188.5 24t49.5 54q0 22 -17.5 52.5t-57.5 79.5l-67 81l28 126l405 219l-7 -141l-303 -163l173 -214q36 -45 63.5 -65.5t63 -27.5t99.5 -7z" />
    <glyph glyph-name="uniFB95" unicode="&#x6af;" horiz-adv-x="537" arabic-form="medial" 
d="M453 809l-396 -214l24 101l378 208zM557 71l-20 -71q-93 0 -154.5 34.5t-121.5 124.5q-6 -70 -72.5 -114.5t-188.5 -44.5l-20 67l32 83q63 0 97 6.5t47 19.5t13 34q0 22 -17.5 52.5t-57.5 79.5l-67 81l28 126l405 219l-7 -135l-307 -165l151 -187q44 -55 76.5 -82t72 -38
t103.5 -11z" />
    <glyph glyph-name="uniFB94" unicode="&#x6af;" horiz-adv-x="462" arabic-form="initial" 
d="M425 809l-396 -214l25 101l377 208zM25 549l405 219l-8 -141l-268 -144q92 -47 139.5 -89.5t64 -83t16.5 -91.5q0 -100 -89.5 -159.5t-284.5 -59.5l-20 67l32 83q101 0 156 9t75.5 27t20.5 47q0 23 -17 44.5t-75 55t-176 86.5z" />
    <glyph glyph-name="uni06B0.init" unicode="&#x6b0;" horiz-adv-x="462" 
d="M425 809l-396 -214l25 101l377 208zM422 627l-37 -20q18 -12 28.5 -32t10.5 -44q0 -41 -27.5 -67.5t-68.5 -26.5q-39 0 -66.5 24.5t-29.5 63.5l-78 -42q92 -47 139.5 -89.5t64 -83t16.5 -91.5q0 -100 -89.5 -159.5t-284.5 -59.5l-20 67l32 83q101 0 156 9t75.5 27
t20.5 47q0 23 -17 44.5t-75 55t-176 86.5l29 130l405 219zM354.5 507.5q9.5 9.5 9.5 23.5q0 15 -10 24t-26 9t-26 -9t-10 -24q0 -14 10 -23.5t26 -9.5q17 0 26.5 9.5z" />
    <glyph glyph-name="uni06B0.medi" unicode="&#x6b0;" horiz-adv-x="537" 
d="M453 809l-396 -214l24 101l378 208zM557 71l-20 -71q-93 0 -154.5 34.5t-121.5 124.5q-6 -70 -72.5 -114.5t-188.5 -44.5l-20 67l32 83q63 0 97 6.5t47 19.5t13 34q0 22 -17.5 52.5t-57.5 79.5l-67 81l28 126l405 219l-7 -135l-39 -21q34 -28 34 -73q0 -41 -27.5 -67.5
t-68.5 -26.5q-37 0 -64 23t-31 60l-111 -60l151 -187q44 -55 76.5 -82t72 -38t103.5 -11zM378.5 515q9.5 10 9.5 24t-10 23.5t-26 9.5t-25.5 -9.5t-9.5 -23.5t9.5 -24t25.5 -10q17 0 26.5 10z" />
    <glyph glyph-name="uni06B0.fina" unicode="&#x6b0;" horiz-adv-x="994" 
d="M912 809l-396 -214l24 101l378 208zM1014 71l-20 -71q-93 0 -154.5 34.5t-121.5 124.5q-6 -67 -74 -114.5t-219 -59.5l-1 -3q-34 0 -51 1q-12 -1 -38 -1l-1 2q-118 5 -181.5 28t-88.5 67t-25 119q0 40 10.5 83t28.5 80l94 -29q-16 -59 -16 -99q0 -37 18.5 -57.5t68 -31
t145.5 -12.5q139 3 188.5 24t49.5 54q0 22 -17.5 52.5t-57.5 79.5l-67 81l28 126l405 219l-7 -141l-42 -23q34 -26 34 -72q0 -41 -28 -67.5t-68 -26.5q-37 0 -64.5 22.5t-31.5 58.5l-103 -55l173 -214q36 -45 63.5 -65.5t63 -27.5t99.5 -7zM831.5 508q9.5 10 9.5 24
t-9.5 23.5t-25.5 9.5t-26 -9.5t-10 -23.5t9.5 -24t26.5 -10q16 0 25.5 10z" />
    <glyph glyph-name="uni06B4.init" unicode="&#x6b4;" horiz-adv-x="462" 
d="M425 809l-396 -214l25 101l377 208zM25 549l405 219l-8 -141l-268 -144q92 -47 139.5 -89.5t64 -83t16.5 -91.5q0 -100 -89.5 -159.5t-284.5 -59.5l-20 67l32 83q101 0 156 9t75.5 27t20.5 47q0 23 -17 44.5t-75 55t-176 86.5zM-22.5 938q-17.5 18 -17.5 43t17.5 42
t41.5 17t41.5 -17t17.5 -42t-17.5 -43t-41.5 -18t-41.5 18zM-113 804q-18 17 -18 42t18 43t44 18q24 0 41.5 -18t17.5 -43t-17.5 -42t-41.5 -17q-26 0 -44 17zM65.5 804q-17.5 17 -17.5 42t17.5 43t41.5 18q26 0 44 -18t18 -43t-18 -42t-44 -17q-24 0 -41.5 17z" />
    <glyph glyph-name="uni06B4.medi" unicode="&#x6b4;" horiz-adv-x="537" 
d="M453 809l-396 -214l24 101l378 208zM557 71l-20 -71q-93 0 -154.5 34.5t-121.5 124.5q-6 -70 -72.5 -114.5t-188.5 -44.5l-20 67l32 83q63 0 97 6.5t47 19.5t13 34q0 22 -17.5 52.5t-57.5 79.5l-67 81l28 126l405 219l-7 -135l-307 -165l151 -187q44 -55 76.5 -82t72 -38
t103.5 -11zM-3.5 937q-17.5 18 -17.5 43t17.5 42t41.5 17t41.5 -17t17.5 -42t-17.5 -43t-41.5 -18t-41.5 18zM-94 803q-18 17 -18 42t18 43t44 18q24 0 41.5 -18t17.5 -43t-17.5 -42t-41.5 -17q-26 0 -44 17zM84.5 803q-17.5 17 -17.5 42t17.5 43t41.5 18q26 0 44 -18
t18 -43t-18 -42t-44 -17q-24 0 -41.5 17z" />
    <glyph glyph-name="uni06B4.fina" unicode="&#x6b4;" horiz-adv-x="994" 
d="M912 809l-396 -214l24 101l378 208zM1014 71l-20 -71q-93 0 -154.5 34.5t-121.5 124.5q-6 -67 -74 -114.5t-219 -59.5l-1 -3q-34 0 -51 1q-12 -1 -38 -1l-1 2q-118 5 -181.5 28t-88.5 67t-25 119q0 40 10.5 83t28.5 80l94 -29q-16 -59 -16 -99q0 -37 18.5 -57.5t68 -31
t145.5 -12.5q139 3 188.5 24t49.5 54q0 22 -17.5 52.5t-57.5 79.5l-67 81l28 126l405 219l-7 -141l-303 -163l173 -214q36 -45 63.5 -65.5t63 -27.5t99.5 -7zM459.5 938q-17.5 18 -17.5 43t17.5 42t41.5 17t41.5 -17t17.5 -42t-17.5 -43t-41.5 -18t-41.5 18zM369 804
q-18 17 -18 42t18 43t44 18q24 0 41.5 -18t17.5 -43t-17.5 -42t-41.5 -17q-26 0 -44 17zM547.5 804q-17.5 17 -17.5 42t17.5 43t41.5 18q26 0 44 -18t18 -43t-18 -42t-44 -17q-24 0 -41.5 17z" />
    <glyph glyph-name="uni06AA.init" unicode="&#x6aa;" horiz-adv-x="1166" 
d="M1044.5 362.5q72.5 -44.5 72.5 -155.5q0 -39 -27.5 -75t-74.5 -58q-76 -35 -254 -54.5t-459 -19.5h-302l-20 79l23 71q51 0 117 -3q160 -5 261 -5q227 0 366.5 12.5t198 29t58.5 31.5q0 24 -36.5 39t-121.5 15q-98 0 -278 -12q-176 -12 -258 -12q-74 0 -137.5 5.5
t-94.5 14.5l15 121q45 108 143.5 184t233.5 99l-23 -143q-160 -36 -240 -138q68 -5 119 -5q63 0 137 4t141 9q150 11 235 11q133 0 205.5 -44.5z" />
    <glyph glyph-name="uni06AA.medi" unicode="&#x6aa;" horiz-adv-x="1220" 
d="M1240 69l-20 -69q-61 0 -103.5 28t-56.5 74q-18 -15 -45 -28q-76 -35 -254 -54.5t-459 -19.5h-302l-20 79l23 71q51 0 117 -3q160 -5 261 -5q227 0 366.5 12.5t198 29t58.5 31.5q0 24 -36.5 39t-121.5 15q-98 0 -278 -12q-176 -12 -258 -12q-74 0 -137.5 5.5t-94.5 14.5
l15 121q45 108 143.5 184t233.5 99l-23 -143q-160 -36 -240 -138q68 -5 119 -5q63 0 137 4t141 9q150 11 235 11q128 0 199.5 -40t77.5 -140h1q0 -46 27 -61.5t89 -15.5z" />
    <glyph glyph-name="uni06AA.fina" unicode="&#x6aa;" horiz-adv-x="1295" 
d="M1315 69l-20 -69q-61 0 -103.5 27.5t-57.5 73.5q-19 -14 -44 -27q-75 -34 -254.5 -54t-458.5 -20h-302l-44 150q38 -2 58 -2q178 -8 335 -8q241 0 387.5 13t206.5 30t60 32q0 24 -36.5 39t-121.5 15q-98 0 -278 -12q-174 -12 -257 -12q-74 0 -138 5.5t-95 14.5l15 121
q45 107 144 183t234 100l-23 -143q-160 -36 -240 -138q68 -5 118 -5q63 0 137 4t141 9q150 11 235 11q128 0 199.5 -40t77.5 -140h1q0 -46 27 -61.5t89 -15.5z" />
    <glyph glyph-name="uni06AB.init" unicode="&#x6ab;" horiz-adv-x="459" 
d="M422 627l-32 -17q29 -26 29 -68q0 -41 -27.5 -67.5t-68.5 -26.5q-35 0 -61.5 20.5t-32.5 54.5l-75 -40q92 -47 139.5 -89.5t64 -83t16.5 -91.5q0 -100 -89.5 -159.5t-284.5 -59.5l-20 67l32 83q101 0 156 9t75.5 27t20.5 47q0 23 -17 44.5t-75 55t-176 86.5l29 130
l405 219zM349.5 565q-9.5 9 -24.5 10l-35 -19q-3 -6 -3 -14q0 -14 10 -24t26 -10q17 0 26.5 10t9.5 24t-9.5 23z" />
    <glyph glyph-name="uni06AB.medi" unicode="&#x6ab;" horiz-adv-x="537" 
d="M557 71l-20 -71q-93 0 -154.5 34.5t-121.5 124.5q-6 -70 -72.5 -114.5t-188.5 -44.5l-20 67l32 83q63 0 97 6.5t47 19.5t13 34q0 22 -17.5 52.5t-57.5 79.5l-67 81l28 126l405 219l-7 -135l-39 -21q31 -28 31 -70q0 -41 -28 -67.5t-68 -26.5q-36 0 -63 21.5t-33 56.5
l-107 -58l151 -187q44 -55 76.5 -82t72 -38t103.5 -11zM344 575l-25 -14q-6 -7 -6 -19q0 -14 9.5 -24t26.5 -10q16 0 25.5 10t9.5 24t-9.5 23.5t-25.5 9.5h-5z" />
    <glyph glyph-name="uni06AB.fina" unicode="&#x6ab;" horiz-adv-x="994" 
d="M1014 71l-20 -71q-93 0 -154.5 34.5t-121.5 124.5q-6 -67 -74 -114.5t-219 -59.5l-1 -3q-34 0 -51 1q-12 -1 -38 -1l-1 2q-118 5 -181.5 28t-88.5 67t-25 119q0 40 10.5 83t28.5 80l94 -29q-16 -59 -16 -99q0 -37 18.5 -57.5t68 -31t145.5 -12.5q139 3 188.5 24t49.5 54
q0 22 -17.5 52.5t-57.5 79.5l-67 81l28 126l405 219l-7 -141l-37 -20q26 -26 26 -65q0 -41 -27.5 -67.5t-68.5 -26.5q-34 0 -60 19.5t-33 51.5l-103 -55l173 -214q36 -45 63.5 -65.5t63 -27.5t99.5 -7zM832 563q-7 9 -20 11l-44 -23q-1 -3 -1 -9q0 -14 10 -24t26 -10
q17 0 26.5 10t9.5 24q0 12 -7 21z" />
    <glyph glyph-name="uni06AC.init" unicode="&#x6ac;" horiz-adv-x="459" 
d="M422 627l-268 -144q92 -47 139.5 -89.5t64 -83t16.5 -91.5q0 -100 -89.5 -159.5t-284.5 -59.5l-20 67l32 83q101 0 156 9t75.5 27t20.5 47q0 23 -17 44.5t-75 55t-176 86.5l29 130l405 219zM19 727q-20 20 -20 49q0 28 20.5 48.5t48.5 20.5q29 0 49 -20.5t20 -48.5
q0 -29 -20 -49t-49 -20t-49 20z" />
    <glyph glyph-name="uni06AC.medi" unicode="&#x6ac;" horiz-adv-x="537" 
d="M557 71l-20 -71q-93 0 -154.5 34.5t-121.5 124.5q-6 -70 -72.5 -114.5t-188.5 -44.5l-20 67l32 83q63 0 97 6.5t47 19.5t13 34q0 22 -17.5 52.5t-57.5 79.5l-67 81l28 126l405 219l-7 -135l-307 -165l151 -187q44 -55 76.5 -82t72 -38t103.5 -11zM48 727q-20 20 -20 49
q0 28 20.5 48.5t48.5 20.5q29 0 49 -20.5t20 -48.5q0 -29 -20 -49t-49 -20t-49 20z" />
    <glyph glyph-name="uni06AC.fina" unicode="&#x6ac;" horiz-adv-x="870" 
d="M890 71l-20 -71q-64 0 -106.5 14t-73.5 55q-107 -70 -265 -83l-1 -4q-35 0 -52 1q-12 -1 -37 -1l-1 2q-118 5 -181.5 28t-88.5 67t-25 119q0 40 10.5 83t28.5 80l94 -29q-16 -59 -16 -99q0 -37 18 -57.5t66 -30.5t141 -12q78 2 137.5 16t111.5 41v575l121 16v-514
q0 -45 10.5 -69.5t39 -36t81.5 -11.5zM395.5 344.5q28.5 5.5 28.5 15.5t-21 19.5t-87 22.5l16 80l172 101l-5 -90l-93 -48q53 -15 74.5 -34.5t21.5 -53.5q0 -58 -60.5 -77t-141.5 -19l-12 78q79 0 107.5 5.5zM640 856q-20 20 -20 49q0 28 20.5 48.5t48.5 20.5q29 0 49 -20.5
t20 -48.5q0 -29 -20 -49t-49 -20t-49 20z" />
    <glyph glyph-name="uni06AE.init" unicode="&#x6ae;" horiz-adv-x="459" 
d="M422 627l-268 -144q92 -47 139.5 -89.5t64 -83t16.5 -91.5q0 -100 -89.5 -159.5t-284.5 -59.5l-20 67l32 83q101 0 156 9t75.5 27t20.5 47q0 23 -17 44.5t-75 55t-176 86.5l29 130l405 219zM78.5 -104.5q17.5 -17.5 17.5 -41.5q0 -26 -17.5 -43.5t-41.5 -17.5
q-26 0 -44 17.5t-18 43.5q0 24 18.5 41.5t43.5 17.5q24 0 41.5 -17.5zM256.5 -104.5q18.5 -17.5 18.5 -41.5q0 -26 -18 -43.5t-44 -17.5q-24 0 -41.5 17.5t-17.5 43.5q0 24 17.5 41.5t41.5 17.5q25 0 43.5 -17.5zM166.5 -239q17.5 -18 17.5 -43t-17.5 -42t-41.5 -17
t-41.5 17t-17.5 42t17.5 43t41.5 18t41.5 -18z" />
    <glyph glyph-name="uni06AE.medi" unicode="&#x6ae;" horiz-adv-x="537" 
d="M557 71l-20 -71q-93 0 -154.5 34.5t-121.5 124.5q-6 -70 -72.5 -114.5t-188.5 -44.5l-20 67l32 83q63 0 97 6.5t47 19.5t13 34q0 22 -17.5 52.5t-57.5 79.5l-67 81l28 126l405 219l-7 -135l-307 -165l151 -187q44 -55 76.5 -82t72 -38t103.5 -11zM242.5 -104.5
q17.5 -17.5 17.5 -41.5q0 -26 -17.5 -43.5t-41.5 -17.5q-26 0 -44 17.5t-18 43.5q0 24 18.5 41.5t43.5 17.5q24 0 41.5 -17.5zM420.5 -104.5q18.5 -17.5 18.5 -41.5q0 -26 -18 -43.5t-44 -17.5q-24 0 -41.5 17.5t-17.5 43.5q0 24 17.5 41.5t41.5 17.5q25 0 43.5 -17.5z
M330.5 -239q17.5 -18 17.5 -43t-17.5 -42t-41.5 -17t-41.5 17t-17.5 42t17.5 43t41.5 18t41.5 -18z" />
    <glyph glyph-name="uni06AE.fina" unicode="&#x6ae;" horiz-adv-x="870" 
d="M890 71l-20 -71q-64 0 -106.5 14t-73.5 55q-107 -70 -265 -83l-1 -4q-35 0 -52 1q-12 -1 -37 -1l-1 2q-118 5 -181.5 28t-88.5 67t-25 119q0 40 10.5 83t28.5 80l94 -29q-16 -59 -16 -99q0 -37 18 -57.5t66 -30.5t141 -12q78 2 137.5 16t111.5 41v575l121 16v-514
q0 -45 10.5 -69.5t39 -36t81.5 -11.5zM395.5 344.5q28.5 5.5 28.5 15.5t-21 19.5t-87 22.5l16 80l172 101l-5 -90l-93 -48q53 -15 74.5 -34.5t21.5 -53.5q0 -58 -60.5 -77t-141.5 -19l-12 78q79 0 107.5 5.5zM345.5 -104.5q17.5 -17.5 17.5 -41.5q0 -26 -17.5 -43.5
t-41.5 -17.5q-26 0 -44 17.5t-18 43.5q0 24 18.5 41.5t43.5 17.5q24 0 41.5 -17.5zM523.5 -104.5q18.5 -17.5 18.5 -41.5q0 -26 -18 -43.5t-44 -17.5q-24 0 -41.5 17.5t-17.5 43.5q0 24 17.5 41.5t41.5 17.5q25 0 43.5 -17.5zM433.5 -239q17.5 -18 17.5 -43t-17.5 -42
t-41.5 -17t-41.5 17t-17.5 42t17.5 43t41.5 18t41.5 -18z" />
    <glyph glyph-name="uni06B2.init" unicode="&#x6b2;" horiz-adv-x="462" 
d="M425 809l-396 -214l25 101l377 208zM25 549l405 219l-8 -141l-268 -144q92 -47 139.5 -89.5t64 -83t16.5 -91.5q0 -100 -89.5 -159.5t-284.5 -59.5l-20 67l32 83q101 0 156 9t75.5 27t20.5 47q0 23 -17 44.5t-75 55t-176 86.5zM-2.5 -187.5q-18.5 18.5 -18.5 44.5
t18.5 44.5t44.5 18.5t44.5 -18.5t18.5 -44.5t-18.5 -44.5t-44.5 -18.5t-44.5 18.5zM163 -187.5q-19 18.5 -19 44.5t19 44.5t45 18.5t44 -18.5t18 -44.5t-18 -44.5t-44 -18.5t-45 18.5z" />
    <glyph glyph-name="uni06B2.medi" unicode="&#x6b2;" horiz-adv-x="537" 
d="M453 809l-396 -214l24 101l378 208zM557 71l-20 -71q-93 0 -154.5 34.5t-121.5 124.5q-6 -70 -72.5 -114.5t-188.5 -44.5l-20 67l32 83q63 0 97 6.5t47 19.5t13 34q0 22 -17.5 52.5t-57.5 79.5l-67 81l28 126l405 219l-7 -135l-307 -165l151 -187q44 -55 76.5 -82t72 -38
t103.5 -11zM161.5 -187.5q-18.5 18.5 -18.5 44.5t18.5 44.5t44.5 18.5t44.5 -18.5t18.5 -44.5t-18.5 -44.5t-44.5 -18.5t-44.5 18.5zM327 -187.5q-19 18.5 -19 44.5t19 44.5t45 18.5t44 -18.5t18 -44.5t-18 -44.5t-44 -18.5t-45 18.5z" />
    <glyph glyph-name="uni06B2.fina" unicode="&#x6b2;" horiz-adv-x="994" 
d="M912 809l-396 -214l24 101l378 208zM1014 71l-20 -71q-93 0 -154.5 34.5t-121.5 124.5q-6 -67 -74 -114.5t-219 -59.5l-1 -3q-34 0 -51 1q-12 -1 -38 -1l-1 2q-118 5 -181.5 28t-88.5 67t-25 119q0 40 10.5 83t28.5 80l94 -29q-16 -59 -16 -99q0 -37 18.5 -57.5t68 -31
t145.5 -12.5q139 3 188.5 24t49.5 54q0 22 -17.5 52.5t-57.5 79.5l-67 81l28 126l405 219l-7 -141l-303 -163l173 -214q36 -45 63.5 -65.5t63 -27.5t99.5 -7zM249.5 -187.5q-18.5 18.5 -18.5 44.5t18.5 44.5t44.5 18.5t44.5 -18.5t18.5 -44.5t-18.5 -44.5t-44.5 -18.5
t-44.5 18.5zM415 -187.5q-19 18.5 -19 44.5t19 44.5t45 18.5t44 -18.5t18 -44.5t-18 -44.5t-44 -18.5t-45 18.5z" />
    <glyph glyph-name="uniFBD4" unicode="&#x6ad;" horiz-adv-x="870" arabic-form="final" 
d="M890 71l-20 -71q-64 0 -106.5 14t-73.5 55q-107 -70 -265 -83l-1 -4q-35 0 -52 1q-12 -1 -37 -1l-1 2q-118 5 -181.5 28t-88.5 67t-25 119q0 40 10.5 83t28.5 80l94 -29q-16 -59 -16 -99q0 -37 18 -57.5t66 -30.5t141 -12q78 2 137.5 16t111.5 41v575l121 16v-514
q0 -45 10.5 -69.5t39 -36t81.5 -11.5zM395.5 344.5q28.5 5.5 28.5 15.5t-21 19.5t-87 22.5l16 80l172 101l-5 -90l-93 -48q53 -15 74.5 -34.5t21.5 -53.5q0 -58 -60.5 -77t-141.5 -19l-12 78q79 0 107.5 5.5zM648.5 991q-17.5 18 -17.5 43t17.5 42t41.5 17t41.5 -17
t17.5 -42t-17.5 -43t-41.5 -18t-41.5 18zM558 857q-18 17 -18 42t18 43t44 18q24 0 41.5 -18t17.5 -43t-17.5 -42t-41.5 -17q-26 0 -44 17zM736.5 857q-17.5 17 -17.5 42t17.5 43t41.5 18q26 0 44 -18t18 -43t-18 -42t-44 -17q-24 0 -41.5 17z" />
    <glyph glyph-name="uniFBD6" unicode="&#x6ad;" horiz-adv-x="537" arabic-form="medial" 
d="M557 71l-20 -71q-93 0 -154.5 34.5t-121.5 124.5q-6 -70 -72.5 -114.5t-188.5 -44.5l-20 67l32 83q63 0 97 6.5t47 19.5t13 34q0 22 -17.5 52.5t-57.5 79.5l-67 81l28 126l405 219l-7 -135l-307 -165l151 -187q44 -55 76.5 -82t72 -38t103.5 -11zM56.5 862
q-17.5 18 -17.5 43t17.5 42t41.5 17t41.5 -17t17.5 -42t-17.5 -43t-41.5 -18t-41.5 18zM-34 728q-18 17 -18 42t18 43t44 18q24 0 41.5 -18t17.5 -43t-17.5 -42t-41.5 -17q-26 0 -44 17zM144.5 728q-17.5 17 -17.5 42t17.5 43t41.5 18q26 0 44 -18t18 -43t-18 -42t-44 -17
q-24 0 -41.5 17z" />
    <glyph glyph-name="uniFBD5" unicode="&#x6ad;" horiz-adv-x="459" arabic-form="initial" 
d="M422 627l-268 -144q92 -47 139.5 -89.5t64 -83t16.5 -91.5q0 -100 -89.5 -159.5t-284.5 -59.5l-20 67l32 83q101 0 156 9t75.5 27t20.5 47q0 23 -17 44.5t-75 55t-176 86.5l29 130l405 219zM27.5 862q-17.5 18 -17.5 43t17.5 42t41.5 17t41.5 -17t17.5 -42t-17.5 -43
t-41.5 -18t-41.5 18zM-63 728q-18 17 -18 42t18 43t44 18q24 0 41.5 -18t17.5 -43t-17.5 -42t-41.5 -17q-26 0 -44 17zM115.5 728q-17.5 17 -17.5 42t17.5 43t41.5 18q26 0 44 -18t18 -43t-18 -42t-44 -17q-24 0 -41.5 17z" />
    <glyph glyph-name="uniFB9B" unicode="&#x6b1;" horiz-adv-x="994" arabic-form="final" 
d="M912 809l-396 -214l24 101l378 208zM1014 71l-20 -71q-93 0 -154.5 34.5t-121.5 124.5q-6 -67 -74 -114.5t-219 -59.5l-1 -3q-34 0 -51 1q-12 -1 -38 -1l-1 2q-118 5 -181.5 28t-88.5 67t-25 119q0 40 10.5 83t28.5 80l94 -29q-16 -59 -16 -99q0 -37 18.5 -57.5t68 -31
t145.5 -12.5q139 3 188.5 24t49.5 54q0 22 -17.5 52.5t-57.5 79.5l-67 81l28 126l405 219l-7 -141l-303 -163l173 -214q36 -45 63.5 -65.5t63 -27.5t99.5 -7zM373.5 810.5q-18.5 18.5 -18.5 45.5q0 26 18.5 44t44.5 18t44.5 -18t18.5 -44q0 -27 -18.5 -45.5t-44.5 -18.5
t-44.5 18.5zM539 810.5q-19 18.5 -19 45.5q0 26 19 44t45 18t44 -18t18 -44q0 -27 -18 -45.5t-44 -18.5t-45 18.5z" />
    <glyph glyph-name="uniFB9D" unicode="&#x6b1;" horiz-adv-x="537" arabic-form="medial" 
d="M453 809l-396 -214l24 101l378 208zM557 71l-20 -71q-93 0 -154.5 34.5t-121.5 124.5q-6 -70 -72.5 -114.5t-188.5 -44.5l-20 67l32 83q63 0 97 6.5t47 19.5t13 34q0 22 -17.5 52.5t-57.5 79.5l-67 81l28 126l405 219l-7 -135l-307 -165l151 -187q44 -55 76.5 -82t72 -38
t103.5 -11zM-89.5 809.5q-18.5 18.5 -18.5 45.5q0 26 18.5 44t44.5 18t44.5 -18t18.5 -44q0 -27 -18.5 -45.5t-44.5 -18.5t-44.5 18.5zM76 809.5q-19 18.5 -19 45.5q0 26 19 44t45 18t44 -18t18 -44q0 -27 -18 -45.5t-44 -18.5t-45 18.5z" />
    <glyph glyph-name="uniFB9C" unicode="&#x6b1;" horiz-adv-x="462" arabic-form="initial" 
d="M425 809l-396 -214l25 101l377 208zM25 549l405 219l-8 -141l-268 -144q92 -47 139.5 -89.5t64 -83t16.5 -91.5q0 -100 -89.5 -159.5t-284.5 -59.5l-20 67l32 83q101 0 156 9t75.5 27t20.5 47q0 23 -17 44.5t-75 55t-176 86.5zM-108.5 810.5q-18.5 18.5 -18.5 45.5
q0 26 18.5 44t44.5 18t44.5 -18t18.5 -44q0 -27 -18.5 -45.5t-44.5 -18.5t-44.5 18.5zM57 810.5q-19 18.5 -19 45.5q0 26 19 44t45 18t44 -18t18 -44q0 -27 -18 -45.5t-44 -18.5t-45 18.5z" />
    <glyph glyph-name="uniFB97" unicode="&#x6b3;" horiz-adv-x="994" arabic-form="final" 
d="M912 809l-396 -214l24 101l378 208zM1014 71l-20 -71q-93 0 -154.5 34.5t-121.5 124.5q-6 -67 -74 -114.5t-219 -59.5l-1 -3q-34 0 -51 1q-12 -1 -38 -1l-1 2q-118 5 -181.5 28t-88.5 67t-25 119q0 40 10.5 83t28.5 80l94 -29q-16 -59 -16 -99q0 -37 18.5 -57.5t68 -31
t145.5 -12.5q139 3 188.5 24t49.5 54q0 22 -17.5 52.5t-57.5 79.5l-67 81l28 126l405 219l-7 -141l-303 -163l173 -214q36 -45 63.5 -65.5t63 -27.5t99.5 -7zM332.5 -177.5q-18.5 18.5 -18.5 44.5t18.5 44.5t44.5 18.5t44.5 -18.5t18.5 -44.5t-18.5 -44.5t-44.5 -18.5
t-44.5 18.5zM333 -336q-18 18 -18 44t18 44.5t44 18.5t45 -18.5t19 -44.5q0 -25 -19 -43.5t-45 -18.5t-44 18z" />
    <glyph glyph-name="uniFB99" unicode="&#x6b3;" horiz-adv-x="537" arabic-form="medial" 
d="M453 809l-396 -214l24 101l378 208zM557 71l-20 -71q-93 0 -154.5 34.5t-121.5 124.5q-6 -70 -72.5 -114.5t-188.5 -44.5l-20 67l32 83q63 0 97 6.5t47 19.5t13 34q0 22 -17.5 52.5t-57.5 79.5l-67 81l28 126l405 219l-7 -135l-307 -165l151 -187q44 -55 76.5 -82t72 -38
t103.5 -11zM244.5 -177.5q-18.5 18.5 -18.5 44.5t18.5 44.5t44.5 18.5t44.5 -18.5t18.5 -44.5t-18.5 -44.5t-44.5 -18.5t-44.5 18.5zM245 -336q-18 18 -18 44t18 44.5t44 18.5t45 -18.5t19 -44.5q0 -25 -19 -43.5t-45 -18.5t-44 18z" />
    <glyph glyph-name="uniFB98" unicode="&#x6b3;" horiz-adv-x="462" arabic-form="initial" 
d="M425 809l-396 -214l25 101l377 208zM25 549l405 219l-8 -141l-268 -144q92 -47 139.5 -89.5t64 -83t16.5 -91.5q0 -100 -89.5 -159.5t-284.5 -59.5l-20 67l32 83q101 0 156 9t75.5 27t20.5 47q0 23 -17 44.5t-75 55t-176 86.5zM80.5 -177.5q-18.5 18.5 -18.5 44.5
t18.5 44.5t44.5 18.5t44.5 -18.5t18.5 -44.5t-18.5 -44.5t-44.5 -18.5t-44.5 18.5zM81 -336q-18 18 -18 44t18 44.5t44 18.5t45 -18.5t19 -44.5q0 -25 -19 -43.5t-45 -18.5t-44 18z" />
    <glyph glyph-name="uniFEDE" unicode="&#x644;" horiz-adv-x="717" arabic-form="final" 
d="M717 0q-50 0 -84 26q-19 -127 -96 -186.5t-224 -59.5q-138 0 -206 67.5t-68 192.5q0 59 16.5 113t38.5 93l95 -27q-28 -72 -28 -154q0 -64 39.5 -99.5t124.5 -35.5q71 0 113 17.5t61 57.5t19 110v648l121 17v-556q0 -45 20.5 -59.5t70.5 -14.5l7 -81z" />
    <glyph glyph-name="uniFEE0" unicode="&#x644;" horiz-adv-x="268" arabic-form="medial" 
d="M288 68l-20 -68q-88 0 -134 60q-25 -33 -57.5 -46.5t-76.5 -13.5l-20 67l32 83q29 0 42 6.5t17 22t4 49.5v535l121 17v-550q0 -47 18 -63.5t67 -16.5z" />
    <glyph glyph-name="uniFEDF" unicode="&#x644;" horiz-adv-x="264" arabic-form="initial" 
d="M-20 67l32 83q41 0 59 18t18 69v526l121 17v-542q0 -85 -18.5 -136t-64 -76.5t-127.5 -25.5z" />
    <glyph glyph-name="uni06B5.init" unicode="&#x6b5;" horiz-adv-x="264" 
d="M-20 67l32 83q41 0 59 18t18 69v526l121 17v-542q0 -85 -18.5 -136t-64 -76.5t-127.5 -25.5zM149 907l46 77l69 -29l-81 -143h-70l-79 143l69 29z" />
    <glyph glyph-name="uni06B5.medi" unicode="&#x6b5;" horiz-adv-x="268" 
d="M288 68l-20 -68q-88 0 -134 60q-25 -33 -57.5 -46.5t-76.5 -13.5l-20 67l32 83q29 0 42 6.5t17 22t4 49.5v535l121 17v-550q0 -47 18 -63.5t67 -16.5zM135 905l46 77l69 -29l-81 -143h-70l-79 143l69 29z" />
    <glyph glyph-name="uni06B5.fina" unicode="&#x6b5;" horiz-adv-x="717" 
d="M717 0q-50 0 -84 26q-19 -127 -96 -186.5t-224 -59.5q-138 0 -206 67.5t-68 192.5q0 59 16.5 113t38.5 93l95 -27q-28 -72 -28 -154q0 -64 39.5 -99.5t124.5 -35.5q71 0 113 17.5t61 57.5t19 110v648l121 17v-556q0 -45 20.5 -59.5t70.5 -14.5l7 -81zM578 905l46 77
l69 -29l-81 -143h-70l-79 143l69 29z" />
    <glyph glyph-name="uni06B6.init" unicode="&#x6b6;" horiz-adv-x="264" 
d="M-20 67l32 83q41 0 59 18t18 69v526l121 17v-542q0 -85 -18.5 -136t-64 -76.5t-127.5 -25.5zM99 858q-20 20 -20 49q0 28 20.5 48.5t48.5 20.5q29 0 49 -20.5t20 -48.5q0 -29 -20 -49t-49 -20t-49 20z" />
    <glyph glyph-name="uni06B6.medi" unicode="&#x6b6;" horiz-adv-x="268" 
d="M288 68l-20 -68q-88 0 -134 60q-25 -33 -57.5 -46.5t-76.5 -13.5l-20 67l32 83q29 0 42 6.5t17 22t4 49.5v535l121 17v-550q0 -47 18 -63.5t67 -16.5zM85 856q-20 20 -20 49q0 28 20.5 48.5t48.5 20.5q29 0 49 -20.5t20 -48.5q0 -29 -20 -49t-49 -20t-49 20z" />
    <glyph glyph-name="uni06B6.fina" unicode="&#x6b6;" horiz-adv-x="717" 
d="M717 0q-50 0 -84 26q-19 -127 -96 -186.5t-224 -59.5q-138 0 -206 67.5t-68 192.5q0 59 16.5 113t38.5 93l95 -27q-28 -72 -28 -154q0 -64 39.5 -99.5t124.5 -35.5q71 0 113 17.5t61 57.5t19 110v648l121 17v-556q0 -45 20.5 -59.5t70.5 -14.5l7 -81zM528 856
q-20 20 -20 49q0 28 20.5 48.5t48.5 20.5q29 0 49 -20.5t20 -48.5q0 -29 -20 -49t-49 -20t-49 20z" />
    <glyph glyph-name="uni06B7.init" unicode="&#x6b7;" horiz-adv-x="264" 
d="M-20 67l32 83q41 0 59 18t18 69v526l121 17v-542q0 -85 -18.5 -136t-64 -76.5t-127.5 -25.5zM107.5 993q-17.5 18 -17.5 43t17.5 42t41.5 17t41.5 -17t17.5 -42t-17.5 -43t-41.5 -18t-41.5 18zM17 859q-18 17 -18 42t18 43t44 18q24 0 41.5 -18t17.5 -43t-17.5 -42
t-41.5 -17q-26 0 -44 17zM195.5 859q-17.5 17 -17.5 42t17.5 43t41.5 18q26 0 44 -18t18 -43t-18 -42t-44 -17q-24 0 -41.5 17z" />
    <glyph glyph-name="uni06B7.medi" unicode="&#x6b7;" horiz-adv-x="268" 
d="M288 68l-20 -68q-88 0 -134 60q-25 -33 -57.5 -46.5t-76.5 -13.5l-20 67l32 83q29 0 42 6.5t17 22t4 49.5v535l121 17v-550q0 -47 18 -63.5t67 -16.5zM93.5 991q-17.5 18 -17.5 43t17.5 42t41.5 17t41.5 -17t17.5 -42t-17.5 -43t-41.5 -18t-41.5 18zM3 857q-18 17 -18 42
t18 43t44 18q24 0 41.5 -18t17.5 -43t-17.5 -42t-41.5 -17q-26 0 -44 17zM181.5 857q-17.5 17 -17.5 42t17.5 43t41.5 18q26 0 44 -18t18 -43t-18 -42t-44 -17q-24 0 -41.5 17z" />
    <glyph glyph-name="uni06B7.fina" unicode="&#x6b7;" horiz-adv-x="717" 
d="M717 0q-50 0 -84 26q-19 -127 -96 -186.5t-224 -59.5q-138 0 -206 67.5t-68 192.5q0 59 16.5 113t38.5 93l95 -27q-28 -72 -28 -154q0 -64 39.5 -99.5t124.5 -35.5q71 0 113 17.5t61 57.5t19 110v648l121 17v-556q0 -45 20.5 -59.5t70.5 -14.5l7 -81zM536.5 991
q-17.5 18 -17.5 43t17.5 42t41.5 17t41.5 -17t17.5 -42t-17.5 -43t-41.5 -18t-41.5 18zM446 857q-18 17 -18 42t18 43t44 18q24 0 41.5 -18t17.5 -43t-17.5 -42t-41.5 -17q-26 0 -44 17zM624.5 857q-17.5 17 -17.5 42t17.5 43t41.5 18q26 0 44 -18t18 -43t-18 -42t-44 -17
q-24 0 -41.5 17z" />
    <glyph glyph-name="uni06B8.init" unicode="&#x6b8;" horiz-adv-x="264" 
d="M-20 67l32 83q41 0 59 18t18 69v526l121 17v-542q0 -85 -18.5 -136t-64 -76.5t-127.5 -25.5zM101.5 -104.5q17.5 -17.5 17.5 -41.5q0 -26 -17.5 -43.5t-41.5 -17.5q-26 0 -44 17.5t-18 43.5q0 24 18.5 41.5t43.5 17.5q24 0 41.5 -17.5zM279.5 -104.5
q18.5 -17.5 18.5 -41.5q0 -26 -18 -43.5t-44 -17.5q-24 0 -41.5 17.5t-17.5 43.5q0 24 17.5 41.5t41.5 17.5q25 0 43.5 -17.5zM189.5 -239q17.5 -18 17.5 -43t-17.5 -42t-41.5 -17t-41.5 17t-17.5 42t17.5 43t41.5 18t41.5 -18z" />
    <glyph glyph-name="uni06B8.medi" unicode="&#x6b8;" horiz-adv-x="268" 
d="M288 68l-20 -68q-88 0 -134 60q-25 -33 -57.5 -46.5t-76.5 -13.5l-20 67l32 83q29 0 42 6.5t17 22t4 49.5v535l121 17v-550q0 -47 18 -63.5t67 -16.5zM87.5 -104.5q17.5 -17.5 17.5 -41.5q0 -26 -17.5 -43.5t-41.5 -17.5q-26 0 -44 17.5t-18 43.5q0 24 18.5 41.5
t43.5 17.5q24 0 41.5 -17.5zM265.5 -104.5q18.5 -17.5 18.5 -41.5q0 -26 -18 -43.5t-44 -17.5q-24 0 -41.5 17.5t-17.5 43.5q0 24 17.5 41.5t41.5 17.5q25 0 43.5 -17.5zM175.5 -239q17.5 -18 17.5 -43t-17.5 -42t-41.5 -17t-41.5 17t-17.5 42t17.5 43t41.5 18t41.5 -18z
" />
    <glyph glyph-name="uni06B8.fina" unicode="&#x6b8;" horiz-adv-x="717" 
d="M717 0q-50 0 -84 26q-19 -127 -96 -186.5t-224 -59.5q-138 0 -206 67.5t-68 192.5q0 59 16.5 113t38.5 93l95 -27q-28 -72 -28 -154q0 -64 39.5 -99.5t124.5 -35.5q71 0 113 17.5t61 57.5t19 110v648l121 17v-556q0 -45 20.5 -59.5t70.5 -14.5l7 -81zM267.5 -319.5
q17.5 -17.5 17.5 -41.5q0 -26 -17.5 -43.5t-41.5 -17.5q-26 0 -44 17.5t-18 43.5q0 24 18.5 41.5t43.5 17.5q24 0 41.5 -17.5zM445.5 -319.5q18.5 -17.5 18.5 -41.5q0 -26 -18 -43.5t-44 -17.5q-24 0 -41.5 17.5t-17.5 43.5q0 24 17.5 41.5t41.5 17.5q25 0 43.5 -17.5z
M355.5 -454q17.5 -18 17.5 -43t-17.5 -42t-41.5 -17t-41.5 17t-17.5 42t17.5 43t41.5 18t41.5 -18z" />
    <glyph glyph-name="uniFEE2" unicode="&#x645;" horiz-adv-x="729" arabic-form="final" 
d="M749 69l-20 -69q-39 0 -70 14.5t-51 40.5q-40 -73 -114 -73q-53 0 -98 20.5t-105 57.5q-30 20 -47 29t-30 9q-30 0 -39 -28.5t-9 -70.5q0 -54 14 -145t33 -185l-141 -22q-16 101 -24.5 178.5t-8.5 159.5q0 119 34 195t112 76q21 0 44 -10q56 113 109 162t127 49
q46 0 85.5 -28.5t64.5 -81t27 -122.5q0 -45 22.5 -60t76.5 -15zM515.5 151.5q17.5 24.5 17.5 67.5q0 46 -23 69t-60 23q-35 0 -64 -28.5t-63 -93.5q42 -30 75.5 -46t68.5 -16q31 0 48.5 24.5z" />
    <glyph glyph-name="uniFEE4" unicode="&#x645;" horiz-adv-x="620" arabic-form="medial" 
d="M640 69l-20 -69q-38 0 -68.5 14t-51.5 40q-39 -72 -115 -72q-55 0 -110.5 24.5t-116.5 70.5q-28 -43 -61 -60t-74 -17h-23l-20 66l32 84h14q20 0 33.5 7t28.5 27.5t35 61.5q54 113 106.5 162t124.5 49q49 0 89 -29t64 -81.5t26 -121.5q0 -45 23 -60t76 -15zM407.5 152
q17.5 25 17.5 65q0 46 -23 70.5t-61 24.5q-36 0 -65 -27.5t-63 -98.5q89 -59 147 -59q30 0 47.5 25z" />
    <glyph glyph-name="uniFEE3" unicode="&#x645;" horiz-adv-x="582" arabic-form="initial" 
d="M445.5 426q40.5 -31 64 -86.5t23.5 -128.5q0 -107 -39 -168t-109 -61q-55 0 -110.5 24.5t-116.5 70.5q-28 -43 -61 -60t-74 -17h-23l-20 66l32 84h14q20 0 33.5 7t28.5 27.5t35 61.5q54 113 106.5 162t124.5 49q51 0 91.5 -31zM407.5 152q17.5 25 17.5 65q0 46 -23 70.5
t-61 24.5q-36 0 -65 -27.5t-63 -98.5q89 -59 147 -59q30 0 47.5 25z" />
    <glyph glyph-name="uniFEE6" unicode="&#x646;" horiz-adv-x="727" arabic-form="final" 
d="M727 0q-53 0 -86 27q-5 -112 -46 -175t-110.5 -87.5t-171.5 -24.5h-1q-138 0 -205.5 67.5t-67.5 192.5q0 59 16.5 112.5t38.5 94.5l95 -28q-28 -72 -28 -154q0 -64 39.5 -99.5t124.5 -35.5q105 0 150.5 36.5t45.5 120.5q0 58 -16 115.5t-48 123.5l134 54q16 -52 37 -106
q14 -36 30 -54t34.5 -24t46.5 -6l8 -83zM275 354q-20 20 -20 49q0 28 20.5 48.5t48.5 20.5q29 0 49 -20.5t20 -48.5q0 -29 -20 -49t-49 -20t-49 20z" />
    <glyph glyph-name="uniFEE8" unicode="&#x646;" horiz-adv-x="331" arabic-form="medial" 
d="M351 68l-20 -68q-61 0 -100.5 14.5t-64.5 51.5q-26 -37 -64.5 -51.5t-101.5 -14.5l-20 67l33 83q45 0 64 7t24 24t5 56v101h121v-99q0 -38 8 -56t32.5 -25.5t75.5 -7.5zM117 431q-20 20 -20 49q0 28 20.5 48.5t48.5 20.5q29 0 49 -20.5t20 -48.5q0 -29 -20 -49t-49 -20
t-49 20z" />
    <glyph glyph-name="uniFEE7" unicode="&#x646;" horiz-adv-x="318" arabic-form="initial" 
d="M98 155q28 5 38 17t10 36q0 47 -48 172l129 42q20 -62 31 -123.5t11 -108.5q0 -78 -25.5 -118.5t-82 -56t-161.5 -15.5l-20 67l32 83q58 0 86 5zM76 503q-20 20 -20 49q0 28 20.5 48.5t48.5 20.5q29 0 49 -20.5t20 -48.5q0 -29 -20 -49t-49 -20t-49 20z" />
    <glyph glyph-name="uni06B9.init" unicode="&#x6b9;" horiz-adv-x="318" 
d="M98 155q28 5 38 17t10 36q0 47 -48 172l129 42q20 -62 31 -123.5t11 -108.5q0 -78 -25.5 -118.5t-82 -56t-161.5 -15.5l-20 67l32 83q58 0 86 5zM100 -200q-20 20 -20 49q0 28 20.5 48.5t48.5 20.5q29 0 49 -20.5t20 -48.5q0 -29 -20 -49t-49 -20t-49 20zM76 503
q-20 20 -20 49q0 28 20.5 48.5t48.5 20.5q29 0 49 -20.5t20 -48.5q0 -29 -20 -49t-49 -20t-49 20z" />
    <glyph glyph-name="uni06B9.medi" unicode="&#x6b9;" horiz-adv-x="331" 
d="M351 68l-20 -68q-61 0 -100.5 14.5t-64.5 51.5q-26 -37 -64.5 -51.5t-101.5 -14.5l-20 67l33 83q45 0 64 7t24 24t5 56v101h121v-99q0 -38 8 -56t32.5 -25.5t75.5 -7.5zM117 -200q-20 20 -20 49q0 28 20.5 48.5t48.5 20.5q29 0 49 -20.5t20 -48.5q0 -29 -20 -49t-49 -20
t-49 20zM117 431q-20 20 -20 49q0 28 20.5 48.5t48.5 20.5q29 0 49 -20.5t20 -48.5q0 -29 -20 -49t-49 -20t-49 20z" />
    <glyph glyph-name="uni06B9.fina" unicode="&#x6b9;" horiz-adv-x="727" 
d="M727 0q-53 0 -86 27q-5 -112 -46 -175t-110.5 -87.5t-171.5 -24.5h-1q-138 0 -205.5 67.5t-67.5 192.5q0 59 16.5 112.5t38.5 94.5l95 -28q-28 -72 -28 -154q0 -64 39.5 -99.5t124.5 -35.5q105 0 150.5 36.5t45.5 120.5q0 58 -16 115.5t-48 123.5l134 54q16 -52 37 -106
q14 -36 30 -54t34.5 -24t46.5 -6l8 -83zM274 -447q-20 20 -20 49q0 28 20.5 48.5t48.5 20.5q29 0 49 -20.5t20 -48.5q0 -29 -20 -49t-49 -20t-49 20zM275 354q-20 20 -20 49q0 28 20.5 48.5t48.5 20.5q29 0 49 -20.5t20 -48.5q0 -29 -20 -49t-49 -20t-49 20z" />
    <glyph glyph-name="uniFB9F" unicode="&#x6ba;" horiz-adv-x="727" arabic-form="final" 
d="M727 0q-53 0 -86 27q-5 -112 -46 -175t-110.5 -87.5t-171.5 -24.5h-1q-138 0 -205.5 67.5t-67.5 192.5q0 59 16.5 112.5t38.5 94.5l95 -28q-28 -72 -28 -154q0 -64 39.5 -99.5t124.5 -35.5q105 0 150.5 36.5t45.5 120.5q0 58 -16 115.5t-48 123.5l134 54q16 -52 37 -106
q14 -36 30 -54t34.5 -24t46.5 -6l8 -83z" />
    <glyph glyph-name="uniFBA1" unicode="&#x6bb;" horiz-adv-x="727" arabic-form="final" 
d="M727 0q-53 0 -86 27q-5 -112 -46 -175t-110.5 -87.5t-171.5 -24.5h-1q-138 0 -205.5 67.5t-67.5 192.5q0 59 16.5 112.5t38.5 94.5l95 -28q-28 -72 -28 -154q0 -64 39.5 -99.5t124.5 -35.5q105 0 150.5 36.5t45.5 120.5q0 58 -16 115.5t-48 123.5l134 54q16 -52 37 -106
q14 -36 30 -54t34.5 -24t46.5 -6l8 -83zM432.5 492q20.5 -26 20.5 -66q0 -32 -24.5 -60.5t-78.5 -28.5h-155l8 67h32v149h65v-68q19 18 36 25.5t37 7.5q39 0 59.5 -26zM380 409.5q11 5.5 11 18.5q0 23 -26 23q-36 0 -79 -47h55q28 0 39 5.5z" />
    <glyph glyph-name="uniFBA3" unicode="&#x6bb;" horiz-adv-x="331" arabic-form="medial" 
d="M351 68l-20 -68q-61 0 -100.5 14.5t-64.5 51.5q-26 -37 -64.5 -51.5t-101.5 -14.5l-20 67l33 83q45 0 64 7t24 24t5 56v101h121v-99q0 -38 8 -56t32.5 -25.5t75.5 -7.5zM273.5 569q20.5 -26 20.5 -66q0 -32 -24.5 -60.5t-78.5 -28.5h-155l8 67h32v149h65v-68
q19 18 36 25.5t37 7.5q39 0 59.5 -26zM221 486.5q11 5.5 11 18.5q0 23 -26 23q-36 0 -79 -47h55q28 0 39 5.5z" />
    <glyph glyph-name="uniFBA2" unicode="&#x6bb;" horiz-adv-x="318" arabic-form="initial" 
d="M98 155q28 5 38 17t10 36q0 47 -48 172l129 42q20 -62 31 -123.5t11 -108.5q0 -78 -25.5 -118.5t-82 -56t-161.5 -15.5l-20 67l32 83q58 0 86 5zM232.5 641q20.5 -26 20.5 -66q0 -32 -24.5 -60.5t-78.5 -28.5h-155l8 67h32v149h65v-68q19 18 36 25.5t37 7.5
q39 0 59.5 -26zM180 558.5q11 5.5 11 18.5q0 23 -26 23q-36 0 -79 -47h55q28 0 39 5.5z" />
    <glyph glyph-name="uni06BC.init" unicode="&#x6bc;" horiz-adv-x="318" 
d="M76.5 504q-19.5 20 -19.5 49t20 48.5t48 19.5q29 0 49 -19.5t20 -48.5t-20 -49t-49 -20t-48.5 20zM255.5 95.5q-13.5 -36.5 -43.5 -57.5q23 -26 23 -62q0 -41 -27.5 -67.5t-68.5 -26.5q-40 0 -68 26.5t-28 67.5q0 13 3 25q-14 -1 -46 -1l-20 67l32 83q58 0 86 5t38 17
t10 36q0 47 -48 172l129 42q20 -62 31 -123.5t11 -108.5q0 -58 -13.5 -94.5zM165.5 -48q9.5 10 9.5 24t-10 23.5t-26 9.5t-25.5 -9.5t-9.5 -23.5t9.5 -24t25.5 -10q17 0 26.5 10z" />
    <glyph glyph-name="uni06BC.medi" unicode="&#x6bc;" horiz-adv-x="331" 
d="M117 431q-20 20 -20 49t20 49t49 20q28 0 48 -20t20 -49t-19.5 -49t-48.5 -20t-49 20zM230.5 14.5q-39.5 14.5 -64.5 51.5l-5 -6q21 -12 33.5 -33.5t12.5 -47.5q0 -41 -28 -67.5t-68 -26.5q-41 0 -69 26.5t-28 67.5q0 7 2 21h-16l-20 67l33 83q45 0 64 7t24 24t5 56v101
h121v-99q0 -38 8 -56t32.5 -25.5t75.5 -7.5l8 -82l-20 -68q-61 0 -100.5 14.5zM137 -44.5q9 9.5 9 23.5q0 15 -9.5 24t-25.5 9t-26 -9.5t-10 -23.5t9.5 -23.5t26.5 -9.5t26 9.5z" />
    <glyph glyph-name="uni06BC.fina" unicode="&#x6bc;" horiz-adv-x="727" 
d="M276 354q-20 20 -20 49t19.5 49t48.5 20t49 -20t20 -49t-20 -49t-49 -20q-28 0 -48 20zM727 0q-53 0 -86 27q-6 -138 -66.5 -203t-172.5 -79q6 -15 6 -34q0 -41 -27.5 -67.5t-68.5 -26.5q-40 0 -68 26.5t-28 67.5q0 19 8 38q-93 20 -139 84t-46 167q0 59 16.5 112.5
t38.5 94.5l95 -28q-28 -72 -28 -154q0 -64 39.5 -99.5t124.5 -35.5q105 0 150.5 36.5t45.5 120.5q0 58 -16 115.5t-48 123.5l134 54q16 -52 37 -106q14 -36 30 -54t34.5 -24t46.5 -6l8 -83zM343 -271.5q-5 7.5 -13 11.5h-17v0h-1h-17q-8 -4 -13 -11.5t-5 -17.5
q0 -14 9.5 -23.5t25.5 -9.5q17 0 26.5 9.5t9.5 23.5q0 10 -5 17.5z" />
    <glyph glyph-name="uni06BD.init" unicode="&#x6bd;" horiz-adv-x="318" 
d="M98 155q28 5 38 17t10 36q0 47 -48 172l129 42q20 -62 31 -123.5t11 -108.5q0 -78 -25.5 -118.5t-82 -56t-161.5 -15.5l-20 67l32 83q58 0 86 5zM84.5 638q-17.5 18 -17.5 43t17.5 42t41.5 17t41.5 -17t17.5 -42t-17.5 -43t-41.5 -18t-41.5 18zM-6 504q-18 17 -18 42
t18 43t44 18q24 0 41.5 -18t17.5 -43t-17.5 -42t-41.5 -17q-26 0 -44 17zM172.5 504q-17.5 17 -17.5 42t17.5 43t41.5 18q26 0 44 -18t18 -43t-18 -42t-44 -17q-24 0 -41.5 17z" />
    <glyph glyph-name="uni06BD.medi" unicode="&#x6bd;" horiz-adv-x="331" 
d="M351 68l-20 -68q-61 0 -100.5 14.5t-64.5 51.5q-26 -37 -64.5 -51.5t-101.5 -14.5l-20 67l33 83q45 0 64 7t24 24t5 56v101h121v-99q0 -38 8 -56t32.5 -25.5t75.5 -7.5zM125.5 566q-17.5 18 -17.5 43t17.5 42t41.5 17t41.5 -17t17.5 -42t-17.5 -43t-41.5 -18t-41.5 18z
M35 432q-18 17 -18 42t18 43t44 18q24 0 41.5 -18t17.5 -43t-17.5 -42t-41.5 -17q-26 0 -44 17zM213.5 432q-17.5 17 -17.5 42t17.5 43t41.5 18q26 0 44 -18t18 -43t-18 -42t-44 -17q-24 0 -41.5 17z" />
    <glyph glyph-name="uni06BD.fina" unicode="&#x6bd;" horiz-adv-x="727" 
d="M727 0q-53 0 -86 27q-5 -112 -46 -175t-110.5 -87.5t-171.5 -24.5h-1q-138 0 -205.5 67.5t-67.5 192.5q0 59 16.5 112.5t38.5 94.5l95 -28q-28 -72 -28 -154q0 -64 39.5 -99.5t124.5 -35.5q105 0 150.5 36.5t45.5 120.5q0 58 -16 115.5t-48 123.5l134 54q16 -52 37 -106
q14 -36 30 -54t34.5 -24t46.5 -6l8 -83zM284.5 489q-17.5 18 -17.5 43t17.5 42t41.5 17t41.5 -17t17.5 -42t-17.5 -43t-41.5 -18t-41.5 18zM194 355q-18 17 -18 42t18 43t44 18q24 0 41.5 -18t17.5 -43t-17.5 -42t-41.5 -17q-26 0 -44 17zM372.5 355q-17.5 17 -17.5 42
t17.5 43t41.5 18q26 0 44 -18t18 -43t-18 -42t-44 -17q-24 0 -41.5 17z" />
    <glyph glyph-name="uniFEEA" unicode="&#x647;" horiz-adv-x="522" arabic-form="final" 
d="M542 66l-20 -66h-35q-115 0 -153 88q-25 -31 -63.5 -48t-83.5 -17q-76 0 -121 44.5t-45 115.5q0 58 36.5 111.5t104 90t156.5 43.5v83l121 15v-295q0 -46 14 -63.5t47 -17.5h35zM155.5 169q17.5 -14 52.5 -14q60 0 110 41v106q-85 -4 -132.5 -31.5t-47.5 -64.5
q0 -23 17.5 -37z" />
    <glyph glyph-name="uniFEEC" unicode="&#x647;" horiz-adv-x="513" arabic-form="medial" 
d="M513 0h-96q74 -48 74 -129q0 -73 -46 -112t-114 -39q-63 0 -119 35t-93 99t-46 146h-73l-20 66l32 84h62q11 92 49 166.5t93 117.5t116 43q74 0 116 -45t42 -118q0 -47 -22.5 -91t-63.5 -73h121l8 -83zM258.5 312.5q-28.5 -20.5 -51.5 -62t-33 -100.5h19q51 0 93 16
t66.5 44.5t24.5 63.5q0 28 -15.5 43.5t-45.5 15.5q-29 0 -57.5 -20.5zM351 -124.5q16 14.5 16 38.5q0 38 -35.5 62t-97.5 24h-62q13 -68 50.5 -103.5t83.5 -35.5q29 0 45 14.5z" />
    <glyph glyph-name="uniFEEB" unicode="&#x647;" horiz-adv-x="651" arabic-form="initial" 
d="M447 398.5q91 -66.5 123 -115t32 -110.5q0 -48 -24 -92.5t-64.5 -71.5t-88.5 -27q-112 0 -201 47q-72 -29 -168 -29h-56l-20 65l32 85h84q-33 61 -33 124q0 50 20.5 91t56.5 65l-54 31l75 123q195 -119 286 -185.5zM313 273q0 37 -24 61.5t-58 24.5q-31 0 -54 -23
t-23 -61q0 -31 18.5 -58.5t52.5 -48.5q88 31 88 105zM477.5 131.5q17.5 13.5 17.5 35.5q0 20 -19 42.5t-73 59.5q-3 -82 -50 -146q38 -5 72 -5q35 0 52.5 13.5z" />
    <glyph glyph-name="uniFBA5" unicode="&#x6c0;" horiz-adv-x="522" arabic-form="final" 
d="M542 66l-20 -66h-35q-115 0 -153 88q-25 -31 -63.5 -48t-83.5 -17q-76 0 -121 44.5t-45 115.5q0 58 36.5 111.5t104 90t156.5 43.5v83l121 15v-295q0 -46 14 -63.5t47 -17.5h35zM155.5 169q17.5 -14 52.5 -14q60 0 110 41v106q-85 -4 -132.5 -31.5t-47.5 -64.5
q0 -23 17.5 -37zM492 602l-227 -36l-10 70l62 10q-35 31 -35 65q0 38 28 63.5t80 25.5q43 0 88 -27l-43 -66q-23 15 -43 15q-13 0 -20.5 -7.5t-7.5 -17.5q0 -16 23 -39l93 16z" />
    <glyph glyph-name="uniFBA7" unicode="&#x6c1;" horiz-adv-x="604" arabic-form="final" 
d="M21 -33q40 204 105 288.5t158 84.5q42 0 70 -12.5t45.5 -30t40.5 -48.5q24 -33 43.5 -52.5t52 -33t81.5 -13.5l7 -85l-20 -65q-81 0 -133 21t-79 49t-54 68q-20 29 -31.5 40.5t-28.5 11.5q-30 0 -51 -25t-38 -77t-39 -147z" />
    <glyph glyph-name="uniFBA9" unicode="&#x6c1;" horiz-adv-x="609" arabic-form="medial" 
d="M629 67l-20 -67h-36q-154 0 -154 -135q0 -58 24 -148l-109 -36q-75 84 -113.5 179t-41.5 193q-27 -28 -61.5 -40.5t-82.5 -12.5h-35l-20 67l32 83h38q44 0 72.5 18.5t50 59.5t46.5 117l7 22l118 -33q-47 -163 -47 -243q0 -49 5.5 -84t20.5 -80q10 223 265 223h34z" />
    <glyph glyph-name="uniFBA8" unicode="&#x6c1;" horiz-adv-x="318" arabic-form="initial" 
d="M98 155q28 5 38 17t10 36q0 47 -48 172l129 42q20 -62 31 -123.5t11 -108.5q0 -78 -25.5 -118.5t-82 -56t-161.5 -15.5l-20 67l32 83q58 0 86 5zM87.5 -255q-21.5 20 -21.5 56q0 20 5.5 38t18.5 44l38 82h48l-14 -100q52 -14 52 -71q0 -30 -20 -49.5t-51 -19.5
q-34 0 -55.5 20z" />
    <glyph glyph-name="uni06C2.fina" unicode="&#x6c2;" horiz-adv-x="604" 
d="M21 -33q40 204 105 288.5t158 84.5q42 0 70 -12.5t45.5 -30t40.5 -48.5q24 -33 43.5 -52.5t52 -33t81.5 -13.5l7 -85l-20 -65q-81 0 -133 21t-79 49t-54 68q-20 29 -31.5 40.5t-28.5 11.5q-30 0 -51 -25t-38 -77t-39 -147zM398 417l-227 -36l-10 70l62 10q-35 31 -35 65
q0 38 28 63.5t80 25.5q43 0 88 -27l-43 -66q-23 15 -43 15q-13 0 -20.5 -7.5t-7.5 -17.5q0 -16 23 -39l93 16z" />
    <glyph glyph-name="uniFBAB" unicode="&#x6be;" horiz-adv-x="600" arabic-form="final" 
d="M600 0h-96q74 -48 74 -129q0 -73 -46 -112t-114 -39q-63 0 -119 35.5t-93.5 99.5t-46.5 146q-50 3 -87 13.5t-59 25.5l57 132q37 -18 90 -21q11 91 49 166t93.5 117.5t115.5 42.5q74 0 116.5 -45t42.5 -118q0 -47 -22.5 -91t-63.5 -73h121l8 -83zM345 312.5
q-29 -20.5 -52 -62t-33 -100.5h19q52 0 94 16t66.5 44.5t24.5 63.5q0 28 -15.5 43.5t-45.5 15.5q-29 0 -58 -20.5zM437.5 -124.5q16.5 14.5 16.5 38.5q0 38 -35.5 62t-98.5 24h-61q13 -68 50.5 -103.5t82.5 -35.5q29 0 45.5 14.5z" />
    <glyph glyph-name="uniFBAD" unicode="&#x6be;" horiz-adv-x="513" arabic-form="medial" 
d="M513 0h-96q74 -48 74 -129q0 -73 -46 -112t-114 -39q-63 0 -119 35t-93 99t-46 146h-73l-20 66l32 84h62q11 92 49 166.5t93 117.5t116 43q74 0 116 -45t42 -118q0 -47 -22.5 -91t-63.5 -73h121l8 -83zM258.5 312.5q-28.5 -20.5 -51.5 -62t-33 -100.5h19q51 0 93 16
t66.5 44.5t24.5 63.5q0 28 -15.5 43.5t-45.5 15.5q-29 0 -57.5 -20.5zM351 -124.5q16 14.5 16 38.5q0 38 -35.5 62t-97.5 24h-62q13 -68 50.5 -103.5t83.5 -35.5q29 0 45 14.5z" />
    <glyph glyph-name="uniFBAC" unicode="&#x6be;" horiz-adv-x="651" arabic-form="initial" 
d="M447 398.5q91 -66.5 123 -115t32 -110.5q0 -48 -24 -92.5t-64.5 -71.5t-88.5 -27q-112 0 -201 47q-72 -29 -168 -29h-56l-20 65l32 85h84q-33 61 -33 124q0 50 20.5 91t56.5 65l-54 31l75 123q195 -119 286 -185.5zM313 273q0 37 -24 61.5t-58 24.5q-31 0 -54 -23
t-23 -61q0 -31 18.5 -58.5t52.5 -48.5q88 31 88 105zM477.5 131.5q17.5 13.5 17.5 35.5q0 20 -19 42.5t-73 59.5q-3 -82 -50 -146q38 -5 72 -5q35 0 52.5 13.5z" />
    <glyph glyph-name="uni06FF.init" unicode="&#x6ff;" horiz-adv-x="651" 
d="M447 398.5q91 -66.5 123 -115t32 -110.5q0 -48 -24 -92.5t-64.5 -71.5t-88.5 -27q-112 0 -201 47q-72 -29 -168 -29h-56l-20 65l32 85h84q-33 61 -33 124q0 50 20.5 91t56.5 65l-54 31l75 123q195 -119 286 -185.5zM313 273q0 37 -24 61.5t-58 24.5q-31 0 -54 -23
t-23 -61q0 -31 18.5 -58.5t52.5 -48.5q88 31 88 105zM477.5 131.5q17.5 13.5 17.5 35.5q0 20 -19 42.5t-73 59.5q-3 -82 -50 -146q38 -5 72 -5q35 0 52.5 13.5zM279 600l79 142h70l81 -142l-69 -30l-46 77l-46 -77z" />
    <glyph glyph-name="uni06FF.medi" unicode="&#x6ff;" horiz-adv-x="513" 
d="M513 0h-96q74 -48 74 -129q0 -73 -46 -112t-114 -39q-63 0 -119 35t-93 99t-46 146h-73l-20 66l32 84h62q11 92 49 166.5t93 117.5t116 43q74 0 116 -45t42 -118q0 -47 -22.5 -91t-63.5 -73h121l8 -83zM258.5 312.5q-28.5 -20.5 -51.5 -62t-33 -100.5h19q51 0 93 16
t66.5 44.5t24.5 63.5q0 28 -15.5 43.5t-45.5 15.5q-29 0 -57.5 -20.5zM351 -124.5q16 14.5 16 38.5q0 38 -35.5 62t-97.5 24h-62q13 -68 50.5 -103.5t83.5 -35.5q29 0 45 14.5zM217 575l79 142h70l81 -142l-69 -30l-46 77l-46 -77z" />
    <glyph glyph-name="uni06FF.fina" unicode="&#x6ff;" horiz-adv-x="600" 
d="M600 0h-96q74 -48 74 -129q0 -73 -46 -112t-114 -39q-63 0 -119 35.5t-93.5 99.5t-46.5 146q-50 3 -87 13.5t-59 25.5l57 132q37 -18 90 -21q11 91 49 166t93.5 117.5t115.5 42.5q74 0 116.5 -45t42.5 -118q0 -47 -22.5 -91t-63.5 -73h121l8 -83zM345 312.5
q-29 -20.5 -52 -62t-33 -100.5h19q52 0 94 16t66.5 44.5t24.5 63.5q0 28 -15.5 43.5t-45.5 15.5q-29 0 -58 -20.5zM437.5 -124.5q16.5 14.5 16.5 38.5q0 38 -35.5 62t-98.5 24h-61q13 -68 50.5 -103.5t82.5 -35.5q29 0 45.5 14.5zM303 575l79 142h70l81 -142l-69 -30l-46 77
l-46 -77z" />
    <glyph glyph-name="uniFE94" unicode="&#x629;" horiz-adv-x="522" arabic-form="final" 
d="M542 66l-20 -66h-35q-115 0 -153 88q-25 -31 -63.5 -48t-83.5 -17q-76 0 -121 44.5t-45 115.5q0 58 36.5 111.5t104 90t156.5 43.5v83l121 15v-295q0 -46 14 -63.5t47 -17.5h35zM155.5 169q17.5 -14 52.5 -14q60 0 110 41v106q-85 -4 -132.5 -31.5t-47.5 -64.5
q0 -23 17.5 -37zM249.5 619.5q-18.5 18.5 -18.5 45.5q0 26 18.5 44t44.5 18t44.5 -18t18.5 -44q0 -27 -18.5 -45.5t-44.5 -18.5t-44.5 18.5zM415 619.5q-19 18.5 -19 45.5q0 26 19 44t45 18t44 -18t18 -44q0 -27 -18 -45.5t-44 -18.5t-45 18.5z" />
    <glyph glyph-name="uni06C3.fina" unicode="&#x6c3;" horiz-adv-x="604" 
d="M21 -33q40 204 105 288.5t158 84.5q42 0 70 -12.5t45.5 -30t40.5 -48.5q24 -33 43.5 -52.5t52 -33t81.5 -13.5l7 -85l-20 -65q-81 0 -133 21t-79 49t-54 68q-20 29 -31.5 40.5t-28.5 11.5q-30 0 -51 -25t-38 -77t-39 -147zM155.5 434.5q-18.5 18.5 -18.5 45.5
q0 26 18.5 44t44.5 18t44.5 -18t18.5 -44q0 -27 -18.5 -45.5t-44.5 -18.5t-44.5 18.5zM321 434.5q-19 18.5 -19 45.5q0 26 19 44t45 18t44 -18t18 -44q0 -27 -18 -45.5t-44 -18.5t-45 18.5z" />
    <glyph glyph-name="uniFEEE" unicode="&#x648;" horiz-adv-x="550" arabic-form="final" 
d="M550 0h-88q-17 -76 -62.5 -128.5t-121.5 -88t-192 -63.5l-47 136q130 29 205 65t104 79h-55q-106 0 -163.5 51t-57.5 138q0 62 26.5 112t70.5 78t96 28t96 -28.5t73.5 -86t35.5 -142.5h92l8 -84zM366 141q-16 134 -106 134q-37 0 -60.5 -19.5t-23.5 -52.5q0 -36 26 -52
t83 -16q44 0 81 6z" />
    <glyph glyph-name="uni06C4.fina" unicode="&#x6c4;" horiz-adv-x="550" 
d="M550 0h-88q-17 -76 -62.5 -128.5t-121.5 -88t-192 -63.5l-47 136l22 5q-18 23 -18 52q0 36 24.5 59t59.5 23t59.5 -23t24.5 -59v-6q102 41 137 93h-55q-106 0 -163.5 51t-57.5 138q0 62 26.5 112t70.5 78t96 28t96 -28.5t73.5 -86t35.5 -142.5h92l8 -84zM366 141
q-16 134 -106 134q-37 0 -60.5 -19.5t-23.5 -52.5q0 -36 26 -52t83 -16q44 0 81 6zM104.5 -66q-8.5 -8 -8.5 -21t8.5 -21t22.5 -8q15 0 23 8t8 21t-8.5 21t-22.5 8t-22.5 -8z" />
    <glyph glyph-name="uni06CA.fina" unicode="&#x6ca;" horiz-adv-x="550" 
d="M550 0h-88q-17 -76 -62.5 -128.5t-121.5 -88t-192 -63.5l-47 136q130 29 205 65t104 79h-55q-106 0 -163.5 51t-57.5 138q0 62 26.5 112t70.5 78t96 28t96 -28.5t73.5 -86t35.5 -142.5h92l8 -84zM366 141q-16 134 -106 134q-37 0 -60.5 -19.5t-23.5 -52.5q0 -36 26 -52
t83 -16q44 0 81 6zM138.5 502.5q-18.5 18.5 -18.5 45.5q0 26 18.5 44t44.5 18t44.5 -18t18.5 -44q0 -27 -18.5 -45.5t-44.5 -18.5t-44.5 18.5zM304 502.5q-19 18.5 -19 45.5q0 26 19 44t45 18t44 -18t18 -44q0 -27 -18 -45.5t-44 -18.5t-45 18.5z" />
    <glyph glyph-name="uni06CF.fina" unicode="&#x6cf;" horiz-adv-x="550" 
d="M550 0h-88q-17 -76 -62.5 -128.5t-121.5 -88t-192 -63.5l-47 136q130 29 205 65t104 79h-55q-106 0 -163.5 51t-57.5 138q0 62 26.5 112t70.5 78t96 28t96 -28.5t73.5 -86t35.5 -142.5h92l8 -84zM366 141q-16 134 -106 134q-37 0 -60.5 -19.5t-23.5 -52.5q0 -36 26 -52
t83 -16q44 0 81 6zM216 495q-20 20 -20 49q0 28 20.5 48.5t48.5 20.5q29 0 49 -20.5t20 -48.5q0 -29 -20 -49t-49 -20t-49 20z" />
    <glyph glyph-name="uniFE86" unicode="&#x624;" horiz-adv-x="550" arabic-form="final" 
d="M550 0h-88q-17 -76 -62.5 -128.5t-121.5 -88t-192 -63.5l-47 136q130 29 205 65t104 79h-55q-106 0 -163.5 51t-57.5 138q0 62 26.5 112t70.5 78t96 28t96 -28.5t73.5 -86t35.5 -142.5h92l8 -84zM366 141q-16 134 -106 134q-37 0 -60.5 -19.5t-23.5 -52.5q0 -36 26 -52
t83 -16q44 0 81 6zM381 485l-227 -36l-10 70l62 10q-35 31 -35 65q0 38 28 63.5t80 25.5q43 0 88 -27l-43 -66q-23 15 -43 15q-13 0 -20.5 -7.5t-7.5 -17.5q0 -16 23 -39l93 16z" />
    <glyph glyph-name="uniFBE1" unicode="&#x6c5;" horiz-adv-x="550" arabic-form="final" 
d="M550 0h-88q-17 -76 -62.5 -128.5t-121.5 -88t-192 -63.5l-47 136q88 19 160 46l-130 3l-37 61l270 -11q29 20 46 45h-55q-106 0 -163.5 51t-57.5 138q0 62 26.5 112t70.5 78t96 28t96 -28.5t73.5 -86t35.5 -142.5h92l8 -84zM366 141q-16 134 -106 134q-37 0 -60.5 -19.5
t-23.5 -52.5q0 -36 26 -52t83 -16q44 0 81 6z" />
    <glyph glyph-name="uniFBDA" unicode="&#x6c6;" horiz-adv-x="550" arabic-form="final" 
d="M550 0h-88q-17 -76 -62.5 -128.5t-121.5 -88t-192 -63.5l-47 136q130 29 205 65t104 79h-55q-106 0 -163.5 51t-57.5 138q0 62 26.5 112t70.5 78t96 28t96 -28.5t73.5 -86t35.5 -142.5h92l8 -84zM366 141q-16 134 -106 134q-37 0 -60.5 -19.5t-23.5 -52.5q0 -36 26 -52
t83 -16q44 0 81 6zM266 544l46 77l69 -29l-81 -143h-70l-79 143l69 29z" />
    <glyph glyph-name="uniFBD8" unicode="&#x6c7;" horiz-adv-x="550" arabic-form="final" 
d="M550 0h-88q-17 -76 -62.5 -128.5t-121.5 -88t-192 -63.5l-47 136q130 29 205 65t104 79h-55q-106 0 -163.5 51t-57.5 138q0 62 26.5 112t70.5 78t96 28t96 -28.5t73.5 -86t35.5 -142.5h92l8 -84zM366 141q-16 134 -106 134q-37 0 -60.5 -19.5t-23.5 -52.5q0 -36 26 -52
t83 -16q44 0 81 6zM343 670q22 -25 22 -61q0 -49 -37 -94.5t-127 -76.5l-31 65q44 12 73 29q-54 29 -54 77q0 39 27.5 62.5t63.5 23.5q41 0 63 -25zM264.5 618q-5.5 -6 -5.5 -18q0 -20 25 -34q14 17 14 33q0 25 -19 25q-9 0 -14.5 -6z" />
    <glyph glyph-name="uniFBDC" unicode="&#x6c8;" horiz-adv-x="550" arabic-form="final" 
d="M550 0h-88q-17 -76 -62.5 -128.5t-121.5 -88t-192 -63.5l-47 136q130 29 205 65t104 79h-55q-106 0 -163.5 51t-57.5 138q0 62 26.5 112t70.5 78t96 28t96 -28.5t73.5 -86t35.5 -142.5h92l8 -84zM366 141q-16 134 -106 134q-37 0 -60.5 -19.5t-23.5 -52.5q0 -36 26 -52
t83 -16q44 0 81 6zM305 647v-189h-78v180z" />
    <glyph glyph-name="uniFBE3" unicode="&#x6c9;" horiz-adv-x="550" arabic-form="final" 
d="M550 0h-88q-17 -76 -62.5 -128.5t-121.5 -88t-192 -63.5l-47 136q130 29 205 65t104 79h-55q-106 0 -163.5 51t-57.5 138q0 62 26.5 112t70.5 78t96 28t96 -28.5t73.5 -86t35.5 -142.5h92l8 -84zM366 141q-16 134 -106 134q-37 0 -60.5 -19.5t-23.5 -52.5q0 -36 26 -52
t83 -16q44 0 81 6zM151 506l79 142h70l81 -142l-69 -30l-46 77l-46 -77z" />
    <glyph glyph-name="uniFBDF" unicode="&#x6cb;" horiz-adv-x="550" arabic-form="final" 
d="M550 0h-88q-17 -76 -62.5 -128.5t-121.5 -88t-192 -63.5l-47 136q130 29 205 65t104 79h-55q-106 0 -163.5 51t-57.5 138q0 62 26.5 112t70.5 78t96 28t96 -28.5t73.5 -86t35.5 -142.5h92l8 -84zM366 141q-16 134 -106 134q-37 0 -60.5 -19.5t-23.5 -52.5q0 -36 26 -52
t83 -16q44 0 81 6zM224.5 630q-17.5 18 -17.5 43t17.5 42t41.5 17t41.5 -17t17.5 -42t-17.5 -43t-41.5 -18t-41.5 18zM134 496q-18 17 -18 42t18 43t44 18q24 0 41.5 -18t17.5 -43t-17.5 -42t-41.5 -17q-26 0 -44 17zM312.5 496q-17.5 17 -17.5 42t17.5 43t41.5 18
q26 0 44 -18t18 -43t-18 -42t-44 -17q-24 0 -41.5 17z" />
    <glyph glyph-name="uniFEF0" unicode="&#x649;" horiz-adv-x="718" arabic-form="final" 
d="M718 0q-28 0 -63 12q8 -18 8 -33q0 -55 -38.5 -100t-117 -72t-194.5 -27q-138 0 -206 67.5t-68 192.5q0 59 16.5 113t38.5 93l95 -27q-28 -72 -28 -154q0 -64 39.5 -99.5t124.5 -35.5q67 0 119 10.5t80.5 26.5t28.5 33q0 23 -34.5 40.5t-117.5 38.5l59 128l74 -19
q72 -20 115 -29t82 -9l7 -83z" />
    <glyph glyph-name="uniFEF2" unicode="&#x64a;" horiz-adv-x="718" arabic-form="final" 
d="M718 0q-28 0 -63 12q8 -18 8 -33q0 -55 -38.5 -100t-117 -72t-194.5 -27q-138 0 -206 67.5t-68 192.5q0 59 16.5 113t38.5 93l95 -27q-28 -72 -28 -154q0 -64 39.5 -99.5t124.5 -35.5q67 0 119 10.5t80.5 26.5t28.5 33q0 23 -34.5 40.5t-117.5 38.5l59 128l74 -19
q72 -20 115 -29t82 -9l7 -83zM188.5 -401.5q-18.5 18.5 -18.5 44.5t18.5 44.5t44.5 18.5t44.5 -18.5t18.5 -44.5t-18.5 -44.5t-44.5 -18.5t-44.5 18.5zM354 -401.5q-19 18.5 -19 44.5t19 44.5t45 18.5t44 -18.5t18 -44.5t-18 -44.5t-44 -18.5t-45 18.5z" />
    <glyph glyph-name="uniFEF4" unicode="&#x64a;" horiz-adv-x="331" arabic-form="medial" 
d="M351 68l-20 -68q-61 0 -100.5 14.5t-64.5 51.5q-26 -37 -64.5 -51.5t-101.5 -14.5l-20 67l33 83q45 0 64 7t24 24t5 56v101h121v-99q0 -38 8 -56t32.5 -25.5t75.5 -7.5zM38.5 -187.5q-18.5 18.5 -18.5 44.5t18.5 44.5t44.5 18.5t44.5 -18.5t18.5 -44.5t-18.5 -44.5
t-44.5 -18.5t-44.5 18.5zM204 -187.5q-19 18.5 -19 44.5t19 44.5t45 18.5t44 -18.5t18 -44.5t-18 -44.5t-44 -18.5t-45 18.5z" />
    <glyph glyph-name="uniFEF3" unicode="&#x64a;" horiz-adv-x="318" arabic-form="initial" 
d="M98 155q28 5 38 17t10 36q0 47 -48 172l129 42q20 -62 31 -123.5t11 -108.5q0 -78 -25.5 -118.5t-82 -56t-161.5 -15.5l-20 67l32 83q58 0 86 5zM21.5 -187.5q-18.5 18.5 -18.5 44.5t18.5 44.5t44.5 18.5t44.5 -18.5t18.5 -44.5t-18.5 -44.5t-44.5 -18.5t-44.5 18.5z
M187 -187.5q-19 18.5 -19 44.5t19 44.5t45 18.5t44 -18.5t18 -44.5t-18 -44.5t-44 -18.5t-45 18.5z" />
    <glyph glyph-name="uniFE8A" unicode="&#x626;" horiz-adv-x="718" arabic-form="final" 
d="M718 0q-28 0 -63 12q8 -18 8 -33q0 -55 -38.5 -100t-117 -72t-194.5 -27q-138 0 -206 67.5t-68 192.5q0 59 16.5 113t38.5 93l95 -27q-28 -72 -28 -154q0 -64 39.5 -99.5t124.5 -35.5q67 0 119 10.5t80.5 26.5t28.5 33q0 23 -34.5 40.5t-117.5 38.5l59 128l74 -19
q72 -20 115 -29t82 -9l7 -83zM268 335l-227 -36l-10 70l62 10q-35 31 -35 65q0 38 28 63.5t80 25.5q43 0 88 -27l-43 -66q-23 15 -43 15q-13 0 -20.5 -7.5t-7.5 -17.5q0 -16 23 -39l93 16z" />
    <glyph glyph-name="uniFE8C" unicode="&#x626;" horiz-adv-x="331" arabic-form="medial" 
d="M351 68l-20 -68q-61 0 -100.5 14.5t-64.5 51.5q-26 -37 -64.5 -51.5t-101.5 -14.5l-20 67l33 83q45 0 64 7t24 24t5 56v101h121v-99q0 -38 8 -56t32.5 -25.5t75.5 -7.5zM282 421l-227 -36l-10 70l62 10q-35 31 -35 65q0 38 28 63.5t80 25.5q43 0 88 -27l-43 -66
q-23 15 -43 15q-13 0 -20.5 -7.5t-7.5 -17.5q0 -16 23 -39l93 16z" />
    <glyph glyph-name="uniFE8B" unicode="&#x626;" horiz-adv-x="318" arabic-form="initial" 
d="M98 155q28 5 38 17t10 36q0 47 -48 172l129 42q20 -62 31 -123.5t11 -108.5q0 -78 -25.5 -118.5t-82 -56t-161.5 -15.5l-20 67l32 83q58 0 86 5zM241 493l-227 -36l-10 70l62 10q-35 31 -35 65q0 38 28 63.5t80 25.5q43 0 88 -27l-43 -66q-23 15 -43 15q-13 0 -20.5 -7.5
t-7.5 -17.5q0 -16 23 -39l93 16z" />
    <glyph glyph-name="uni06CE.init" unicode="&#x6ce;" horiz-adv-x="318" 
d="M98 155q28 5 38 17t10 36q0 47 -48 172l129 42q20 -62 31 -123.5t11 -108.5q0 -78 -25.5 -118.5t-82 -56t-161.5 -15.5l-20 67l32 83q58 0 86 5zM21.5 -187.5q-18.5 18.5 -18.5 44.5t18.5 44.5t44.5 18.5t44.5 -18.5t18.5 -44.5t-18.5 -44.5t-44.5 -18.5t-44.5 18.5z
M187 -187.5q-19 18.5 -19 44.5t19 44.5t45 18.5t44 -18.5t18 -44.5t-18 -44.5t-44 -18.5t-45 18.5zM126 552l46 77l69 -29l-81 -143h-70l-79 143l69 29z" />
    <glyph glyph-name="uni06CE.medi" unicode="&#x6ce;" horiz-adv-x="331" 
d="M351 68l-20 -68q-61 0 -100.5 14.5t-64.5 51.5q-26 -37 -64.5 -51.5t-101.5 -14.5l-20 67l33 83q45 0 64 7t24 24t5 56v101h121v-99q0 -38 8 -56t32.5 -25.5t75.5 -7.5zM38.5 -187.5q-18.5 18.5 -18.5 44.5t18.5 44.5t44.5 18.5t44.5 -18.5t18.5 -44.5t-18.5 -44.5
t-44.5 -18.5t-44.5 18.5zM204 -187.5q-19 18.5 -19 44.5t19 44.5t45 18.5t44 -18.5t18 -44.5t-18 -44.5t-44 -18.5t-45 18.5zM167 480l46 77l69 -29l-81 -143h-70l-79 143l69 29z" />
    <glyph glyph-name="uni06CE.fina" unicode="&#x6ce;" horiz-adv-x="718" 
d="M718 0q-28 0 -63 12q8 -18 8 -33q0 -55 -38.5 -100t-117 -72t-194.5 -27q-138 0 -206 67.5t-68 192.5q0 59 16.5 113t38.5 93l95 -27q-28 -72 -28 -154q0 -64 39.5 -99.5t124.5 -35.5q67 0 119 10.5t80.5 26.5t28.5 33q0 23 -34.5 40.5t-117.5 38.5l59 128l74 -19
q72 -20 115 -29t82 -9l7 -83zM153 394l46 77l69 -29l-81 -143h-70l-79 143l69 29z" />
    <glyph glyph-name="uniFBFD" unicode="&#x6cc;" horiz-adv-x="718" arabic-form="final" 
d="M718 0q-28 0 -63 12q8 -18 8 -33q0 -55 -38.5 -100t-117 -72t-194.5 -27q-138 0 -206 67.5t-68 192.5q0 59 16.5 113t38.5 93l95 -27q-28 -72 -28 -154q0 -64 39.5 -99.5t124.5 -35.5q67 0 119 10.5t80.5 26.5t28.5 33q0 23 -34.5 40.5t-117.5 38.5l59 128l74 -19
q72 -20 115 -29t82 -9l7 -83z" />
    <glyph glyph-name="uniFBFF" unicode="&#x6cc;" horiz-adv-x="331" arabic-form="medial" 
d="M351 68l-20 -68q-61 0 -100.5 14.5t-64.5 51.5q-26 -37 -64.5 -51.5t-101.5 -14.5l-20 67l33 83q45 0 64 7t24 24t5 56v101h121v-99q0 -38 8 -56t32.5 -25.5t75.5 -7.5zM38.5 -187.5q-18.5 18.5 -18.5 44.5t18.5 44.5t44.5 18.5t44.5 -18.5t18.5 -44.5t-18.5 -44.5
t-44.5 -18.5t-44.5 18.5zM204 -187.5q-19 18.5 -19 44.5t19 44.5t45 18.5t44 -18.5t18 -44.5t-18 -44.5t-44 -18.5t-45 18.5z" />
    <glyph glyph-name="uniFBFE" unicode="&#x6cc;" horiz-adv-x="318" arabic-form="initial" 
d="M98 155q28 5 38 17t10 36q0 47 -48 172l129 42q20 -62 31 -123.5t11 -108.5q0 -78 -25.5 -118.5t-82 -56t-161.5 -15.5l-20 67l32 83q58 0 86 5zM21.5 -187.5q-18.5 18.5 -18.5 44.5t18.5 44.5t44.5 18.5t44.5 -18.5t18.5 -44.5t-18.5 -44.5t-44.5 -18.5t-44.5 18.5z
M187 -187.5q-19 18.5 -19 44.5t19 44.5t45 18.5t44 -18.5t18 -44.5t-18 -44.5t-44 -18.5t-45 18.5z" />
    <glyph glyph-name="uni06CD.fina" unicode="&#x6cd;" horiz-adv-x="777" 
d="M777 0q-28 0 -63 12q8 -18 8 -33q0 -55 -38.5 -100t-117 -72t-194.5 -27q-139 0 -207 67.5t-68 192.5q0 43 9 80q-49 -13 -92 -17l-17 63q81 26 156 80l94 -27q-27 -76 -27 -154q0 -64 39.5 -99.5t124.5 -35.5q67 0 119 10.5t80.5 26.5t28.5 33q0 23 -34.5 40.5
t-117.5 38.5l59 128q26 -6 74 -20q76 -20 117 -28.5t79 -8.5l8 -83z" />
    <glyph glyph-name="uni0620.init" unicode="&#x620;" horiz-adv-x="318" 
d="M256.5 98.5q-12.5 -35.5 -39.5 -56.5q26 -28 26 -66q0 -41 -28 -67.5t-68 -26.5t-68 26.5t-28 67.5q0 13 3 25q-17 -1 -54 -1l-20 67l32 83q58 0 86 5t38 17t10 36q0 47 -48 172l129 42q20 -62 31 -123.5t11 -108.5q0 -56 -12.5 -91.5zM173.5 -48q9.5 10 9.5 24t-10 23.5
t-26 9.5t-26 -9.5t-10 -23.5t9.5 -24t26.5 -10t26.5 10z" />
    <glyph glyph-name="uni0620.medi" unicode="&#x620;" horiz-adv-x="331" 
d="M331 0q-79 0 -120 24q11 -20 11 -45q0 -41 -28 -67.5t-68 -26.5q-41 0 -69 26.5t-28 67.5q0 8 2 22q-9 -1 -31 -1l-20 67l33 83q45 0 64 7t24 24t5 56v101h121v-99q0 -38 8 -56t32.5 -25.5t75.5 -7.5l8 -82zM166 66l-1 -1l2 -1zM152 -44.5q9 9.5 9 23.5t-9.5 23.5
t-25.5 9.5t-26 -9.5t-10 -23.5t9.5 -23.5t26.5 -9.5t26 9.5z" />
    <glyph glyph-name="uni0620.fina" unicode="&#x620;" horiz-adv-x="718" 
d="M718 0q-28 0 -63 12q8 -18 8 -33q0 -73 -67 -127t-197 -68q9 -18 9 -41q0 -41 -27.5 -67.5t-68.5 -26.5q-40 0 -68 26.5t-28 67.5q0 25 11 45q-95 20 -141.5 84.5t-46.5 167.5q0 59 16.5 113t38.5 93l95 -27q-28 -72 -28 -154q0 -64 39.5 -99.5t124.5 -35.5
q67 0 119 10.5t80.5 26.5t28.5 33q0 23 -34.5 40.5t-117.5 38.5l59 128l74 -19q72 -20 115 -29t82 -9l7 -83zM338.5 -280.5q9.5 9.5 9.5 23.5t-10 23.5t-26 9.5t-26 -9.5t-10 -23.5t9.5 -23.5t26.5 -9.5t26.5 9.5z" />
    <glyph glyph-name="uniFBE5" unicode="&#x6d0;" horiz-adv-x="718" arabic-form="final" 
d="M718 0q-28 0 -63 12q8 -18 8 -33q0 -55 -38.5 -100t-117 -72t-194.5 -27q-138 0 -206 67.5t-68 192.5q0 59 16.5 113t38.5 93l95 -27q-28 -72 -28 -154q0 -64 39.5 -99.5t124.5 -35.5q67 0 119 10.5t80.5 26.5t28.5 33q0 23 -34.5 40.5t-117.5 38.5l59 128l74 -19
q72 -20 115 -29t82 -9l7 -83zM271.5 -391.5q-18.5 18.5 -18.5 44.5t18.5 44.5t44.5 18.5t44.5 -18.5t18.5 -44.5t-18.5 -44.5t-44.5 -18.5t-44.5 18.5zM272 -550q-18 18 -18 44t18 44.5t44 18.5t45 -18.5t19 -44.5q0 -25 -19 -43.5t-45 -18.5t-44 18z" />
    <glyph glyph-name="uniFBE7" unicode="&#x6d0;" horiz-adv-x="331" arabic-form="medial" 
d="M351 68l-20 -68q-61 0 -100.5 14.5t-64.5 51.5q-26 -37 -64.5 -51.5t-101.5 -14.5l-20 67l33 83q45 0 64 7t24 24t5 56v101h121v-99q0 -38 8 -56t32.5 -25.5t75.5 -7.5zM120.5 -177.5q-18.5 18.5 -18.5 44.5t18.5 44.5t44.5 18.5t44.5 -18.5t18.5 -44.5t-18.5 -44.5
t-44.5 -18.5t-44.5 18.5zM121 -336q-18 18 -18 44t18 44.5t44 18.5t45 -18.5t19 -44.5q0 -25 -19 -43.5t-45 -18.5t-44 18z" />
    <glyph glyph-name="uniFBE6" unicode="&#x6d0;" horiz-adv-x="318" arabic-form="initial" 
d="M98 155q28 5 38 17t10 36q0 47 -48 172l129 42q20 -62 31 -123.5t11 -108.5q0 -78 -25.5 -118.5t-82 -56t-161.5 -15.5l-20 67l32 83q58 0 86 5zM104.5 -177.5q-18.5 18.5 -18.5 44.5t18.5 44.5t44.5 18.5t44.5 -18.5t18.5 -44.5t-18.5 -44.5t-44.5 -18.5t-44.5 18.5z
M105 -336q-18 18 -18 44t18 44.5t44 18.5t45 -18.5t19 -44.5q0 -25 -19 -43.5t-45 -18.5t-44 18z" />
    <glyph glyph-name="uni06D1.init" unicode="&#x6d1;" horiz-adv-x="318" 
d="M98 155q28 5 38 17t10 36q0 47 -48 172l129 42q20 -62 31 -123.5t11 -108.5q0 -78 -25.5 -118.5t-82 -56t-161.5 -15.5l-20 67l32 83q58 0 86 5zM102.5 -104.5q17.5 -17.5 17.5 -41.5q0 -26 -17.5 -43.5t-41.5 -17.5q-26 0 -44 17.5t-18 43.5q0 24 18.5 41.5t43.5 17.5
q24 0 41.5 -17.5zM280.5 -104.5q18.5 -17.5 18.5 -41.5q0 -26 -18 -43.5t-44 -17.5q-24 0 -41.5 17.5t-17.5 43.5q0 24 17.5 41.5t41.5 17.5q25 0 43.5 -17.5zM190.5 -239q17.5 -18 17.5 -43t-17.5 -42t-41.5 -17t-41.5 17t-17.5 42t17.5 43t41.5 18t41.5 -18z" />
    <glyph glyph-name="uni06D1.medi" unicode="&#x6d1;" horiz-adv-x="331" 
d="M351 68l-20 -68q-61 0 -100.5 14.5t-64.5 51.5q-26 -37 -64.5 -51.5t-101.5 -14.5l-20 67l33 83q45 0 64 7t24 24t5 56v101h121v-99q0 -38 8 -56t32.5 -25.5t75.5 -7.5zM119.5 -104.5q17.5 -17.5 17.5 -41.5q0 -26 -17.5 -43.5t-41.5 -17.5q-26 0 -44 17.5t-18 43.5
q0 24 18.5 41.5t43.5 17.5q24 0 41.5 -17.5zM297.5 -104.5q18.5 -17.5 18.5 -41.5q0 -26 -18 -43.5t-44 -17.5q-24 0 -41.5 17.5t-17.5 43.5q0 24 17.5 41.5t41.5 17.5q25 0 43.5 -17.5zM207.5 -239q17.5 -18 17.5 -43t-17.5 -42t-41.5 -17t-41.5 17t-17.5 42t17.5 43
t41.5 18t41.5 -18z" />
    <glyph glyph-name="uni06D1.fina" unicode="&#x6d1;" horiz-adv-x="718" 
d="M718 0q-28 0 -63 12q8 -18 8 -33q0 -55 -38.5 -100t-117 -72t-194.5 -27q-138 0 -206 67.5t-68 192.5q0 59 16.5 113t38.5 93l95 -27q-28 -72 -28 -154q0 -64 39.5 -99.5t124.5 -35.5q67 0 119 10.5t80.5 26.5t28.5 33q0 23 -34.5 40.5t-117.5 38.5l59 128l74 -19
q72 -20 115 -29t82 -9l7 -83zM269.5 -318.5q17.5 -17.5 17.5 -41.5q0 -26 -17.5 -43.5t-41.5 -17.5q-26 0 -44 17.5t-18 43.5q0 24 18.5 41.5t43.5 17.5q24 0 41.5 -17.5zM447.5 -318.5q18.5 -17.5 18.5 -41.5q0 -26 -18 -43.5t-44 -17.5q-24 0 -41.5 17.5t-17.5 43.5
q0 24 17.5 41.5t41.5 17.5q25 0 43.5 -17.5zM357.5 -453q17.5 -18 17.5 -43t-17.5 -42t-41.5 -17t-41.5 17t-17.5 42t17.5 43t41.5 18t41.5 -18z" />
    <glyph glyph-name="uniFBAF" unicode="&#x6d2;" horiz-adv-x="790" arabic-form="final" 
d="M234 -298q-73 0 -121.5 24t-71 61.5t-22.5 79.5q0 72 41.5 136.5t123.5 105.5t199 41h419l8 -83l-20 -67h-432q-75 0 -126.5 -15t-77 -40t-25.5 -55q0 -20 12 -30t45 -10h593l-46 -148h-499z" />
    <glyph glyph-name="uniFBB1" unicode="&#x6d3;" horiz-adv-x="790" arabic-form="final" 
d="M234 -298q-73 0 -121.5 24t-71 61.5t-22.5 79.5q0 72 41.5 136.5t123.5 105.5t199 41h419l8 -83l-20 -67h-432q-75 0 -126.5 -15t-77 -40t-25.5 -55q0 -20 12 -30t45 -10h593l-46 -148h-499zM376 258l-227 -36l-10 70l62 10q-35 31 -35 65q0 38 28 63.5t80 25.5
q43 0 88 -27l-43 -66q-23 15 -43 15q-13 0 -20.5 -7.5t-7.5 -17.5q0 -16 23 -39l93 16z" />
    <glyph glyph-name="uni0676.fina" unicode="&#x676;" horiz-adv-x="550" 
d="M463 534l-227 -36l-10 70l62 10q-35 31 -35 65q0 38 28 63.5t80 25.5q43 0 88 -27l-43 -66q-23 15 -43 15q-13 0 -20.5 -7.5t-7.5 -17.5q0 -16 23 -39l93 16zM550 0h-88q-17 -76 -62.5 -128.5t-121.5 -88t-192 -63.5l-47 136q130 29 205 65t104 79h-55q-106 0 -163.5 51
t-57.5 138q0 62 26.5 112t70.5 78t96 28t96 -28.5t73.5 -86t35.5 -142.5h92l8 -84zM366 141q-16 134 -106 134q-37 0 -60.5 -19.5t-23.5 -52.5q0 -36 26 -52t83 -16q44 0 81 6z" />
    <glyph glyph-name="uni0677.fina" unicode="&#x677;" horiz-adv-x="550" 
d="M550 0h-88q-17 -76 -62.5 -128.5t-121.5 -88t-192 -63.5l-47 136q130 29 205 65t104 79h-55q-106 0 -163.5 51t-57.5 138q0 62 26.5 112t70.5 78t96 28t96 -28.5t73.5 -86t35.5 -142.5h92l8 -84zM366 141q-16 134 -106 134q-37 0 -60.5 -19.5t-23.5 -52.5q0 -36 26 -52
t83 -16q44 0 81 6zM381 485l-227 -36l-10 70l62 10q-35 31 -35 65q0 38 28 63.5t80 25.5q43 0 88 -27l-43 -66q-23 15 -43 15q-13 0 -20.5 -7.5t-7.5 -17.5q0 -16 23 -39l93 16zM340 939q22 -25 22 -61q0 -49 -37 -94.5t-127 -76.5l-31 65q44 12 73 29q-54 29 -54 77
q0 39 27.5 62.5t63.5 23.5q41 0 63 -25zM261.5 887q-5.5 -6 -5.5 -18q0 -20 25 -34q14 17 14 33q0 25 -19 25q-9 0 -14.5 -6z" />
    <glyph glyph-name="uni0678.init" unicode="&#x678;" horiz-adv-x="318" 
d="M268 574l-227 -36l-10 70l62 10q-35 31 -35 65q0 38 28 63.5t80 25.5q43 0 88 -27l-43 -66q-23 15 -43 15q-13 0 -20.5 -7.5t-7.5 -17.5q0 -16 23 -39l93 16zM98 155q28 5 38 17t10 36q0 47 -48 172l129 42q20 -62 31 -123.5t11 -108.5q0 -78 -25.5 -118.5t-82 -56
t-161.5 -15.5l-20 67l32 83q58 0 86 5z" />
    <glyph glyph-name="uni0678.medi" unicode="&#x678;" horiz-adv-x="331" 
d="M65 538l62 10q-35 31 -35 65q0 38 28 63.5t80 25.5q43 0 88 -27l-43 -66q-23 15 -43 15q-13 0 -20.5 -7.5t-7.5 -17.5q0 -16 23 -39l93 16l12 -72l-227 -36zM351 68l-20 -68q-61 0 -100.5 14.5t-64.5 51.5q-26 -37 -64.5 -51.5t-101.5 -14.5l-20 67l33 83q45 0 64 7
t24 24t5 56v101h121v-99q0 -38 8 -56t32.5 -25.5t75.5 -7.5z" />
    <glyph glyph-name="uni0678.fina" unicode="&#x678;" horiz-adv-x="718" 
d="M718 0q-28 0 -63 12q8 -18 8 -33q0 -55 -38.5 -100t-117 -72t-194.5 -27q-138 0 -206 67.5t-68 192.5q0 59 16.5 113t38.5 93l95 -27q-28 -72 -28 -154q0 -64 39.5 -99.5t124.5 -35.5q67 0 119 10.5t80.5 26.5t28.5 33q0 23 -34.5 40.5t-117.5 38.5l59 128l74 -19
q72 -20 115 -29t82 -9l7 -83zM645 304l-227 -36l-10 70l62 10q-35 31 -35 65q0 38 28 63.5t80 25.5q43 0 88 -27l-43 -66q-23 15 -43 15q-13 0 -20.5 -7.5t-7.5 -17.5q0 -16 23 -39l93 16z" />
    <glyph glyph-name="uni06D5.fina" unicode="&#x6d5;" horiz-adv-x="522" 
d="M542 66l-20 -66h-35q-115 0 -153 88q-25 -31 -63.5 -48t-83.5 -17q-76 0 -121 44.5t-45 115.5q0 58 36.5 111.5t104 90t156.5 43.5v83l121 15v-295q0 -46 14 -63.5t47 -17.5h35zM155.5 169q17.5 -14 52.5 -14q60 0 110 41v106q-85 -4 -132.5 -31.5t-47.5 -64.5
q0 -23 17.5 -37z" />
    <glyph glyph-name="uniFE70" unicode="&#xfe70;" horiz-adv-x="600" arabic-form="isolated" 
d="M27 764l229 43l-3 -73l-229 -44zM27 657l229 43l-3 -73l-229 -44z" />
    <glyph glyph-name="uniFE72" unicode="&#xfe72;" horiz-adv-x="600" arabic-form="isolated" 
d="M301.5 811q21.5 -25 21.5 -61q0 -46 -34.5 -94t-104.5 -81l-57 26q0 37 -17 37q-13 0 -30 -18l-37 42q35 45 70 45q26 0 42 -16.5t22 -45.5q24 16 34 25q-62 30 -62 81q0 39 27.5 62t63.5 23q40 0 61.5 -25zM224 759q-6 -6 -6 -18q0 -21 27 -36q13 20 13 36
q0 11 -5.5 17.5t-13.5 6.5q-9 0 -15 -6z" />
    <glyph glyph-name="uniFE74" unicode="&#xfe74;" horiz-adv-x="600" arabic-form="isolated" 
d="M30 -95l229 43l-3 -73l-229 -44zM30 -199l229 43l-3 -73l-229 -44z" />
    <glyph glyph-name="uniFE76" unicode="&#xfe76;" horiz-adv-x="600" arabic-form="isolated" 
d="M27 648l229 43l-3 -73l-229 -44z" />
    <glyph glyph-name="uniFE78" unicode="&#xfe78;" horiz-adv-x="600" arabic-form="isolated" 
d="M175 800q22 -25 22 -61q0 -49 -37 -94.5t-127 -76.5l-31 65q44 12 73 29q-54 29 -54 77q0 39 27.5 62.5t63.5 23.5q41 0 63 -25zM96.5 748q-5.5 -6 -5.5 -18q0 -20 25 -34q14 17 14 33q0 25 -19 25q-9 0 -14.5 -6z" />
    <glyph glyph-name="uniFE7C" unicode="&#xfe7c;" horiz-adv-x="600" arabic-form="isolated" 
d="M274.5 745.5q6.5 -25.5 6.5 -45.5q0 -38 -21 -60.5t-58 -22.5q-40 0 -58 29q-18 -31 -61 -31q-28 0 -50.5 20t-22.5 58q0 37 18 73l58 -14q-6 -22 -6 -40q0 -24 16 -24q19 0 19 28v30h60v-32q0 -22 17 -22t17 28q0 23 -10 51l60 20q9 -20 15.5 -45.5z" />
    <glyph glyph-name="uniFC61" unicode="&#xfc61;" arabic-form="isolated" 
d="M274.5 745.5q6.5 -25.5 6.5 -45.5q0 -38 -21 -60.5t-58 -22.5q-40 0 -58 29q-18 -31 -61 -31q-28 0 -50.5 20t-22.5 58q0 37 18 73l58 -14q-6 -22 -6 -40q0 -24 16 -24q19 0 19 28v30h60v-32q0 -22 17 -22t17 28q0 23 -10 51l60 20q9 -20 15.5 -45.5zM222 1021
q22 -25 22 -61q0 -49 -37 -94.5t-127 -76.5l-31 65q44 12 73 29q-54 29 -54 77q0 39 27.5 62.5t63.5 23.5q41 0 63 -25zM143.5 969q-5.5 -6 -5.5 -18q0 -20 25 -34q14 17 14 33q0 25 -19 25q-9 0 -14.5 -6z" />
    <glyph glyph-name="uniFC63" unicode="&#xfc63;" arabic-form="isolated" 
d="M274.5 745.5q6.5 -25.5 6.5 -45.5q0 -38 -21 -60.5t-58 -22.5q-40 0 -58 29q-18 -31 -61 -31q-28 0 -50.5 20t-22.5 58q0 37 18 73l58 -14q-6 -22 -6 -40q0 -24 16 -24q19 0 19 28v30h60v-32q0 -22 17 -22t17 28q0 23 -10 51l60 20q9 -20 15.5 -45.5zM183 998v-189h-78
v180z" />
    <glyph glyph-name="uniFE7E" unicode="&#xfe7e;" horiz-adv-x="600" arabic-form="isolated" 
d="M171 602q-29 -27 -71 -27t-71 27t-29 71t29 71t71 27t71 -27t29 -71t-29 -71zM128 699q-10 10 -28 10t-28 -10t-10 -26t10 -26t28 -10t28 10t10 26t-10 26z" />
    <glyph glyph-name=".notdef" horiz-adv-x="666" 
d="M543 -350h-420v1400h420v-1400zM178 998v-1296h311v1296h-311zM409.5 419q25.5 -32 25.5 -83q0 -53 -22.5 -82t-72.5 -36v-45q0 -11 -7.5 -17.5t-17.5 -6.5t-17.5 6.5t-7.5 17.5v84q53 3 72 19.5t19 57.5q0 33 -13 51t-48 18q-29 0 -52 -11q-8 -3 -13 -3q-11 0 -17.5 6.5
t-6.5 16.5q0 19 29.5 29t63.5 10q60 0 85.5 -32zM340 110q10 -10 10 -25q0 -16 -10 -26.5t-25 -10.5t-25 10.5t-10 26.5q0 15 10 25t25 10t25 -10z" />
    <glyph glyph-name="NULL" 
 />
    <glyph glyph-name="nonmarkingreturn" unicode="&#xd;" horiz-adv-x="237" 
 />
    <glyph glyph-name="space" unicode=" " horiz-adv-x="237" 
 />
    </font>
</defs>
</svg>
